SplineFontDB: 3.2
FontName: Oscilloscope5
FullName: Oscilloscope 5
FamilyName: Oscilloscope
Weight: Book
Copyright: (c) 1997 marianfudge2@hotmail.com use this if you like
Version: Macromedia Fontographer 4.1 3/21/98
ItalicAngle: 0
UnderlinePosition: -143
UnderlineWidth: 20
Ascent: 800
Descent: 200
InvalidEm: 0
sfntRevision: 0x00010000
LayerCount: 2
Layer: 0 1 "Back" 1
Layer: 1 1 "Fore" 0
XUID: [1021 765 520456929 13327780]
StyleMap: 0x0040
FSType: 2
OS2Version: 1
OS2_WeightWidthSlopeOnly: 0
OS2_UseTypoMetrics: 0
CreationTime: 890512403
ModificationTime: 1714332669
PfmFamily: 81
TTFWeight: 400
TTFWidth: 5
LineGap: 0
VLineGap: 0
Panose: 0 0 4 0 0 0 0 0 0 0
OS2TypoAscent: 678
OS2TypoAOffset: 0
OS2TypoDescent: -13
OS2TypoDOffset: 0
OS2TypoLinegap: 0
OS2WinAscent: 678
OS2WinAOffset: 0
OS2WinDescent: 13
OS2WinDOffset: 0
HheadAscent: 800
HheadAOffset: 0
HheadDescent: -200
HheadDOffset: 0
OS2SubXSize: 700
OS2SubYSize: 650
OS2SubXOff: 0
OS2SubYOff: 143
OS2SupXSize: 700
OS2SupYSize: 650
OS2SupXOff: 0
OS2SupYOff: 453
OS2StrikeYSize: 50
OS2StrikeYPos: 259
OS2Vendor: 'MACR'
OS2CodePages: 00000001.00000000
OS2UnicodeRanges: 00000003.00000000.00000000.00000000
MarkAttachClasses: 1
DEI: 91125
TtTable: prep
NPUSHB
 17
 11
 11
 10
 10
 9
 9
 8
 8
 7
 7
 2
 2
 1
 1
 0
 0
 1
SCANTYPE
PUSHW_1
 511
SCANCTRL
RCVT
ROUND[Grey]
WCVTP
RCVT
ROUND[Grey]
WCVTP
RCVT
ROUND[Grey]
WCVTP
RCVT
ROUND[Grey]
WCVTP
RCVT
ROUND[Grey]
WCVTP
RCVT
ROUND[Grey]
WCVTP
RCVT
ROUND[Grey]
WCVTP
RCVT
ROUND[Grey]
WCVTP
PUSHB_4
 4
 3
 70
 0
CALL
PUSHB_4
 6
 5
 70
 0
CALL
PUSHB_2
 3
 3
RCVT
ROUND[Grey]
WCVTP
PUSHB_2
 5
 5
RCVT
ROUND[Grey]
WCVTP
EndTTInstrs
TtTable: fpgm
NPUSHB
 1
 0
FDEF
SROUND
RCVT
DUP
PUSHB_1
 3
CINDEX
RCVT
SWAP
SUB
ROUND[Grey]
RTG
SWAP
ROUND[Grey]
ADD
WCVTP
ENDF
EndTTInstrs
ShortTable: cvt  15
  -3
  380
  668
  30
  65
  31
  72
  18
  50
  152
  192
  111
  23133
  1
  3
EndShort
ShortTable: maxp 16
  1
  0
  79
  196
  50
  0
  0
  2
  8
  64
  10
  0
  64
  86
  1
  1
EndShort

StartChar: .notdef
Encoding: 65536 -1 0
Width: 500
Flags: W
LayerCount: 2
Fore
SplineSet
63 0 m 1,0,-1
 63 800 l 1,1,-1
 438 800 l 1,2,-1
 438 0 l 1,3,-1
 63 0 l 1,0,-1
125 63 m 1,4,-1
 375 63 l 1,5,-1
 375 738 l 1,6,-1
 125 738 l 1,7,-1
 125 63 l 1,4,-1
EndSplineSet
Validated: 1
EndChar

StartChar: zero
Encoding: 48 48 4
Width: 767
Flags: W
LayerCount: 2
Fore
SplineSet
712 547 m 1,0,-1
 712 618 l 1,1,-1
 777 618 l 1,2,-1
 777 547 l 1,3,-1
 712 547 l 1,0,-1
712 507 m 1,4,-1
 712 578 l 1,5,-1
 777 578 l 1,6,-1
 777 507 l 1,7,-1
 712 507 l 1,4,-1
712 467 m 1,8,-1
 712 538 l 1,9,-1
 777 538 l 1,10,-1
 777 467 l 1,11,-1
 712 467 l 1,8,-1
447 587 m 1,12,-1
 447 661 l 1,13,-1
 742 661 l 1,14,-1
 742 587 l 1,15,-1
 447 587 l 1,12,-1
712 427 m 1,16,-1
 712 498 l 1,17,-1
 777 498 l 1,18,-1
 777 427 l 1,19,-1
 712 427 l 1,16,-1
712 387 m 1,20,-1
 712 458 l 1,21,-1
 777 458 l 1,22,-1
 777 387 l 1,23,-1
 712 387 l 1,20,-1
712 347 m 1,24,-1
 712 418 l 1,25,-1
 777 418 l 1,26,-1
 777 347 l 1,27,-1
 712 347 l 1,24,-1
712 307 m 1,28,-1
 712 378 l 1,29,-1
 777 378 l 1,30,-1
 777 307 l 1,31,-1
 712 307 l 1,28,-1
412 587 m 1,32,-1
 412 658 l 1,33,-1
 477 658 l 1,34,-1
 477 587 l 1,35,-1
 412 587 l 1,32,-1
712 267 m 1,36,-1
 712 338 l 1,37,-1
 777 338 l 1,38,-1
 777 267 l 1,39,-1
 712 267 l 1,36,-1
712 227 m 1,40,-1
 712 298 l 1,41,-1
 777 298 l 1,42,-1
 777 227 l 1,43,-1
 712 227 l 1,40,-1
712 187 m 1,44,-1
 712 258 l 1,45,-1
 777 258 l 1,46,-1
 777 187 l 1,47,-1
 712 187 l 1,44,-1
712 147 m 1,48,-1
 712 218 l 1,49,-1
 777 218 l 1,50,-1
 777 147 l 1,51,-1
 712 147 l 1,48,-1
147 587 m 1,52,-1
 147 661 l 1,53,-1
 442 661 l 1,54,-1
 442 587 l 1,55,-1
 147 587 l 1,52,-1
712 107 m 1,56,-1
 712 178 l 1,57,-1
 777 178 l 1,58,-1
 777 107 l 1,59,-1
 712 107 l 1,56,-1
712 67 m 1,60,-1
 712 138 l 1,61,-1
 777 138 l 1,62,-1
 777 67 l 1,63,-1
 712 67 l 1,60,-1
712 27 m 1,64,-1
 712 98 l 1,65,-1
 777 98 l 1,66,-1
 777 27 l 1,67,-1
 712 27 l 1,64,-1
112 547 m 1,68,-1
 112 618 l 1,69,-1
 177 618 l 1,70,-1
 177 547 l 1,71,-1
 112 547 l 1,68,-1
112 507 m 1,72,-1
 112 578 l 1,73,-1
 177 578 l 1,74,-1
 177 507 l 1,75,-1
 112 507 l 1,72,-1
112 467 m 1,76,-1
 112 538 l 1,77,-1
 177 538 l 1,78,-1
 177 467 l 1,79,-1
 112 467 l 1,76,-1
447 -13 m 1,80,-1
 447 61 l 1,81,-1
 742 61 l 1,82,-1
 742 -13 l 1,83,-1
 447 -13 l 1,80,-1
112 427 m 1,84,-1
 112 498 l 1,85,-1
 177 498 l 1,86,-1
 177 427 l 1,87,-1
 112 427 l 1,84,-1
112 387 m 1,88,-1
 112 458 l 1,89,-1
 177 458 l 1,90,-1
 177 387 l 1,91,-1
 112 387 l 1,88,-1
112 347 m 1,92,-1
 112 418 l 1,93,-1
 177 418 l 1,94,-1
 177 347 l 1,95,-1
 112 347 l 1,92,-1
112 307 m 1,96,-1
 112 378 l 1,97,-1
 177 378 l 1,98,-1
 177 307 l 1,99,-1
 112 307 l 1,96,-1
412 -13 m 1,100,-1
 412 58 l 1,101,-1
 477 58 l 1,102,-1
 477 -13 l 1,103,-1
 412 -13 l 1,100,-1
112 267 m 1,104,-1
 112 338 l 1,105,-1
 177 338 l 1,106,-1
 177 267 l 1,107,-1
 112 267 l 1,104,-1
112 227 m 1,108,-1
 112 298 l 1,109,-1
 177 298 l 1,110,-1
 177 227 l 1,111,-1
 112 227 l 1,108,-1
112 187 m 1,112,-1
 112 258 l 1,113,-1
 177 258 l 1,114,-1
 177 187 l 1,115,-1
 112 187 l 1,112,-1
112 147 m 1,116,-1
 112 218 l 1,117,-1
 177 218 l 1,118,-1
 177 147 l 1,119,-1
 112 147 l 1,116,-1
147 -13 m 1,120,-1
 147 61 l 1,121,-1
 442 61 l 1,122,-1
 442 -13 l 1,123,-1
 147 -13 l 1,120,-1
112 107 m 1,124,-1
 112 178 l 1,125,-1
 177 178 l 1,126,-1
 177 107 l 1,127,-1
 112 107 l 1,124,-1
112 67 m 1,128,-1
 112 138 l 1,129,-1
 177 138 l 1,130,-1
 177 67 l 1,131,-1
 112 67 l 1,128,-1
112 27 m 1,132,-1
 112 98 l 1,133,-1
 177 98 l 1,134,-1
 177 27 l 1,135,-1
 112 27 l 1,132,-1
EndSplineSet
Validated: 5
EndChar

StartChar: one
Encoding: 49 49 5
Width: 725
Flags: W
LayerCount: 2
Fore
SplineSet
412 587 m 1,0,-1
 412 658 l 1,1,-1
 477 658 l 1,2,-1
 477 587 l 1,3,-1
 412 587 l 1,0,-1
412 547 m 1,4,-1
 412 618 l 1,5,-1
 477 618 l 1,6,-1
 477 547 l 1,7,-1
 412 547 l 1,4,-1
412 507 m 1,8,-1
 412 578 l 1,9,-1
 477 578 l 1,10,-1
 477 507 l 1,11,-1
 412 507 l 1,8,-1
412 467 m 1,12,-1
 412 538 l 1,13,-1
 477 538 l 1,14,-1
 477 467 l 1,15,-1
 412 467 l 1,12,-1
147 587 m 1,16,-1
 147 661 l 1,17,-1
 442 661 l 1,18,-1
 442 587 l 1,19,-1
 147 587 l 1,16,-1
412 427 m 1,20,-1
 412 498 l 1,21,-1
 477 498 l 1,22,-1
 477 427 l 1,23,-1
 412 427 l 1,20,-1
412 387 m 1,24,-1
 412 458 l 1,25,-1
 477 458 l 1,26,-1
 477 387 l 1,27,-1
 412 387 l 1,24,-1
412 347 m 1,28,-1
 412 418 l 1,29,-1
 477 418 l 1,30,-1
 477 347 l 1,31,-1
 412 347 l 1,28,-1
412 307 m 1,32,-1
 412 378 l 1,33,-1
 477 378 l 1,34,-1
 477 307 l 1,35,-1
 412 307 l 1,32,-1
112 587 m 1,36,-1
 112 658 l 1,37,-1
 177 658 l 1,38,-1
 177 587 l 1,39,-1
 112 587 l 1,36,-1
712 -13 m 1,40,-1
 712 58 l 1,41,-1
 777 58 l 1,42,-1
 777 -13 l 1,43,-1
 712 -13 l 1,40,-1
412 267 m 1,44,-1
 412 338 l 1,45,-1
 477 338 l 1,46,-1
 477 267 l 1,47,-1
 412 267 l 1,44,-1
412 227 m 1,48,-1
 412 298 l 1,49,-1
 477 298 l 1,50,-1
 477 227 l 1,51,-1
 412 227 l 1,48,-1
412 187 m 1,52,-1
 412 258 l 1,53,-1
 477 258 l 1,54,-1
 477 187 l 1,55,-1
 412 187 l 1,52,-1
412 147 m 1,56,-1
 412 218 l 1,57,-1
 477 218 l 1,58,-1
 477 147 l 1,59,-1
 412 147 l 1,56,-1
447 -13 m 1,60,-1
 447 61 l 1,61,-1
 742 61 l 1,62,-1
 742 -13 l 1,63,-1
 447 -13 l 1,60,-1
412 107 m 1,64,-1
 412 178 l 1,65,-1
 477 178 l 1,66,-1
 477 107 l 1,67,-1
 412 107 l 1,64,-1
412 67 m 1,68,-1
 412 138 l 1,69,-1
 477 138 l 1,70,-1
 477 67 l 1,71,-1
 412 67 l 1,68,-1
412 27 m 1,72,-1
 412 98 l 1,73,-1
 477 98 l 1,74,-1
 477 27 l 1,75,-1
 412 27 l 1,72,-1
412 -13 m 1,76,-1
 412 58 l 1,77,-1
 477 58 l 1,78,-1
 477 -13 l 1,79,-1
 412 -13 l 1,76,-1
147 -13 m 1,80,-1
 147 61 l 1,81,-1
 442 61 l 1,82,-1
 442 -13 l 1,83,-1
 147 -13 l 1,80,-1
112 -13 m 1,84,-1
 112 58 l 1,85,-1
 177 58 l 1,86,-1
 177 -13 l 1,87,-1
 112 -13 l 1,84,-1
EndSplineSet
Validated: 5
EndChar

StartChar: two
Encoding: 50 50 6
Width: 725
Flags: W
LayerCount: 2
Fore
SplineSet
712 547 m 5,0,-1
 712 618 l 5,1,-1
 777 618 l 5,2,-1
 777 547 l 5,3,-1
 712 547 l 5,0,-1
712 507 m 5,4,-1
 712 578 l 5,5,-1
 777 578 l 5,6,-1
 777 507 l 5,7,-1
 712 507 l 5,4,-1
712 467 m 5,8,-1
 712 538 l 5,9,-1
 777 538 l 5,10,-1
 777 467 l 5,11,-1
 712 467 l 5,8,-1
447 587 m 5,12,-1
 447 661 l 5,13,-1
 742 661 l 5,14,-1
 742 587 l 5,15,-1
 447 587 l 5,12,-1
712 427 m 5,16,-1
 712 498 l 5,17,-1
 777 498 l 5,18,-1
 777 427 l 5,19,-1
 712 427 l 5,16,-1
712 387 m 5,20,-1
 712 458 l 5,21,-1
 777 458 l 5,22,-1
 777 387 l 5,23,-1
 712 387 l 5,20,-1
712 347 m 5,24,-1
 712 418 l 5,25,-1
 777 418 l 5,26,-1
 777 347 l 5,27,-1
 712 347 l 5,24,-1
712 307 m 5,28,-1
 712 378 l 5,29,-1
 777 378 l 5,30,-1
 777 307 l 5,31,-1
 712 307 l 5,28,-1
412 587 m 5,32,-1
 412 658 l 5,33,-1
 477 658 l 5,34,-1
 477 587 l 5,35,-1
 412 587 l 5,32,-1
447 307 m 5,36,-1
 447 381 l 5,37,-1
 742 381 l 5,38,-1
 742 307 l 5,39,-1
 447 307 l 5,36,-1
147 587 m 5,40,-1
 147 661 l 5,41,-1
 442 661 l 5,42,-1
 442 587 l 5,43,-1
 147 587 l 5,40,-1
412 307 m 5,44,-1
 412 378 l 5,45,-1
 477 378 l 5,46,-1
 477 307 l 5,47,-1
 412 307 l 5,44,-1
112 587 m 5,48,-1
 112 658 l 5,49,-1
 177 658 l 5,50,-1
 177 587 l 5,51,-1
 112 587 l 5,48,-1
712 -13 m 5,52,-1
 712 58 l 5,53,-1
 777 58 l 5,54,-1
 777 -13 l 5,55,-1
 712 -13 l 5,52,-1
147 307 m 5,56,-1
 147 381 l 5,57,-1
 442 381 l 5,58,-1
 442 307 l 5,59,-1
 147 307 l 5,56,-1
447 -13 m 5,60,-1
 447 61 l 5,61,-1
 742 61 l 5,62,-1
 742 -13 l 5,63,-1
 447 -13 l 5,60,-1
412 -13 m 5,64,-1
 412 58 l 5,65,-1
 477 58 l 5,66,-1
 477 -13 l 5,67,-1
 412 -13 l 5,64,-1
112 267 m 5,68,-1
 112 338 l 5,69,-1
 177 338 l 5,70,-1
 177 267 l 5,71,-1
 112 267 l 5,68,-1
112 227 m 5,72,-1
 112 298 l 5,73,-1
 177 298 l 5,74,-1
 177 227 l 5,75,-1
 112 227 l 5,72,-1
112 187 m 5,76,-1
 112 258 l 5,77,-1
 177 258 l 5,78,-1
 177 187 l 5,79,-1
 112 187 l 5,76,-1
112 147 m 5,80,-1
 112 218 l 5,81,-1
 177 218 l 5,82,-1
 177 147 l 5,83,-1
 112 147 l 5,80,-1
147 -13 m 5,84,-1
 147 61 l 5,85,-1
 442 61 l 5,86,-1
 442 -13 l 5,87,-1
 147 -13 l 5,84,-1
112 107 m 5,88,-1
 112 178 l 5,89,-1
 177 178 l 5,90,-1
 177 107 l 5,91,-1
 112 107 l 5,88,-1
112 67 m 5,92,-1
 112 138 l 5,93,-1
 177 138 l 5,94,-1
 177 67 l 5,95,-1
 112 67 l 5,92,-1
112 27 m 5,96,-1
 112 98 l 5,97,-1
 177 98 l 5,98,-1
 177 27 l 5,99,-1
 112 27 l 5,96,-1
112 -13 m 5,100,-1
 112 58 l 5,101,-1
 177 58 l 5,102,-1
 177 -13 l 5,103,-1
 112 -13 l 5,100,-1
EndSplineSet
Validated: 5
EndChar

StartChar: three
Encoding: 51 51 7
Width: 767
Flags: W
LayerCount: 2
Fore
SplineSet
712 547 m 1,0,-1
 712 618 l 1,1,-1
 777 618 l 1,2,-1
 777 547 l 1,3,-1
 712 547 l 1,0,-1
712 507 m 1,4,-1
 712 578 l 1,5,-1
 777 578 l 1,6,-1
 777 507 l 1,7,-1
 712 507 l 1,4,-1
712 467 m 1,8,-1
 712 538 l 1,9,-1
 777 538 l 1,10,-1
 777 467 l 1,11,-1
 712 467 l 1,8,-1
447 587 m 1,12,-1
 447 661 l 1,13,-1
 742 661 l 1,14,-1
 742 587 l 1,15,-1
 447 587 l 1,12,-1
712 427 m 1,16,-1
 712 498 l 1,17,-1
 777 498 l 1,18,-1
 777 427 l 1,19,-1
 712 427 l 1,16,-1
712 387 m 1,20,-1
 712 458 l 1,21,-1
 777 458 l 1,22,-1
 777 387 l 1,23,-1
 712 387 l 1,20,-1
712 347 m 1,24,-1
 712 418 l 1,25,-1
 777 418 l 1,26,-1
 777 347 l 1,27,-1
 712 347 l 1,24,-1
712 307 m 1,28,-1
 712 378 l 1,29,-1
 777 378 l 1,30,-1
 777 307 l 1,31,-1
 712 307 l 1,28,-1
412 587 m 1,32,-1
 412 658 l 1,33,-1
 477 658 l 1,34,-1
 477 587 l 1,35,-1
 412 587 l 1,32,-1
712 267 m 1,36,-1
 712 338 l 1,37,-1
 777 338 l 1,38,-1
 777 267 l 1,39,-1
 712 267 l 1,36,-1
712 227 m 1,40,-1
 712 298 l 1,41,-1
 777 298 l 1,42,-1
 777 227 l 1,43,-1
 712 227 l 1,40,-1
712 187 m 1,44,-1
 712 258 l 1,45,-1
 777 258 l 1,46,-1
 777 187 l 1,47,-1
 712 187 l 1,44,-1
447 307 m 1,48,-1
 447 381 l 1,49,-1
 742 381 l 1,50,-1
 742 307 l 1,51,-1
 447 307 l 1,48,-1
712 147 m 1,52,-1
 712 218 l 1,53,-1
 777 218 l 1,54,-1
 777 147 l 1,55,-1
 712 147 l 1,52,-1
147 587 m 1,56,-1
 147 661 l 1,57,-1
 442 661 l 1,58,-1
 442 587 l 1,59,-1
 147 587 l 1,56,-1
712 107 m 1,60,-1
 712 178 l 1,61,-1
 777 178 l 1,62,-1
 777 107 l 1,63,-1
 712 107 l 1,60,-1
712 67 m 1,64,-1
 712 138 l 1,65,-1
 777 138 l 1,66,-1
 777 67 l 1,67,-1
 712 67 l 1,64,-1
712 27 m 1,68,-1
 712 98 l 1,69,-1
 777 98 l 1,70,-1
 777 27 l 1,71,-1
 712 27 l 1,68,-1
412 307 m 1,72,-1
 412 378 l 1,73,-1
 477 378 l 1,74,-1
 477 307 l 1,75,-1
 412 307 l 1,72,-1
112 587 m 1,76,-1
 112 658 l 1,77,-1
 177 658 l 1,78,-1
 177 587 l 1,79,-1
 112 587 l 1,76,-1
147 307 m 1,80,-1
 147 381 l 1,81,-1
 442 381 l 1,82,-1
 442 307 l 1,83,-1
 147 307 l 1,80,-1
447 -13 m 1,84,-1
 447 61 l 1,85,-1
 742 61 l 1,86,-1
 742 -13 l 1,87,-1
 447 -13 l 1,84,-1
412 -13 m 1,88,-1
 412 58 l 1,89,-1
 477 58 l 1,90,-1
 477 -13 l 1,91,-1
 412 -13 l 1,88,-1
147 -13 m 1,92,-1
 147 61 l 1,93,-1
 442 61 l 1,94,-1
 442 -13 l 1,95,-1
 147 -13 l 1,92,-1
112 -13 m 1,96,-1
 112 58 l 1,97,-1
 177 58 l 1,98,-1
 177 -13 l 1,99,-1
 112 -13 l 1,96,-1
EndSplineSet
Validated: 5
EndChar

StartChar: four
Encoding: 52 52 8
Width: 768
Flags: W
LayerCount: 2
Fore
SplineSet
712 587 m 1,0,-1
 712 658 l 1,1,-1
 777 658 l 1,2,-1
 777 587 l 1,3,-1
 712 587 l 1,0,-1
712 547 m 1,4,-1
 712 618 l 1,5,-1
 777 618 l 1,6,-1
 777 547 l 1,7,-1
 712 547 l 1,4,-1
712 507 m 1,8,-1
 712 578 l 1,9,-1
 777 578 l 1,10,-1
 777 507 l 1,11,-1
 712 507 l 1,8,-1
712 467 m 1,12,-1
 712 538 l 1,13,-1
 777 538 l 1,14,-1
 777 467 l 1,15,-1
 712 467 l 1,12,-1
712 427 m 1,16,-1
 712 498 l 1,17,-1
 777 498 l 1,18,-1
 777 427 l 1,19,-1
 712 427 l 1,16,-1
712 387 m 1,20,-1
 712 458 l 1,21,-1
 777 458 l 1,22,-1
 777 387 l 1,23,-1
 712 387 l 1,20,-1
712 347 m 1,24,-1
 712 418 l 1,25,-1
 777 418 l 1,26,-1
 777 347 l 1,27,-1
 712 347 l 1,24,-1
712 307 m 1,28,-1
 712 378 l 1,29,-1
 777 378 l 1,30,-1
 777 307 l 1,31,-1
 712 307 l 1,28,-1
712 267 m 1,32,-1
 712 338 l 1,33,-1
 777 338 l 1,34,-1
 777 267 l 1,35,-1
 712 267 l 1,32,-1
712 227 m 1,36,-1
 712 298 l 1,37,-1
 777 298 l 1,38,-1
 777 227 l 1,39,-1
 712 227 l 1,36,-1
712 187 m 1,40,-1
 712 258 l 1,41,-1
 777 258 l 1,42,-1
 777 187 l 1,43,-1
 712 187 l 1,40,-1
447 307 m 1,44,-1
 447 381 l 1,45,-1
 742 381 l 1,46,-1
 742 307 l 1,47,-1
 447 307 l 1,44,-1
712 147 m 1,48,-1
 712 218 l 1,49,-1
 777 218 l 1,50,-1
 777 147 l 1,51,-1
 712 147 l 1,48,-1
712 107 m 1,52,-1
 712 178 l 1,53,-1
 777 178 l 1,54,-1
 777 107 l 1,55,-1
 712 107 l 1,52,-1
712 67 m 1,56,-1
 712 138 l 1,57,-1
 777 138 l 1,58,-1
 777 67 l 1,59,-1
 712 67 l 1,56,-1
712 27 m 1,60,-1
 712 98 l 1,61,-1
 777 98 l 1,62,-1
 777 27 l 1,63,-1
 712 27 l 1,60,-1
412 307 m 1,64,-1
 412 378 l 1,65,-1
 477 378 l 1,66,-1
 477 307 l 1,67,-1
 412 307 l 1,64,-1
112 587 m 1,68,-1
 112 658 l 1,69,-1
 177 658 l 1,70,-1
 177 587 l 1,71,-1
 112 587 l 1,68,-1
712 -13 m 1,72,-1
 712 58 l 1,73,-1
 777 58 l 1,74,-1
 777 -13 l 1,75,-1
 712 -13 l 1,72,-1
112 547 m 1,76,-1
 112 618 l 1,77,-1
 177 618 l 1,78,-1
 177 547 l 1,79,-1
 112 547 l 1,76,-1
112 507 m 1,80,-1
 112 578 l 1,81,-1
 177 578 l 1,82,-1
 177 507 l 1,83,-1
 112 507 l 1,80,-1
112 467 m 1,84,-1
 112 538 l 1,85,-1
 177 538 l 1,86,-1
 177 467 l 1,87,-1
 112 467 l 1,84,-1
147 307 m 1,88,-1
 147 381 l 1,89,-1
 442 381 l 1,90,-1
 442 307 l 1,91,-1
 147 307 l 1,88,-1
112 427 m 1,92,-1
 112 498 l 1,93,-1
 177 498 l 1,94,-1
 177 427 l 1,95,-1
 112 427 l 1,92,-1
112 387 m 1,96,-1
 112 458 l 1,97,-1
 177 458 l 1,98,-1
 177 387 l 1,99,-1
 112 387 l 1,96,-1
112 347 m 1,100,-1
 112 418 l 1,101,-1
 177 418 l 1,102,-1
 177 347 l 1,103,-1
 112 347 l 1,100,-1
112 307 m 1,104,-1
 112 378 l 1,105,-1
 177 378 l 1,106,-1
 177 307 l 1,107,-1
 112 307 l 1,104,-1
EndSplineSet
Validated: 5
EndChar

StartChar: five
Encoding: 53 53 9
Width: 766
Flags: W
LayerCount: 2
Fore
SplineSet
712 587 m 1,0,-1
 712 658 l 1,1,-1
 777 658 l 1,2,-1
 777 587 l 1,3,-1
 712 587 l 1,0,-1
447 587 m 1,4,-1
 447 661 l 1,5,-1
 742 661 l 1,6,-1
 742 587 l 1,7,-1
 447 587 l 1,4,-1
730 609 m 1,8,-1
 730 584 l 1,9,-1
 460 584 l 1,10,-1
 460 609 l 1,11,-1
 730 609 l 1,8,-1
412 587 m 1,12,-1
 412 658 l 1,13,-1
 477 658 l 1,14,-1
 477 587 l 1,15,-1
 412 587 l 1,12,-1
712 267 m 1,16,-1
 712 338 l 1,17,-1
 777 338 l 1,18,-1
 777 267 l 1,19,-1
 712 267 l 1,16,-1
712 227 m 1,20,-1
 712 298 l 1,21,-1
 777 298 l 1,22,-1
 777 227 l 1,23,-1
 712 227 l 1,20,-1
712 187 m 1,24,-1
 712 258 l 1,25,-1
 777 258 l 1,26,-1
 777 187 l 1,27,-1
 712 187 l 1,24,-1
447 307 m 1,28,-1
 447 381 l 1,29,-1
 742 381 l 1,30,-1
 742 307 l 1,31,-1
 447 307 l 1,28,-1
712 147 m 1,32,-1
 712 218 l 1,33,-1
 777 218 l 1,34,-1
 777 147 l 1,35,-1
 712 147 l 1,32,-1
147 587 m 1,36,-1
 147 661 l 1,37,-1
 442 661 l 1,38,-1
 442 587 l 1,39,-1
 147 587 l 1,36,-1
430 609 m 1,40,-1
 430 584 l 1,41,-1
 160 584 l 1,42,-1
 160 609 l 1,43,-1
 430 609 l 1,40,-1
712 107 m 1,44,-1
 712 178 l 1,45,-1
 777 178 l 1,46,-1
 777 107 l 1,47,-1
 712 107 l 1,44,-1
712 67 m 1,48,-1
 712 138 l 1,49,-1
 777 138 l 1,50,-1
 777 67 l 1,51,-1
 712 67 l 1,48,-1
712 27 m 1,52,-1
 712 98 l 1,53,-1
 777 98 l 1,54,-1
 777 27 l 1,55,-1
 712 27 l 1,52,-1
412 307 m 1,56,-1
 412 378 l 1,57,-1
 477 378 l 1,58,-1
 477 307 l 1,59,-1
 412 307 l 1,56,-1
112 587 m 1,60,-1
 112 658 l 1,61,-1
 177 658 l 1,62,-1
 177 587 l 1,63,-1
 112 587 l 1,60,-1
712 -13 m 1,64,-1
 712 58 l 1,65,-1
 777 58 l 1,66,-1
 777 -13 l 1,67,-1
 712 -13 l 1,64,-1
112 547 m 1,68,-1
 112 618 l 1,69,-1
 177 618 l 1,70,-1
 177 547 l 1,71,-1
 112 547 l 1,68,-1
112 507 m 1,72,-1
 112 578 l 1,73,-1
 177 578 l 1,74,-1
 177 507 l 1,75,-1
 112 507 l 1,72,-1
112 467 m 1,76,-1
 112 538 l 1,77,-1
 177 538 l 1,78,-1
 177 467 l 1,79,-1
 112 467 l 1,76,-1
147 307 m 1,80,-1
 147 381 l 1,81,-1
 442 381 l 1,82,-1
 442 307 l 1,83,-1
 147 307 l 1,80,-1
447 -13 m 1,84,-1
 447 61 l 1,85,-1
 742 61 l 1,86,-1
 742 -13 l 1,87,-1
 447 -13 l 1,84,-1
112 427 m 1,88,-1
 112 498 l 1,89,-1
 177 498 l 1,90,-1
 177 427 l 1,91,-1
 112 427 l 1,88,-1
112 387 m 1,92,-1
 112 458 l 1,93,-1
 177 458 l 1,94,-1
 177 387 l 1,95,-1
 112 387 l 1,92,-1
112 347 m 1,96,-1
 112 418 l 1,97,-1
 177 418 l 1,98,-1
 177 347 l 1,99,-1
 112 347 l 1,96,-1
112 307 m 1,100,-1
 112 378 l 1,101,-1
 177 378 l 1,102,-1
 177 307 l 1,103,-1
 112 307 l 1,100,-1
412 -13 m 1,104,-1
 412 58 l 1,105,-1
 477 58 l 1,106,-1
 477 -13 l 1,107,-1
 412 -13 l 1,104,-1
147 -13 m 1,108,-1
 147 61 l 1,109,-1
 442 61 l 1,110,-1
 442 -13 l 1,111,-1
 147 -13 l 1,108,-1
112 -13 m 1,112,-1
 112 58 l 1,113,-1
 177 58 l 1,114,-1
 177 -13 l 1,115,-1
 112 -13 l 1,112,-1
EndSplineSet
Validated: 5
EndChar

StartChar: six
Encoding: 54 54 10
Width: 766
Flags: W
LayerCount: 2
Fore
SplineSet
712 587 m 1,0,-1
 712 658 l 1,1,-1
 777 658 l 1,2,-1
 777 587 l 1,3,-1
 712 587 l 1,0,-1
447 587 m 1,4,-1
 447 661 l 1,5,-1
 742 661 l 1,6,-1
 742 587 l 1,7,-1
 447 587 l 1,4,-1
412 587 m 1,8,-1
 412 658 l 1,9,-1
 477 658 l 1,10,-1
 477 587 l 1,11,-1
 412 587 l 1,8,-1
712 267 m 1,12,-1
 712 338 l 1,13,-1
 777 338 l 1,14,-1
 777 267 l 1,15,-1
 712 267 l 1,12,-1
712 227 m 1,16,-1
 712 298 l 1,17,-1
 777 298 l 1,18,-1
 777 227 l 1,19,-1
 712 227 l 1,16,-1
712 187 m 1,20,-1
 712 258 l 1,21,-1
 777 258 l 1,22,-1
 777 187 l 1,23,-1
 712 187 l 1,20,-1
447 307 m 1,24,-1
 447 381 l 1,25,-1
 742 381 l 1,26,-1
 742 307 l 1,27,-1
 447 307 l 1,24,-1
712 147 m 1,28,-1
 712 218 l 1,29,-1
 777 218 l 1,30,-1
 777 147 l 1,31,-1
 712 147 l 1,28,-1
147 587 m 1,32,-1
 147 661 l 1,33,-1
 442 661 l 1,34,-1
 442 587 l 1,35,-1
 147 587 l 1,32,-1
712 107 m 1,36,-1
 712 178 l 1,37,-1
 777 178 l 1,38,-1
 777 107 l 1,39,-1
 712 107 l 1,36,-1
712 67 m 1,40,-1
 712 138 l 1,41,-1
 777 138 l 1,42,-1
 777 67 l 1,43,-1
 712 67 l 1,40,-1
712 27 m 1,44,-1
 712 98 l 1,45,-1
 777 98 l 1,46,-1
 777 27 l 1,47,-1
 712 27 l 1,44,-1
412 307 m 1,48,-1
 412 378 l 1,49,-1
 477 378 l 1,50,-1
 477 307 l 1,51,-1
 412 307 l 1,48,-1
112 547 m 1,52,-1
 112 618 l 1,53,-1
 177 618 l 1,54,-1
 177 547 l 1,55,-1
 112 547 l 1,52,-1
112 507 m 1,56,-1
 112 578 l 1,57,-1
 177 578 l 1,58,-1
 177 507 l 1,59,-1
 112 507 l 1,56,-1
112 467 m 1,60,-1
 112 538 l 1,61,-1
 177 538 l 1,62,-1
 177 467 l 1,63,-1
 112 467 l 1,60,-1
147 307 m 1,64,-1
 147 381 l 1,65,-1
 442 381 l 1,66,-1
 442 307 l 1,67,-1
 147 307 l 1,64,-1
447 -13 m 1,68,-1
 447 61 l 1,69,-1
 742 61 l 1,70,-1
 742 -13 l 1,71,-1
 447 -13 l 1,68,-1
112 427 m 1,72,-1
 112 498 l 1,73,-1
 177 498 l 1,74,-1
 177 427 l 1,75,-1
 112 427 l 1,72,-1
112 387 m 1,76,-1
 112 458 l 1,77,-1
 177 458 l 1,78,-1
 177 387 l 1,79,-1
 112 387 l 1,76,-1
112 347 m 1,80,-1
 112 418 l 1,81,-1
 177 418 l 1,82,-1
 177 347 l 1,83,-1
 112 347 l 1,80,-1
112 307 m 1,84,-1
 112 378 l 1,85,-1
 177 378 l 1,86,-1
 177 307 l 1,87,-1
 112 307 l 1,84,-1
412 -13 m 1,88,-1
 412 58 l 1,89,-1
 477 58 l 1,90,-1
 477 -13 l 1,91,-1
 412 -13 l 1,88,-1
112 267 m 1,92,-1
 112 338 l 1,93,-1
 177 338 l 1,94,-1
 177 267 l 1,95,-1
 112 267 l 1,92,-1
112 227 m 1,96,-1
 112 298 l 1,97,-1
 177 298 l 1,98,-1
 177 227 l 1,99,-1
 112 227 l 1,96,-1
112 187 m 1,100,-1
 112 258 l 1,101,-1
 177 258 l 1,102,-1
 177 187 l 1,103,-1
 112 187 l 1,100,-1
112 147 m 1,104,-1
 112 218 l 1,105,-1
 177 218 l 1,106,-1
 177 147 l 1,107,-1
 112 147 l 1,104,-1
147 -13 m 1,108,-1
 147 61 l 1,109,-1
 442 61 l 1,110,-1
 442 -13 l 1,111,-1
 147 -13 l 1,108,-1
112 107 m 1,112,-1
 112 178 l 1,113,-1
 177 178 l 1,114,-1
 177 107 l 1,115,-1
 112 107 l 1,112,-1
112 67 m 1,116,-1
 112 138 l 1,117,-1
 177 138 l 1,118,-1
 177 67 l 1,119,-1
 112 67 l 1,116,-1
112 27 m 1,120,-1
 112 98 l 1,121,-1
 177 98 l 1,122,-1
 177 27 l 1,123,-1
 112 27 l 1,120,-1
112 -13 m 1,124,-1
 112 58 l 1,125,-1
 177 58 l 1,126,-1
 177 -13 l 1,127,-1
 112 -13 l 1,124,-1
EndSplineSet
Validated: 5
EndChar

StartChar: seven
Encoding: 55 55 11
Width: 768
Flags: W
LayerCount: 2
Fore
SplineSet
712 587 m 1,0,-1
 712 658 l 1,1,-1
 777 658 l 1,2,-1
 777 587 l 1,3,-1
 712 587 l 1,0,-1
712 547 m 1,4,-1
 712 618 l 1,5,-1
 777 618 l 1,6,-1
 777 547 l 1,7,-1
 712 547 l 1,4,-1
712 507 m 1,8,-1
 712 578 l 1,9,-1
 777 578 l 1,10,-1
 777 507 l 1,11,-1
 712 507 l 1,8,-1
712 467 m 1,12,-1
 712 538 l 1,13,-1
 777 538 l 1,14,-1
 777 467 l 1,15,-1
 712 467 l 1,12,-1
447 587 m 1,16,-1
 447 661 l 1,17,-1
 742 661 l 1,18,-1
 742 587 l 1,19,-1
 447 587 l 1,16,-1
712 427 m 1,20,-1
 712 498 l 1,21,-1
 777 498 l 1,22,-1
 777 427 l 1,23,-1
 712 427 l 1,20,-1
712 387 m 1,24,-1
 712 458 l 1,25,-1
 777 458 l 1,26,-1
 777 387 l 1,27,-1
 712 387 l 1,24,-1
712 347 m 1,28,-1
 712 418 l 1,29,-1
 777 418 l 1,30,-1
 777 347 l 1,31,-1
 712 347 l 1,28,-1
712 307 m 1,32,-1
 712 378 l 1,33,-1
 777 378 l 1,34,-1
 777 307 l 1,35,-1
 712 307 l 1,32,-1
412 587 m 1,36,-1
 412 658 l 1,37,-1
 477 658 l 1,38,-1
 477 587 l 1,39,-1
 412 587 l 1,36,-1
712 267 m 1,40,-1
 712 338 l 1,41,-1
 777 338 l 1,42,-1
 777 267 l 1,43,-1
 712 267 l 1,40,-1
712 227 m 1,44,-1
 712 298 l 1,45,-1
 777 298 l 1,46,-1
 777 227 l 1,47,-1
 712 227 l 1,44,-1
712 187 m 1,48,-1
 712 258 l 1,49,-1
 777 258 l 1,50,-1
 777 187 l 1,51,-1
 712 187 l 1,48,-1
712 147 m 1,52,-1
 712 218 l 1,53,-1
 777 218 l 1,54,-1
 777 147 l 1,55,-1
 712 147 l 1,52,-1
147 587 m 1,56,-1
 147 661 l 1,57,-1
 442 661 l 1,58,-1
 442 587 l 1,59,-1
 147 587 l 1,56,-1
712 107 m 1,60,-1
 712 178 l 1,61,-1
 777 178 l 1,62,-1
 777 107 l 1,63,-1
 712 107 l 1,60,-1
712 67 m 1,64,-1
 712 138 l 1,65,-1
 777 138 l 1,66,-1
 777 67 l 1,67,-1
 712 67 l 1,64,-1
712 27 m 1,68,-1
 712 98 l 1,69,-1
 777 98 l 1,70,-1
 777 27 l 1,71,-1
 712 27 l 1,68,-1
112 587 m 1,72,-1
 112 658 l 1,73,-1
 177 658 l 1,74,-1
 177 587 l 1,75,-1
 112 587 l 1,72,-1
712 -13 m 1,76,-1
 712 58 l 1,77,-1
 777 58 l 1,78,-1
 777 -13 l 1,79,-1
 712 -13 l 1,76,-1
EndSplineSet
Validated: 5
EndChar

StartChar: eight
Encoding: 56 56 12
Width: 767
Flags: W
LayerCount: 2
Fore
SplineSet
712 547 m 1,0,-1
 712 618 l 1,1,-1
 777 618 l 1,2,-1
 777 547 l 1,3,-1
 712 547 l 1,0,-1
712 507 m 1,4,-1
 712 578 l 1,5,-1
 777 578 l 1,6,-1
 777 507 l 1,7,-1
 712 507 l 1,4,-1
712 467 m 1,8,-1
 712 538 l 1,9,-1
 777 538 l 1,10,-1
 777 467 l 1,11,-1
 712 467 l 1,8,-1
447 587 m 1,12,-1
 447 661 l 1,13,-1
 742 661 l 1,14,-1
 742 587 l 1,15,-1
 447 587 l 1,12,-1
712 427 m 1,16,-1
 712 498 l 1,17,-1
 777 498 l 1,18,-1
 777 427 l 1,19,-1
 712 427 l 1,16,-1
712 387 m 1,20,-1
 712 458 l 1,21,-1
 777 458 l 1,22,-1
 777 387 l 1,23,-1
 712 387 l 1,20,-1
712 347 m 1,24,-1
 712 418 l 1,25,-1
 777 418 l 1,26,-1
 777 347 l 1,27,-1
 712 347 l 1,24,-1
712 307 m 1,28,-1
 712 378 l 1,29,-1
 777 378 l 1,30,-1
 777 307 l 1,31,-1
 712 307 l 1,28,-1
412 587 m 1,32,-1
 412 658 l 1,33,-1
 477 658 l 1,34,-1
 477 587 l 1,35,-1
 412 587 l 1,32,-1
712 267 m 1,36,-1
 712 338 l 1,37,-1
 777 338 l 1,38,-1
 777 267 l 1,39,-1
 712 267 l 1,36,-1
712 227 m 1,40,-1
 712 298 l 1,41,-1
 777 298 l 1,42,-1
 777 227 l 1,43,-1
 712 227 l 1,40,-1
712 187 m 1,44,-1
 712 258 l 1,45,-1
 777 258 l 1,46,-1
 777 187 l 1,47,-1
 712 187 l 1,44,-1
447 307 m 1,48,-1
 447 381 l 1,49,-1
 742 381 l 1,50,-1
 742 307 l 1,51,-1
 447 307 l 1,48,-1
712 147 m 1,52,-1
 712 218 l 1,53,-1
 777 218 l 1,54,-1
 777 147 l 1,55,-1
 712 147 l 1,52,-1
147 587 m 1,56,-1
 147 661 l 1,57,-1
 442 661 l 1,58,-1
 442 587 l 1,59,-1
 147 587 l 1,56,-1
712 107 m 1,60,-1
 712 178 l 1,61,-1
 777 178 l 1,62,-1
 777 107 l 1,63,-1
 712 107 l 1,60,-1
712 67 m 1,64,-1
 712 138 l 1,65,-1
 777 138 l 1,66,-1
 777 67 l 1,67,-1
 712 67 l 1,64,-1
712 27 m 1,68,-1
 712 98 l 1,69,-1
 777 98 l 1,70,-1
 777 27 l 1,71,-1
 712 27 l 1,68,-1
412 307 m 1,72,-1
 412 378 l 1,73,-1
 477 378 l 1,74,-1
 477 307 l 1,75,-1
 412 307 l 1,72,-1
112 547 m 1,76,-1
 112 618 l 1,77,-1
 177 618 l 1,78,-1
 177 547 l 1,79,-1
 112 547 l 1,76,-1
112 507 m 1,80,-1
 112 578 l 1,81,-1
 177 578 l 1,82,-1
 177 507 l 1,83,-1
 112 507 l 1,80,-1
112 467 m 1,84,-1
 112 538 l 1,85,-1
 177 538 l 1,86,-1
 177 467 l 1,87,-1
 112 467 l 1,84,-1
147 307 m 1,88,-1
 147 381 l 1,89,-1
 442 381 l 1,90,-1
 442 307 l 1,91,-1
 147 307 l 1,88,-1
447 -13 m 1,92,-1
 447 61 l 1,93,-1
 742 61 l 1,94,-1
 742 -13 l 1,95,-1
 447 -13 l 1,92,-1
112 427 m 1,96,-1
 112 498 l 1,97,-1
 177 498 l 1,98,-1
 177 427 l 1,99,-1
 112 427 l 1,96,-1
112 387 m 1,100,-1
 112 458 l 1,101,-1
 177 458 l 1,102,-1
 177 387 l 1,103,-1
 112 387 l 1,100,-1
112 347 m 1,104,-1
 112 418 l 1,105,-1
 177 418 l 1,106,-1
 177 347 l 1,107,-1
 112 347 l 1,104,-1
112 307 m 1,108,-1
 112 378 l 1,109,-1
 177 378 l 1,110,-1
 177 307 l 1,111,-1
 112 307 l 1,108,-1
412 -13 m 1,112,-1
 412 58 l 1,113,-1
 477 58 l 1,114,-1
 477 -13 l 1,115,-1
 412 -13 l 1,112,-1
112 267 m 1,116,-1
 112 338 l 1,117,-1
 177 338 l 1,118,-1
 177 267 l 1,119,-1
 112 267 l 1,116,-1
112 227 m 1,120,-1
 112 298 l 1,121,-1
 177 298 l 1,122,-1
 177 227 l 1,123,-1
 112 227 l 1,120,-1
112 187 m 1,124,-1
 112 258 l 1,125,-1
 177 258 l 1,126,-1
 177 187 l 1,127,-1
 112 187 l 1,124,-1
112 147 m 1,128,-1
 112 218 l 1,129,-1
 177 218 l 1,130,-1
 177 147 l 1,131,-1
 112 147 l 1,128,-1
147 -13 m 1,132,-1
 147 61 l 1,133,-1
 442 61 l 1,134,-1
 442 -13 l 1,135,-1
 147 -13 l 1,132,-1
112 107 m 1,136,-1
 112 178 l 1,137,-1
 177 178 l 1,138,-1
 177 107 l 1,139,-1
 112 107 l 1,136,-1
112 67 m 1,140,-1
 112 138 l 1,141,-1
 177 138 l 1,142,-1
 177 67 l 1,143,-1
 112 67 l 1,140,-1
112 27 m 1,144,-1
 112 98 l 1,145,-1
 177 98 l 1,146,-1
 177 27 l 1,147,-1
 112 27 l 1,144,-1
EndSplineSet
Validated: 5
EndChar

StartChar: nine
Encoding: 57 57 13
Width: 768
Flags: W
LayerCount: 2
Fore
SplineSet
712 547 m 1,0,-1
 712 618 l 1,1,-1
 777 618 l 1,2,-1
 777 547 l 1,3,-1
 712 547 l 1,0,-1
712 507 m 1,4,-1
 712 578 l 1,5,-1
 777 578 l 1,6,-1
 777 507 l 1,7,-1
 712 507 l 1,4,-1
712 467 m 1,8,-1
 712 538 l 1,9,-1
 777 538 l 1,10,-1
 777 467 l 1,11,-1
 712 467 l 1,8,-1
447 587 m 1,12,-1
 447 661 l 1,13,-1
 742 661 l 1,14,-1
 742 587 l 1,15,-1
 447 587 l 1,12,-1
712 427 m 1,16,-1
 712 498 l 1,17,-1
 777 498 l 1,18,-1
 777 427 l 1,19,-1
 712 427 l 1,16,-1
712 387 m 1,20,-1
 712 458 l 1,21,-1
 777 458 l 1,22,-1
 777 387 l 1,23,-1
 712 387 l 1,20,-1
712 347 m 1,24,-1
 712 418 l 1,25,-1
 777 418 l 1,26,-1
 777 347 l 1,27,-1
 712 347 l 1,24,-1
712 307 m 1,28,-1
 712 378 l 1,29,-1
 777 378 l 1,30,-1
 777 307 l 1,31,-1
 712 307 l 1,28,-1
412 587 m 1,32,-1
 412 658 l 1,33,-1
 477 658 l 1,34,-1
 477 587 l 1,35,-1
 412 587 l 1,32,-1
712 267 m 1,36,-1
 712 338 l 1,37,-1
 777 338 l 1,38,-1
 777 267 l 1,39,-1
 712 267 l 1,36,-1
712 227 m 1,40,-1
 712 298 l 1,41,-1
 777 298 l 1,42,-1
 777 227 l 1,43,-1
 712 227 l 1,40,-1
712 187 m 1,44,-1
 712 258 l 1,45,-1
 777 258 l 1,46,-1
 777 187 l 1,47,-1
 712 187 l 1,44,-1
447 307 m 1,48,-1
 447 381 l 1,49,-1
 742 381 l 1,50,-1
 742 307 l 1,51,-1
 447 307 l 1,48,-1
712 147 m 1,52,-1
 712 218 l 1,53,-1
 777 218 l 1,54,-1
 777 147 l 1,55,-1
 712 147 l 1,52,-1
147 587 m 1,56,-1
 147 661 l 1,57,-1
 442 661 l 1,58,-1
 442 587 l 1,59,-1
 147 587 l 1,56,-1
712 107 m 1,60,-1
 712 178 l 1,61,-1
 777 178 l 1,62,-1
 777 107 l 1,63,-1
 712 107 l 1,60,-1
712 67 m 1,64,-1
 712 138 l 1,65,-1
 777 138 l 1,66,-1
 777 67 l 1,67,-1
 712 67 l 1,64,-1
712 27 m 1,68,-1
 712 98 l 1,69,-1
 777 98 l 1,70,-1
 777 27 l 1,71,-1
 712 27 l 1,68,-1
412 307 m 1,72,-1
 412 378 l 1,73,-1
 477 378 l 1,74,-1
 477 307 l 1,75,-1
 412 307 l 1,72,-1
712 -13 m 1,76,-1
 712 58 l 1,77,-1
 777 58 l 1,78,-1
 777 -13 l 1,79,-1
 712 -13 l 1,76,-1
112 547 m 1,80,-1
 112 618 l 1,81,-1
 177 618 l 1,82,-1
 177 547 l 1,83,-1
 112 547 l 1,80,-1
112 507 m 1,84,-1
 112 578 l 1,85,-1
 177 578 l 1,86,-1
 177 507 l 1,87,-1
 112 507 l 1,84,-1
112 467 m 1,88,-1
 112 538 l 1,89,-1
 177 538 l 1,90,-1
 177 467 l 1,91,-1
 112 467 l 1,88,-1
147 307 m 1,92,-1
 147 381 l 1,93,-1
 442 381 l 1,94,-1
 442 307 l 1,95,-1
 147 307 l 1,92,-1
447 -13 m 1,96,-1
 447 61 l 1,97,-1
 742 61 l 1,98,-1
 742 -13 l 1,99,-1
 447 -13 l 1,96,-1
112 427 m 1,100,-1
 112 498 l 1,101,-1
 177 498 l 1,102,-1
 177 427 l 1,103,-1
 112 427 l 1,100,-1
112 387 m 1,104,-1
 112 458 l 1,105,-1
 177 458 l 1,106,-1
 177 387 l 1,107,-1
 112 387 l 1,104,-1
112 347 m 1,108,-1
 112 418 l 1,109,-1
 177 418 l 1,110,-1
 177 347 l 1,111,-1
 112 347 l 1,108,-1
112 307 m 1,112,-1
 112 378 l 1,113,-1
 177 378 l 1,114,-1
 177 307 l 1,115,-1
 112 307 l 1,112,-1
412 -13 m 1,116,-1
 412 58 l 1,117,-1
 477 58 l 1,118,-1
 477 -13 l 1,119,-1
 412 -13 l 1,116,-1
147 -13 m 1,120,-1
 147 61 l 1,121,-1
 442 61 l 1,122,-1
 442 -13 l 1,123,-1
 147 -13 l 1,120,-1
112 27 m 1,124,-1
 112 98 l 1,125,-1
 177 98 l 1,126,-1
 177 27 l 1,127,-1
 112 27 l 1,124,-1
112 -13 m 1,128,-1
 112 58 l 1,129,-1
 177 58 l 1,130,-1
 177 -13 l 1,131,-1
 112 -13 l 1,128,-1
EndSplineSet
Validated: 5
EndChar

StartChar: A
Encoding: 65 65 21
Width: 768
Flags: W
LayerCount: 2
Fore
SplineSet
712 587 m 1,0,-1
 712 658 l 1,1,-1
 777 658 l 1,2,-1
 777 587 l 1,3,-1
 712 587 l 1,0,-1
712 547 m 1,4,-1
 712 618 l 1,5,-1
 777 618 l 1,6,-1
 777 547 l 1,7,-1
 712 547 l 1,4,-1
712 507 m 1,8,-1
 712 578 l 1,9,-1
 777 578 l 1,10,-1
 777 507 l 1,11,-1
 712 507 l 1,8,-1
712 467 m 1,12,-1
 712 538 l 1,13,-1
 777 538 l 1,14,-1
 777 467 l 1,15,-1
 712 467 l 1,12,-1
447 587 m 1,16,-1
 447 661 l 1,17,-1
 742 661 l 1,18,-1
 742 587 l 1,19,-1
 447 587 l 1,16,-1
712 427 m 1,20,-1
 712 498 l 1,21,-1
 777 498 l 1,22,-1
 777 427 l 1,23,-1
 712 427 l 1,20,-1
712 387 m 1,24,-1
 712 458 l 1,25,-1
 777 458 l 1,26,-1
 777 387 l 1,27,-1
 712 387 l 1,24,-1
712 347 m 1,28,-1
 712 418 l 1,29,-1
 777 418 l 1,30,-1
 777 347 l 1,31,-1
 712 347 l 1,28,-1
712 307 m 1,32,-1
 712 378 l 1,33,-1
 777 378 l 1,34,-1
 777 307 l 1,35,-1
 712 307 l 1,32,-1
412 587 m 1,36,-1
 412 658 l 1,37,-1
 477 658 l 1,38,-1
 477 587 l 1,39,-1
 412 587 l 1,36,-1
712 267 m 1,40,-1
 712 338 l 1,41,-1
 777 338 l 1,42,-1
 777 267 l 1,43,-1
 712 267 l 1,40,-1
712 227 m 1,44,-1
 712 298 l 1,45,-1
 777 298 l 1,46,-1
 777 227 l 1,47,-1
 712 227 l 1,44,-1
712 187 m 1,48,-1
 712 258 l 1,49,-1
 777 258 l 1,50,-1
 777 187 l 1,51,-1
 712 187 l 1,48,-1
447 307 m 1,52,-1
 447 381 l 1,53,-1
 742 381 l 1,54,-1
 742 307 l 1,55,-1
 447 307 l 1,52,-1
712 147 m 1,56,-1
 712 218 l 1,57,-1
 777 218 l 1,58,-1
 777 147 l 1,59,-1
 712 147 l 1,56,-1
147 587 m 1,60,-1
 147 661 l 1,61,-1
 442 661 l 1,62,-1
 442 587 l 1,63,-1
 147 587 l 1,60,-1
712 107 m 1,64,-1
 712 178 l 1,65,-1
 777 178 l 1,66,-1
 777 107 l 1,67,-1
 712 107 l 1,64,-1
712 67 m 1,68,-1
 712 138 l 1,69,-1
 777 138 l 1,70,-1
 777 67 l 1,71,-1
 712 67 l 1,68,-1
712 27 m 1,72,-1
 712 98 l 1,73,-1
 777 98 l 1,74,-1
 777 27 l 1,75,-1
 712 27 l 1,72,-1
412 307 m 1,76,-1
 412 378 l 1,77,-1
 477 378 l 1,78,-1
 477 307 l 1,79,-1
 412 307 l 1,76,-1
112 587 m 1,80,-1
 112 658 l 1,81,-1
 177 658 l 1,82,-1
 177 587 l 1,83,-1
 112 587 l 1,80,-1
712 -13 m 1,84,-1
 712 58 l 1,85,-1
 777 58 l 1,86,-1
 777 -13 l 1,87,-1
 712 -13 l 1,84,-1
112 547 m 1,88,-1
 112 618 l 1,89,-1
 177 618 l 1,90,-1
 177 547 l 1,91,-1
 112 547 l 1,88,-1
112 507 m 1,92,-1
 112 578 l 1,93,-1
 177 578 l 1,94,-1
 177 507 l 1,95,-1
 112 507 l 1,92,-1
112 467 m 1,96,-1
 112 538 l 1,97,-1
 177 538 l 1,98,-1
 177 467 l 1,99,-1
 112 467 l 1,96,-1
147 307 m 1,100,-1
 147 381 l 1,101,-1
 442 381 l 1,102,-1
 442 307 l 1,103,-1
 147 307 l 1,100,-1
112 427 m 1,104,-1
 112 498 l 1,105,-1
 177 498 l 1,106,-1
 177 427 l 1,107,-1
 112 427 l 1,104,-1
112 387 m 1,108,-1
 112 458 l 1,109,-1
 177 458 l 1,110,-1
 177 387 l 1,111,-1
 112 387 l 1,108,-1
112 347 m 1,112,-1
 112 418 l 1,113,-1
 177 418 l 1,114,-1
 177 347 l 1,115,-1
 112 347 l 1,112,-1
112 307 m 1,116,-1
 112 378 l 1,117,-1
 177 378 l 1,118,-1
 177 307 l 1,119,-1
 112 307 l 1,116,-1
112 267 m 1,120,-1
 112 338 l 1,121,-1
 177 338 l 1,122,-1
 177 267 l 1,123,-1
 112 267 l 1,120,-1
112 227 m 1,124,-1
 112 298 l 1,125,-1
 177 298 l 1,126,-1
 177 227 l 1,127,-1
 112 227 l 1,124,-1
112 187 m 1,128,-1
 112 258 l 1,129,-1
 177 258 l 1,130,-1
 177 187 l 1,131,-1
 112 187 l 1,128,-1
112 147 m 1,132,-1
 112 218 l 1,133,-1
 177 218 l 1,134,-1
 177 147 l 1,135,-1
 112 147 l 1,132,-1
112 107 m 1,136,-1
 112 178 l 1,137,-1
 177 178 l 1,138,-1
 177 107 l 1,139,-1
 112 107 l 1,136,-1
112 67 m 1,140,-1
 112 138 l 1,141,-1
 177 138 l 1,142,-1
 177 67 l 1,143,-1
 112 67 l 1,140,-1
112 27 m 1,144,-1
 112 98 l 1,145,-1
 177 98 l 1,146,-1
 177 27 l 1,147,-1
 112 27 l 1,144,-1
112 -13 m 1,148,-1
 112 58 l 1,149,-1
 177 58 l 1,150,-1
 177 -13 l 1,151,-1
 112 -13 l 1,148,-1
EndSplineSet
Validated: 5
EndChar

StartChar: B
Encoding: 66 66 22
Width: 767
Flags: W
LayerCount: 2
Fore
SplineSet
712 547 m 1,0,-1
 712 618 l 1,1,-1
 777 618 l 1,2,-1
 777 547 l 1,3,-1
 712 547 l 1,0,-1
712 507 m 1,4,-1
 712 578 l 1,5,-1
 777 578 l 1,6,-1
 777 507 l 1,7,-1
 712 507 l 1,4,-1
712 467 m 1,8,-1
 712 538 l 1,9,-1
 777 538 l 1,10,-1
 777 467 l 1,11,-1
 712 467 l 1,8,-1
447 587 m 1,12,-1
 447 661 l 1,13,-1
 742 661 l 1,14,-1
 742 587 l 1,15,-1
 447 587 l 1,12,-1
712 427 m 1,16,-1
 712 498 l 1,17,-1
 777 498 l 1,18,-1
 777 427 l 1,19,-1
 712 427 l 1,16,-1
712 387 m 1,20,-1
 712 458 l 1,21,-1
 777 458 l 1,22,-1
 777 387 l 1,23,-1
 712 387 l 1,20,-1
712 347 m 1,24,-1
 712 418 l 1,25,-1
 777 418 l 1,26,-1
 777 347 l 1,27,-1
 712 347 l 1,24,-1
712 307 m 1,28,-1
 712 378 l 1,29,-1
 777 378 l 1,30,-1
 777 307 l 1,31,-1
 712 307 l 1,28,-1
412 587 m 1,32,-1
 412 658 l 1,33,-1
 477 658 l 1,34,-1
 477 587 l 1,35,-1
 412 587 l 1,32,-1
712 267 m 1,36,-1
 712 338 l 1,37,-1
 777 338 l 1,38,-1
 777 267 l 1,39,-1
 712 267 l 1,36,-1
712 227 m 1,40,-1
 712 298 l 1,41,-1
 777 298 l 1,42,-1
 777 227 l 1,43,-1
 712 227 l 1,40,-1
712 187 m 1,44,-1
 712 258 l 1,45,-1
 777 258 l 1,46,-1
 777 187 l 1,47,-1
 712 187 l 1,44,-1
447 307 m 1,48,-1
 447 381 l 1,49,-1
 742 381 l 1,50,-1
 742 307 l 1,51,-1
 447 307 l 1,48,-1
712 147 m 1,52,-1
 712 218 l 1,53,-1
 777 218 l 1,54,-1
 777 147 l 1,55,-1
 712 147 l 1,52,-1
147 587 m 1,56,-1
 147 661 l 1,57,-1
 442 661 l 1,58,-1
 442 587 l 1,59,-1
 147 587 l 1,56,-1
712 107 m 1,60,-1
 712 178 l 1,61,-1
 777 178 l 1,62,-1
 777 107 l 1,63,-1
 712 107 l 1,60,-1
712 67 m 1,64,-1
 712 138 l 1,65,-1
 777 138 l 1,66,-1
 777 67 l 1,67,-1
 712 67 l 1,64,-1
712 27 m 1,68,-1
 712 98 l 1,69,-1
 777 98 l 1,70,-1
 777 27 l 1,71,-1
 712 27 l 1,68,-1
412 307 m 1,72,-1
 412 378 l 1,73,-1
 477 378 l 1,74,-1
 477 307 l 1,75,-1
 412 307 l 1,72,-1
112 587 m 1,76,-1
 112 658 l 1,77,-1
 177 658 l 1,78,-1
 177 587 l 1,79,-1
 112 587 l 1,76,-1
112 547 m 1,80,-1
 112 618 l 1,81,-1
 177 618 l 1,82,-1
 177 547 l 1,83,-1
 112 547 l 1,80,-1
112 507 m 1,84,-1
 112 578 l 1,85,-1
 177 578 l 1,86,-1
 177 507 l 1,87,-1
 112 507 l 1,84,-1
112 467 m 1,88,-1
 112 538 l 1,89,-1
 177 538 l 1,90,-1
 177 467 l 1,91,-1
 112 467 l 1,88,-1
147 307 m 1,92,-1
 147 381 l 1,93,-1
 442 381 l 1,94,-1
 442 307 l 1,95,-1
 147 307 l 1,92,-1
447 -13 m 1,96,-1
 447 61 l 1,97,-1
 742 61 l 1,98,-1
 742 -13 l 1,99,-1
 447 -13 l 1,96,-1
112 427 m 1,100,-1
 112 498 l 1,101,-1
 177 498 l 1,102,-1
 177 427 l 1,103,-1
 112 427 l 1,100,-1
112 387 m 1,104,-1
 112 458 l 1,105,-1
 177 458 l 1,106,-1
 177 387 l 1,107,-1
 112 387 l 1,104,-1
112 347 m 1,108,-1
 112 418 l 1,109,-1
 177 418 l 1,110,-1
 177 347 l 1,111,-1
 112 347 l 1,108,-1
112 307 m 1,112,-1
 112 378 l 1,113,-1
 177 378 l 1,114,-1
 177 307 l 1,115,-1
 112 307 l 1,112,-1
412 -13 m 1,116,-1
 412 58 l 1,117,-1
 477 58 l 1,118,-1
 477 -13 l 1,119,-1
 412 -13 l 1,116,-1
112 267 m 1,120,-1
 112 338 l 1,121,-1
 177 338 l 1,122,-1
 177 267 l 1,123,-1
 112 267 l 1,120,-1
112 227 m 1,124,-1
 112 298 l 1,125,-1
 177 298 l 1,126,-1
 177 227 l 1,127,-1
 112 227 l 1,124,-1
112 187 m 1,128,-1
 112 258 l 1,129,-1
 177 258 l 1,130,-1
 177 187 l 1,131,-1
 112 187 l 1,128,-1
112 147 m 1,132,-1
 112 218 l 1,133,-1
 177 218 l 1,134,-1
 177 147 l 1,135,-1
 112 147 l 1,132,-1
147 -13 m 1,136,-1
 147 61 l 1,137,-1
 442 61 l 1,138,-1
 442 -13 l 1,139,-1
 147 -13 l 1,136,-1
112 107 m 1,140,-1
 112 178 l 1,141,-1
 177 178 l 1,142,-1
 177 107 l 1,143,-1
 112 107 l 1,140,-1
112 67 m 1,144,-1
 112 138 l 1,145,-1
 177 138 l 1,146,-1
 177 67 l 1,147,-1
 112 67 l 1,144,-1
112 27 m 1,148,-1
 112 98 l 1,149,-1
 177 98 l 1,150,-1
 177 27 l 1,151,-1
 112 27 l 1,148,-1
112 -13 m 1,152,-1
 112 58 l 1,153,-1
 177 58 l 1,154,-1
 177 -13 l 1,155,-1
 112 -13 l 1,152,-1
EndSplineSet
Validated: 5
EndChar

StartChar: C
Encoding: 67 67 23
Width: 725
Flags: W
LayerCount: 2
Fore
SplineSet
712 587 m 1,0,-1
 712 658 l 1,1,-1
 777 658 l 1,2,-1
 777 587 l 1,3,-1
 712 587 l 1,0,-1
447 587 m 1,4,-1
 447 661 l 1,5,-1
 742 661 l 1,6,-1
 742 587 l 1,7,-1
 447 587 l 1,4,-1
412 587 m 1,8,-1
 412 658 l 1,9,-1
 477 658 l 1,10,-1
 477 587 l 1,11,-1
 412 587 l 1,8,-1
147 587 m 1,12,-1
 147 661 l 1,13,-1
 442 661 l 1,14,-1
 442 587 l 1,15,-1
 147 587 l 1,12,-1
712 -13 m 1,16,-1
 712 58 l 1,17,-1
 777 58 l 1,18,-1
 777 -13 l 1,19,-1
 712 -13 l 1,16,-1
112 547 m 1,20,-1
 112 618 l 1,21,-1
 177 618 l 1,22,-1
 177 547 l 1,23,-1
 112 547 l 1,20,-1
112 507 m 1,24,-1
 112 578 l 1,25,-1
 177 578 l 1,26,-1
 177 507 l 1,27,-1
 112 507 l 1,24,-1
112 467 m 1,28,-1
 112 538 l 1,29,-1
 177 538 l 1,30,-1
 177 467 l 1,31,-1
 112 467 l 1,28,-1
447 -13 m 1,32,-1
 447 61 l 1,33,-1
 742 61 l 1,34,-1
 742 -13 l 1,35,-1
 447 -13 l 1,32,-1
112 427 m 1,36,-1
 112 498 l 1,37,-1
 177 498 l 1,38,-1
 177 427 l 1,39,-1
 112 427 l 1,36,-1
112 387 m 1,40,-1
 112 458 l 1,41,-1
 177 458 l 1,42,-1
 177 387 l 1,43,-1
 112 387 l 1,40,-1
112 347 m 1,44,-1
 112 418 l 1,45,-1
 177 418 l 1,46,-1
 177 347 l 1,47,-1
 112 347 l 1,44,-1
112 307 m 1,48,-1
 112 378 l 1,49,-1
 177 378 l 1,50,-1
 177 307 l 1,51,-1
 112 307 l 1,48,-1
412 -13 m 1,52,-1
 412 58 l 1,53,-1
 477 58 l 1,54,-1
 477 -13 l 1,55,-1
 412 -13 l 1,52,-1
112 267 m 1,56,-1
 112 338 l 1,57,-1
 177 338 l 1,58,-1
 177 267 l 1,59,-1
 112 267 l 1,56,-1
112 227 m 1,60,-1
 112 298 l 1,61,-1
 177 298 l 1,62,-1
 177 227 l 1,63,-1
 112 227 l 1,60,-1
112 187 m 1,64,-1
 112 258 l 1,65,-1
 177 258 l 1,66,-1
 177 187 l 1,67,-1
 112 187 l 1,64,-1
112 147 m 1,68,-1
 112 218 l 1,69,-1
 177 218 l 1,70,-1
 177 147 l 1,71,-1
 112 147 l 1,68,-1
147 -13 m 1,72,-1
 147 61 l 1,73,-1
 442 61 l 1,74,-1
 442 -13 l 1,75,-1
 147 -13 l 1,72,-1
112 107 m 1,76,-1
 112 178 l 1,77,-1
 177 178 l 1,78,-1
 177 107 l 1,79,-1
 112 107 l 1,76,-1
112 67 m 1,80,-1
 112 138 l 1,81,-1
 177 138 l 1,82,-1
 177 67 l 1,83,-1
 112 67 l 1,80,-1
112 27 m 1,84,-1
 112 98 l 1,85,-1
 177 98 l 1,86,-1
 177 27 l 1,87,-1
 112 27 l 1,84,-1
EndSplineSet
Validated: 5
EndChar

StartChar: D
Encoding: 68 68 24
Width: 767
Flags: W
LayerCount: 2
Fore
SplineSet
712 547 m 1,0,-1
 712 618 l 1,1,-1
 777 618 l 1,2,-1
 777 547 l 1,3,-1
 712 547 l 1,0,-1
712 507 m 1,4,-1
 712 578 l 1,5,-1
 777 578 l 1,6,-1
 777 507 l 1,7,-1
 712 507 l 1,4,-1
712 467 m 1,8,-1
 712 538 l 1,9,-1
 777 538 l 1,10,-1
 777 467 l 1,11,-1
 712 467 l 1,8,-1
447 587 m 1,12,-1
 447 661 l 1,13,-1
 742 661 l 1,14,-1
 742 587 l 1,15,-1
 447 587 l 1,12,-1
712 427 m 1,16,-1
 712 498 l 1,17,-1
 777 498 l 1,18,-1
 777 427 l 1,19,-1
 712 427 l 1,16,-1
712 387 m 1,20,-1
 712 458 l 1,21,-1
 777 458 l 1,22,-1
 777 387 l 1,23,-1
 712 387 l 1,20,-1
712 347 m 1,24,-1
 712 418 l 1,25,-1
 777 418 l 1,26,-1
 777 347 l 1,27,-1
 712 347 l 1,24,-1
712 307 m 1,28,-1
 712 378 l 1,29,-1
 777 378 l 1,30,-1
 777 307 l 1,31,-1
 712 307 l 1,28,-1
412 587 m 1,32,-1
 412 658 l 1,33,-1
 477 658 l 1,34,-1
 477 587 l 1,35,-1
 412 587 l 1,32,-1
712 267 m 1,36,-1
 712 338 l 1,37,-1
 777 338 l 1,38,-1
 777 267 l 1,39,-1
 712 267 l 1,36,-1
712 227 m 1,40,-1
 712 298 l 1,41,-1
 777 298 l 1,42,-1
 777 227 l 1,43,-1
 712 227 l 1,40,-1
712 187 m 1,44,-1
 712 258 l 1,45,-1
 777 258 l 1,46,-1
 777 187 l 1,47,-1
 712 187 l 1,44,-1
712 147 m 1,48,-1
 712 218 l 1,49,-1
 777 218 l 1,50,-1
 777 147 l 1,51,-1
 712 147 l 1,48,-1
147 587 m 1,52,-1
 147 661 l 1,53,-1
 442 661 l 1,54,-1
 442 587 l 1,55,-1
 147 587 l 1,52,-1
712 107 m 1,56,-1
 712 178 l 1,57,-1
 777 178 l 1,58,-1
 777 107 l 1,59,-1
 712 107 l 1,56,-1
712 67 m 1,60,-1
 712 138 l 1,61,-1
 777 138 l 1,62,-1
 777 67 l 1,63,-1
 712 67 l 1,60,-1
712 27 m 1,64,-1
 712 98 l 1,65,-1
 777 98 l 1,66,-1
 777 27 l 1,67,-1
 712 27 l 1,64,-1
112 587 m 1,68,-1
 112 658 l 1,69,-1
 177 658 l 1,70,-1
 177 587 l 1,71,-1
 112 587 l 1,68,-1
112 547 m 1,72,-1
 112 618 l 1,73,-1
 177 618 l 1,74,-1
 177 547 l 1,75,-1
 112 547 l 1,72,-1
112 507 m 1,76,-1
 112 578 l 1,77,-1
 177 578 l 1,78,-1
 177 507 l 1,79,-1
 112 507 l 1,76,-1
112 467 m 1,80,-1
 112 538 l 1,81,-1
 177 538 l 1,82,-1
 177 467 l 1,83,-1
 112 467 l 1,80,-1
447 -13 m 1,84,-1
 447 61 l 1,85,-1
 742 61 l 1,86,-1
 742 -13 l 1,87,-1
 447 -13 l 1,84,-1
112 427 m 1,88,-1
 112 498 l 1,89,-1
 177 498 l 1,90,-1
 177 427 l 1,91,-1
 112 427 l 1,88,-1
112 387 m 1,92,-1
 112 458 l 1,93,-1
 177 458 l 1,94,-1
 177 387 l 1,95,-1
 112 387 l 1,92,-1
112 347 m 1,96,-1
 112 418 l 1,97,-1
 177 418 l 1,98,-1
 177 347 l 1,99,-1
 112 347 l 1,96,-1
112 307 m 1,100,-1
 112 378 l 1,101,-1
 177 378 l 1,102,-1
 177 307 l 1,103,-1
 112 307 l 1,100,-1
412 -13 m 1,104,-1
 412 58 l 1,105,-1
 477 58 l 1,106,-1
 477 -13 l 1,107,-1
 412 -13 l 1,104,-1
112 267 m 1,108,-1
 112 338 l 1,109,-1
 177 338 l 1,110,-1
 177 267 l 1,111,-1
 112 267 l 1,108,-1
112 227 m 1,112,-1
 112 298 l 1,113,-1
 177 298 l 1,114,-1
 177 227 l 1,115,-1
 112 227 l 1,112,-1
112 187 m 1,116,-1
 112 258 l 1,117,-1
 177 258 l 1,118,-1
 177 187 l 1,119,-1
 112 187 l 1,116,-1
112 147 m 1,120,-1
 112 218 l 1,121,-1
 177 218 l 1,122,-1
 177 147 l 1,123,-1
 112 147 l 1,120,-1
147 -13 m 1,124,-1
 147 61 l 1,125,-1
 442 61 l 1,126,-1
 442 -13 l 1,127,-1
 147 -13 l 1,124,-1
112 107 m 1,128,-1
 112 178 l 1,129,-1
 177 178 l 1,130,-1
 177 107 l 1,131,-1
 112 107 l 1,128,-1
112 67 m 1,132,-1
 112 138 l 1,133,-1
 177 138 l 1,134,-1
 177 67 l 1,135,-1
 112 67 l 1,132,-1
112 27 m 1,136,-1
 112 98 l 1,137,-1
 177 98 l 1,138,-1
 177 27 l 1,139,-1
 112 27 l 1,136,-1
112 -13 m 1,140,-1
 112 58 l 1,141,-1
 177 58 l 1,142,-1
 177 -13 l 1,143,-1
 112 -13 l 1,140,-1
EndSplineSet
Validated: 5
EndChar

StartChar: E
Encoding: 69 69 25
Width: 725
Flags: W
LayerCount: 2
Fore
SplineSet
712 587 m 1,0,-1
 712 658 l 1,1,-1
 777 658 l 1,2,-1
 777 587 l 1,3,-1
 712 587 l 1,0,-1
447 587 m 1,4,-1
 447 661 l 1,5,-1
 742 661 l 1,6,-1
 742 587 l 1,7,-1
 447 587 l 1,4,-1
712 307 m 1,8,-1
 712 378 l 1,9,-1
 777 378 l 1,10,-1
 777 307 l 1,11,-1
 712 307 l 1,8,-1
412 587 m 1,12,-1
 412 658 l 1,13,-1
 477 658 l 1,14,-1
 477 587 l 1,15,-1
 412 587 l 1,12,-1
447 307 m 1,16,-1
 447 381 l 1,17,-1
 742 381 l 1,18,-1
 742 307 l 1,19,-1
 447 307 l 1,16,-1
147 587 m 1,20,-1
 147 661 l 1,21,-1
 442 661 l 1,22,-1
 442 587 l 1,23,-1
 147 587 l 1,20,-1
412 307 m 1,24,-1
 412 378 l 1,25,-1
 477 378 l 1,26,-1
 477 307 l 1,27,-1
 412 307 l 1,24,-1
112 587 m 1,28,-1
 112 658 l 1,29,-1
 177 658 l 1,30,-1
 177 587 l 1,31,-1
 112 587 l 1,28,-1
712 -13 m 1,32,-1
 712 58 l 1,33,-1
 777 58 l 1,34,-1
 777 -13 l 1,35,-1
 712 -13 l 1,32,-1
112 547 m 1,36,-1
 112 618 l 1,37,-1
 177 618 l 1,38,-1
 177 547 l 1,39,-1
 112 547 l 1,36,-1
112 507 m 1,40,-1
 112 578 l 1,41,-1
 177 578 l 1,42,-1
 177 507 l 1,43,-1
 112 507 l 1,40,-1
112 467 m 1,44,-1
 112 538 l 1,45,-1
 177 538 l 1,46,-1
 177 467 l 1,47,-1
 112 467 l 1,44,-1
147 307 m 1,48,-1
 147 381 l 1,49,-1
 442 381 l 1,50,-1
 442 307 l 1,51,-1
 147 307 l 1,48,-1
447 -13 m 1,52,-1
 447 61 l 1,53,-1
 742 61 l 1,54,-1
 742 -13 l 1,55,-1
 447 -13 l 1,52,-1
112 427 m 1,56,-1
 112 498 l 1,57,-1
 177 498 l 1,58,-1
 177 427 l 1,59,-1
 112 427 l 1,56,-1
112 387 m 1,60,-1
 112 458 l 1,61,-1
 177 458 l 1,62,-1
 177 387 l 1,63,-1
 112 387 l 1,60,-1
112 347 m 1,64,-1
 112 418 l 1,65,-1
 177 418 l 1,66,-1
 177 347 l 1,67,-1
 112 347 l 1,64,-1
112 307 m 1,68,-1
 112 378 l 1,69,-1
 177 378 l 1,70,-1
 177 307 l 1,71,-1
 112 307 l 1,68,-1
412 -13 m 1,72,-1
 412 58 l 1,73,-1
 477 58 l 1,74,-1
 477 -13 l 1,75,-1
 412 -13 l 1,72,-1
112 267 m 1,76,-1
 112 338 l 1,77,-1
 177 338 l 1,78,-1
 177 267 l 1,79,-1
 112 267 l 1,76,-1
112 227 m 1,80,-1
 112 298 l 1,81,-1
 177 298 l 1,82,-1
 177 227 l 1,83,-1
 112 227 l 1,80,-1
112 187 m 1,84,-1
 112 258 l 1,85,-1
 177 258 l 1,86,-1
 177 187 l 1,87,-1
 112 187 l 1,84,-1
112 147 m 1,88,-1
 112 218 l 1,89,-1
 177 218 l 1,90,-1
 177 147 l 1,91,-1
 112 147 l 1,88,-1
147 -13 m 1,92,-1
 147 61 l 1,93,-1
 442 61 l 1,94,-1
 442 -13 l 1,95,-1
 147 -13 l 1,92,-1
112 107 m 1,96,-1
 112 178 l 1,97,-1
 177 178 l 1,98,-1
 177 107 l 1,99,-1
 112 107 l 1,96,-1
112 67 m 1,100,-1
 112 138 l 1,101,-1
 177 138 l 1,102,-1
 177 67 l 1,103,-1
 112 67 l 1,100,-1
112 27 m 1,104,-1
 112 98 l 1,105,-1
 177 98 l 1,106,-1
 177 27 l 1,107,-1
 112 27 l 1,104,-1
112 -13 m 1,108,-1
 112 58 l 1,109,-1
 177 58 l 1,110,-1
 177 -13 l 1,111,-1
 112 -13 l 1,108,-1
EndSplineSet
Validated: 5
EndChar

StartChar: F
Encoding: 70 70 26
Width: 725
Flags: W
LayerCount: 2
Fore
SplineSet
712 587 m 1,0,-1
 712 658 l 1,1,-1
 777 658 l 1,2,-1
 777 587 l 1,3,-1
 712 587 l 1,0,-1
447 587 m 1,4,-1
 447 661 l 1,5,-1
 742 661 l 1,6,-1
 742 587 l 1,7,-1
 447 587 l 1,4,-1
412 587 m 1,8,-1
 412 658 l 1,9,-1
 477 658 l 1,10,-1
 477 587 l 1,11,-1
 412 587 l 1,8,-1
147 587 m 1,12,-1
 147 661 l 1,13,-1
 442 661 l 1,14,-1
 442 587 l 1,15,-1
 147 587 l 1,12,-1
412 307 m 1,16,-1
 412 378 l 1,17,-1
 477 378 l 1,18,-1
 477 307 l 1,19,-1
 412 307 l 1,16,-1
112 587 m 1,20,-1
 112 658 l 1,21,-1
 177 658 l 1,22,-1
 177 587 l 1,23,-1
 112 587 l 1,20,-1
112 547 m 1,24,-1
 112 618 l 1,25,-1
 177 618 l 1,26,-1
 177 547 l 1,27,-1
 112 547 l 1,24,-1
112 507 m 1,28,-1
 112 578 l 1,29,-1
 177 578 l 1,30,-1
 177 507 l 1,31,-1
 112 507 l 1,28,-1
112 467 m 1,32,-1
 112 538 l 1,33,-1
 177 538 l 1,34,-1
 177 467 l 1,35,-1
 112 467 l 1,32,-1
147 307 m 1,36,-1
 147 381 l 1,37,-1
 442 381 l 1,38,-1
 442 307 l 1,39,-1
 147 307 l 1,36,-1
112 427 m 1,40,-1
 112 498 l 1,41,-1
 177 498 l 1,42,-1
 177 427 l 1,43,-1
 112 427 l 1,40,-1
112 387 m 1,44,-1
 112 458 l 1,45,-1
 177 458 l 1,46,-1
 177 387 l 1,47,-1
 112 387 l 1,44,-1
112 347 m 1,48,-1
 112 418 l 1,49,-1
 177 418 l 1,50,-1
 177 347 l 1,51,-1
 112 347 l 1,48,-1
112 307 m 1,52,-1
 112 378 l 1,53,-1
 177 378 l 1,54,-1
 177 307 l 1,55,-1
 112 307 l 1,52,-1
112 267 m 1,56,-1
 112 338 l 1,57,-1
 177 338 l 1,58,-1
 177 267 l 1,59,-1
 112 267 l 1,56,-1
112 227 m 1,60,-1
 112 298 l 1,61,-1
 177 298 l 1,62,-1
 177 227 l 1,63,-1
 112 227 l 1,60,-1
112 187 m 1,64,-1
 112 258 l 1,65,-1
 177 258 l 1,66,-1
 177 187 l 1,67,-1
 112 187 l 1,64,-1
112 147 m 1,68,-1
 112 218 l 1,69,-1
 177 218 l 1,70,-1
 177 147 l 1,71,-1
 112 147 l 1,68,-1
112 107 m 1,72,-1
 112 178 l 1,73,-1
 177 178 l 1,74,-1
 177 107 l 1,75,-1
 112 107 l 1,72,-1
112 67 m 1,76,-1
 112 138 l 1,77,-1
 177 138 l 1,78,-1
 177 67 l 1,79,-1
 112 67 l 1,76,-1
112 27 m 1,80,-1
 112 98 l 1,81,-1
 177 98 l 1,82,-1
 177 27 l 1,83,-1
 112 27 l 1,80,-1
112 -13 m 1,84,-1
 112 58 l 1,85,-1
 177 58 l 1,86,-1
 177 -13 l 1,87,-1
 112 -13 l 1,84,-1
EndSplineSet
Validated: 5
EndChar

StartChar: G
Encoding: 71 71 27
Width: 766
Flags: W
LayerCount: 2
Fore
SplineSet
712 587 m 1,0,-1
 712 658 l 1,1,-1
 777 658 l 1,2,-1
 777 587 l 1,3,-1
 712 587 l 1,0,-1
447 587 m 1,4,-1
 447 661 l 1,5,-1
 742 661 l 1,6,-1
 742 587 l 1,7,-1
 447 587 l 1,4,-1
412 587 m 1,8,-1
 412 658 l 1,9,-1
 477 658 l 1,10,-1
 477 587 l 1,11,-1
 412 587 l 1,8,-1
712 267 m 1,12,-1
 712 338 l 1,13,-1
 777 338 l 1,14,-1
 777 267 l 1,15,-1
 712 267 l 1,12,-1
712 227 m 1,16,-1
 712 298 l 1,17,-1
 777 298 l 1,18,-1
 777 227 l 1,19,-1
 712 227 l 1,16,-1
712 187 m 1,20,-1
 712 258 l 1,21,-1
 777 258 l 1,22,-1
 777 187 l 1,23,-1
 712 187 l 1,20,-1
447 307 m 1,24,-1
 447 381 l 1,25,-1
 742 381 l 1,26,-1
 742 307 l 1,27,-1
 447 307 l 1,24,-1
712 147 m 1,28,-1
 712 218 l 1,29,-1
 777 218 l 1,30,-1
 777 147 l 1,31,-1
 712 147 l 1,28,-1
147 587 m 1,32,-1
 147 661 l 1,33,-1
 442 661 l 1,34,-1
 442 587 l 1,35,-1
 147 587 l 1,32,-1
712 107 m 1,36,-1
 712 178 l 1,37,-1
 777 178 l 1,38,-1
 777 107 l 1,39,-1
 712 107 l 1,36,-1
712 67 m 1,40,-1
 712 138 l 1,41,-1
 777 138 l 1,42,-1
 777 67 l 1,43,-1
 712 67 l 1,40,-1
712 27 m 1,44,-1
 712 98 l 1,45,-1
 777 98 l 1,46,-1
 777 27 l 1,47,-1
 712 27 l 1,44,-1
412 307 m 1,48,-1
 412 378 l 1,49,-1
 477 378 l 1,50,-1
 477 307 l 1,51,-1
 412 307 l 1,48,-1
112 547 m 1,52,-1
 112 618 l 1,53,-1
 177 618 l 1,54,-1
 177 547 l 1,55,-1
 112 547 l 1,52,-1
112 507 m 1,56,-1
 112 578 l 1,57,-1
 177 578 l 1,58,-1
 177 507 l 1,59,-1
 112 507 l 1,56,-1
112 467 m 1,60,-1
 112 538 l 1,61,-1
 177 538 l 1,62,-1
 177 467 l 1,63,-1
 112 467 l 1,60,-1
447 -13 m 1,64,-1
 447 61 l 1,65,-1
 742 61 l 1,66,-1
 742 -13 l 1,67,-1
 447 -13 l 1,64,-1
112 427 m 1,68,-1
 112 498 l 1,69,-1
 177 498 l 1,70,-1
 177 427 l 1,71,-1
 112 427 l 1,68,-1
112 387 m 1,72,-1
 112 458 l 1,73,-1
 177 458 l 1,74,-1
 177 387 l 1,75,-1
 112 387 l 1,72,-1
112 347 m 1,76,-1
 112 418 l 1,77,-1
 177 418 l 1,78,-1
 177 347 l 1,79,-1
 112 347 l 1,76,-1
112 307 m 1,80,-1
 112 378 l 1,81,-1
 177 378 l 1,82,-1
 177 307 l 1,83,-1
 112 307 l 1,80,-1
412 -13 m 1,84,-1
 412 58 l 1,85,-1
 477 58 l 1,86,-1
 477 -13 l 1,87,-1
 412 -13 l 1,84,-1
112 267 m 1,88,-1
 112 338 l 1,89,-1
 177 338 l 1,90,-1
 177 267 l 1,91,-1
 112 267 l 1,88,-1
112 227 m 1,92,-1
 112 298 l 1,93,-1
 177 298 l 1,94,-1
 177 227 l 1,95,-1
 112 227 l 1,92,-1
112 187 m 1,96,-1
 112 258 l 1,97,-1
 177 258 l 1,98,-1
 177 187 l 1,99,-1
 112 187 l 1,96,-1
112 147 m 1,100,-1
 112 218 l 1,101,-1
 177 218 l 1,102,-1
 177 147 l 1,103,-1
 112 147 l 1,100,-1
147 -13 m 1,104,-1
 147 61 l 1,105,-1
 442 61 l 1,106,-1
 442 -13 l 1,107,-1
 147 -13 l 1,104,-1
112 107 m 1,108,-1
 112 178 l 1,109,-1
 177 178 l 1,110,-1
 177 107 l 1,111,-1
 112 107 l 1,108,-1
112 67 m 1,112,-1
 112 138 l 1,113,-1
 177 138 l 1,114,-1
 177 67 l 1,115,-1
 112 67 l 1,112,-1
112 27 m 1,116,-1
 112 98 l 1,117,-1
 177 98 l 1,118,-1
 177 27 l 1,119,-1
 112 27 l 1,116,-1
EndSplineSet
Validated: 5
EndChar

StartChar: H
Encoding: 72 72 28
Width: 768
Flags: W
LayerCount: 2
Fore
SplineSet
712 587 m 1,0,-1
 712 658 l 1,1,-1
 777 658 l 1,2,-1
 777 587 l 1,3,-1
 712 587 l 1,0,-1
712 547 m 1,4,-1
 712 618 l 1,5,-1
 777 618 l 1,6,-1
 777 547 l 1,7,-1
 712 547 l 1,4,-1
712 507 m 1,8,-1
 712 578 l 1,9,-1
 777 578 l 1,10,-1
 777 507 l 1,11,-1
 712 507 l 1,8,-1
712 467 m 1,12,-1
 712 538 l 1,13,-1
 777 538 l 1,14,-1
 777 467 l 1,15,-1
 712 467 l 1,12,-1
712 427 m 1,16,-1
 712 498 l 1,17,-1
 777 498 l 1,18,-1
 777 427 l 1,19,-1
 712 427 l 1,16,-1
712 387 m 1,20,-1
 712 458 l 1,21,-1
 777 458 l 1,22,-1
 777 387 l 1,23,-1
 712 387 l 1,20,-1
712 347 m 1,24,-1
 712 418 l 1,25,-1
 777 418 l 1,26,-1
 777 347 l 1,27,-1
 712 347 l 1,24,-1
712 307 m 1,28,-1
 712 378 l 1,29,-1
 777 378 l 1,30,-1
 777 307 l 1,31,-1
 712 307 l 1,28,-1
712 267 m 1,32,-1
 712 338 l 1,33,-1
 777 338 l 1,34,-1
 777 267 l 1,35,-1
 712 267 l 1,32,-1
712 227 m 1,36,-1
 712 298 l 1,37,-1
 777 298 l 1,38,-1
 777 227 l 1,39,-1
 712 227 l 1,36,-1
712 187 m 1,40,-1
 712 258 l 1,41,-1
 777 258 l 1,42,-1
 777 187 l 1,43,-1
 712 187 l 1,40,-1
447 307 m 1,44,-1
 447 381 l 1,45,-1
 742 381 l 1,46,-1
 742 307 l 1,47,-1
 447 307 l 1,44,-1
712 147 m 1,48,-1
 712 218 l 1,49,-1
 777 218 l 1,50,-1
 777 147 l 1,51,-1
 712 147 l 1,48,-1
712 107 m 1,52,-1
 712 178 l 1,53,-1
 777 178 l 1,54,-1
 777 107 l 1,55,-1
 712 107 l 1,52,-1
712 67 m 1,56,-1
 712 138 l 1,57,-1
 777 138 l 1,58,-1
 777 67 l 1,59,-1
 712 67 l 1,56,-1
712 27 m 1,60,-1
 712 98 l 1,61,-1
 777 98 l 1,62,-1
 777 27 l 1,63,-1
 712 27 l 1,60,-1
412 307 m 1,64,-1
 412 378 l 1,65,-1
 477 378 l 1,66,-1
 477 307 l 1,67,-1
 412 307 l 1,64,-1
112 587 m 1,68,-1
 112 658 l 1,69,-1
 177 658 l 1,70,-1
 177 587 l 1,71,-1
 112 587 l 1,68,-1
712 -13 m 1,72,-1
 712 58 l 1,73,-1
 777 58 l 1,74,-1
 777 -13 l 1,75,-1
 712 -13 l 1,72,-1
112 547 m 1,76,-1
 112 618 l 1,77,-1
 177 618 l 1,78,-1
 177 547 l 1,79,-1
 112 547 l 1,76,-1
112 507 m 1,80,-1
 112 578 l 1,81,-1
 177 578 l 1,82,-1
 177 507 l 1,83,-1
 112 507 l 1,80,-1
112 467 m 1,84,-1
 112 538 l 1,85,-1
 177 538 l 1,86,-1
 177 467 l 1,87,-1
 112 467 l 1,84,-1
147 307 m 1,88,-1
 147 381 l 1,89,-1
 442 381 l 1,90,-1
 442 307 l 1,91,-1
 147 307 l 1,88,-1
112 427 m 1,92,-1
 112 498 l 1,93,-1
 177 498 l 1,94,-1
 177 427 l 1,95,-1
 112 427 l 1,92,-1
112 387 m 1,96,-1
 112 458 l 1,97,-1
 177 458 l 1,98,-1
 177 387 l 1,99,-1
 112 387 l 1,96,-1
112 347 m 1,100,-1
 112 418 l 1,101,-1
 177 418 l 1,102,-1
 177 347 l 1,103,-1
 112 347 l 1,100,-1
112 307 m 1,104,-1
 112 378 l 1,105,-1
 177 378 l 1,106,-1
 177 307 l 1,107,-1
 112 307 l 1,104,-1
112 267 m 1,108,-1
 112 338 l 1,109,-1
 177 338 l 1,110,-1
 177 267 l 1,111,-1
 112 267 l 1,108,-1
112 227 m 1,112,-1
 112 298 l 1,113,-1
 177 298 l 1,114,-1
 177 227 l 1,115,-1
 112 227 l 1,112,-1
112 187 m 1,116,-1
 112 258 l 1,117,-1
 177 258 l 1,118,-1
 177 187 l 1,119,-1
 112 187 l 1,116,-1
112 147 m 1,120,-1
 112 218 l 1,121,-1
 177 218 l 1,122,-1
 177 147 l 1,123,-1
 112 147 l 1,120,-1
112 107 m 1,124,-1
 112 178 l 1,125,-1
 177 178 l 1,126,-1
 177 107 l 1,127,-1
 112 107 l 1,124,-1
112 67 m 1,128,-1
 112 138 l 1,129,-1
 177 138 l 1,130,-1
 177 67 l 1,131,-1
 112 67 l 1,128,-1
112 27 m 1,132,-1
 112 98 l 1,133,-1
 177 98 l 1,134,-1
 177 27 l 1,135,-1
 112 27 l 1,132,-1
112 -13 m 1,136,-1
 112 58 l 1,137,-1
 177 58 l 1,138,-1
 177 -13 l 1,139,-1
 112 -13 l 1,136,-1
EndSplineSet
Validated: 5
EndChar

StartChar: I
Encoding: 73 73 29
Width: 725
Flags: W
LayerCount: 2
Fore
SplineSet
712 587 m 1,0,-1
 712 658 l 1,1,-1
 777 658 l 1,2,-1
 777 587 l 1,3,-1
 712 587 l 1,0,-1
447 587 m 1,4,-1
 447 661 l 1,5,-1
 742 661 l 1,6,-1
 742 587 l 1,7,-1
 447 587 l 1,4,-1
412 587 m 1,8,-1
 412 658 l 1,9,-1
 477 658 l 1,10,-1
 477 587 l 1,11,-1
 412 587 l 1,8,-1
412 547 m 1,12,-1
 412 618 l 1,13,-1
 477 618 l 1,14,-1
 477 547 l 1,15,-1
 412 547 l 1,12,-1
412 507 m 1,16,-1
 412 578 l 1,17,-1
 477 578 l 1,18,-1
 477 507 l 1,19,-1
 412 507 l 1,16,-1
412 467 m 1,20,-1
 412 538 l 1,21,-1
 477 538 l 1,22,-1
 477 467 l 1,23,-1
 412 467 l 1,20,-1
147 587 m 1,24,-1
 147 661 l 1,25,-1
 442 661 l 1,26,-1
 442 587 l 1,27,-1
 147 587 l 1,24,-1
412 427 m 1,28,-1
 412 498 l 1,29,-1
 477 498 l 1,30,-1
 477 427 l 1,31,-1
 412 427 l 1,28,-1
412 387 m 1,32,-1
 412 458 l 1,33,-1
 477 458 l 1,34,-1
 477 387 l 1,35,-1
 412 387 l 1,32,-1
412 347 m 1,36,-1
 412 418 l 1,37,-1
 477 418 l 1,38,-1
 477 347 l 1,39,-1
 412 347 l 1,36,-1
412 307 m 1,40,-1
 412 378 l 1,41,-1
 477 378 l 1,42,-1
 477 307 l 1,43,-1
 412 307 l 1,40,-1
112 587 m 1,44,-1
 112 658 l 1,45,-1
 177 658 l 1,46,-1
 177 587 l 1,47,-1
 112 587 l 1,44,-1
712 -13 m 1,48,-1
 712 58 l 1,49,-1
 777 58 l 1,50,-1
 777 -13 l 1,51,-1
 712 -13 l 1,48,-1
412 267 m 1,52,-1
 412 338 l 1,53,-1
 477 338 l 1,54,-1
 477 267 l 1,55,-1
 412 267 l 1,52,-1
412 227 m 1,56,-1
 412 298 l 1,57,-1
 477 298 l 1,58,-1
 477 227 l 1,59,-1
 412 227 l 1,56,-1
412 187 m 1,60,-1
 412 258 l 1,61,-1
 477 258 l 1,62,-1
 477 187 l 1,63,-1
 412 187 l 1,60,-1
412 147 m 1,64,-1
 412 218 l 1,65,-1
 477 218 l 1,66,-1
 477 147 l 1,67,-1
 412 147 l 1,64,-1
447 -13 m 1,68,-1
 447 61 l 1,69,-1
 742 61 l 1,70,-1
 742 -13 l 1,71,-1
 447 -13 l 1,68,-1
412 107 m 1,72,-1
 412 178 l 1,73,-1
 477 178 l 1,74,-1
 477 107 l 1,75,-1
 412 107 l 1,72,-1
412 67 m 1,76,-1
 412 138 l 1,77,-1
 477 138 l 1,78,-1
 477 67 l 1,79,-1
 412 67 l 1,76,-1
412 27 m 1,80,-1
 412 98 l 1,81,-1
 477 98 l 1,82,-1
 477 27 l 1,83,-1
 412 27 l 1,80,-1
412 -13 m 1,84,-1
 412 58 l 1,85,-1
 477 58 l 1,86,-1
 477 -13 l 1,87,-1
 412 -13 l 1,84,-1
147 -13 m 1,88,-1
 147 61 l 1,89,-1
 442 61 l 1,90,-1
 442 -13 l 1,91,-1
 147 -13 l 1,88,-1
112 -13 m 1,92,-1
 112 58 l 1,93,-1
 177 58 l 1,94,-1
 177 -13 l 1,95,-1
 112 -13 l 1,92,-1
EndSplineSet
Validated: 5
EndChar

StartChar: J
Encoding: 74 74 30
Width: 767
Flags: W
LayerCount: 2
Fore
SplineSet
712 587 m 1,0,-1
 712 658 l 1,1,-1
 777 658 l 1,2,-1
 777 587 l 1,3,-1
 712 587 l 1,0,-1
712 547 m 1,4,-1
 712 618 l 1,5,-1
 777 618 l 1,6,-1
 777 547 l 1,7,-1
 712 547 l 1,4,-1
712 507 m 1,8,-1
 712 578 l 1,9,-1
 777 578 l 1,10,-1
 777 507 l 1,11,-1
 712 507 l 1,8,-1
712 467 m 1,12,-1
 712 538 l 1,13,-1
 777 538 l 1,14,-1
 777 467 l 1,15,-1
 712 467 l 1,12,-1
712 427 m 1,16,-1
 712 498 l 1,17,-1
 777 498 l 1,18,-1
 777 427 l 1,19,-1
 712 427 l 1,16,-1
712 387 m 1,20,-1
 712 458 l 1,21,-1
 777 458 l 1,22,-1
 777 387 l 1,23,-1
 712 387 l 1,20,-1
712 347 m 1,24,-1
 712 418 l 1,25,-1
 777 418 l 1,26,-1
 777 347 l 1,27,-1
 712 347 l 1,24,-1
712 307 m 1,28,-1
 712 378 l 1,29,-1
 777 378 l 1,30,-1
 777 307 l 1,31,-1
 712 307 l 1,28,-1
712 267 m 1,32,-1
 712 338 l 1,33,-1
 777 338 l 1,34,-1
 777 267 l 1,35,-1
 712 267 l 1,32,-1
712 227 m 1,36,-1
 712 298 l 1,37,-1
 777 298 l 1,38,-1
 777 227 l 1,39,-1
 712 227 l 1,36,-1
712 187 m 1,40,-1
 712 258 l 1,41,-1
 777 258 l 1,42,-1
 777 187 l 1,43,-1
 712 187 l 1,40,-1
712 147 m 1,44,-1
 712 218 l 1,45,-1
 777 218 l 1,46,-1
 777 147 l 1,47,-1
 712 147 l 1,44,-1
712 107 m 1,48,-1
 712 178 l 1,49,-1
 777 178 l 1,50,-1
 777 107 l 1,51,-1
 712 107 l 1,48,-1
712 67 m 1,52,-1
 712 138 l 1,53,-1
 777 138 l 1,54,-1
 777 67 l 1,55,-1
 712 67 l 1,52,-1
712 27 m 1,56,-1
 712 98 l 1,57,-1
 777 98 l 1,58,-1
 777 27 l 1,59,-1
 712 27 l 1,56,-1
447 -13 m 1,60,-1
 447 61 l 1,61,-1
 742 61 l 1,62,-1
 742 -13 l 1,63,-1
 447 -13 l 1,60,-1
112 307 m 1,64,-1
 112 378 l 1,65,-1
 177 378 l 1,66,-1
 177 307 l 1,67,-1
 112 307 l 1,64,-1
412 -13 m 1,68,-1
 412 58 l 1,69,-1
 477 58 l 1,70,-1
 477 -13 l 1,71,-1
 412 -13 l 1,68,-1
112 267 m 1,72,-1
 112 338 l 1,73,-1
 177 338 l 1,74,-1
 177 267 l 1,75,-1
 112 267 l 1,72,-1
112 227 m 1,76,-1
 112 298 l 1,77,-1
 177 298 l 1,78,-1
 177 227 l 1,79,-1
 112 227 l 1,76,-1
112 187 m 1,80,-1
 112 258 l 1,81,-1
 177 258 l 1,82,-1
 177 187 l 1,83,-1
 112 187 l 1,80,-1
112 147 m 1,84,-1
 112 218 l 1,85,-1
 177 218 l 1,86,-1
 177 147 l 1,87,-1
 112 147 l 1,84,-1
147 -13 m 1,88,-1
 147 61 l 1,89,-1
 442 61 l 1,90,-1
 442 -13 l 1,91,-1
 147 -13 l 1,88,-1
112 107 m 1,92,-1
 112 178 l 1,93,-1
 177 178 l 1,94,-1
 177 107 l 1,95,-1
 112 107 l 1,92,-1
112 67 m 1,96,-1
 112 138 l 1,97,-1
 177 138 l 1,98,-1
 177 67 l 1,99,-1
 112 67 l 1,96,-1
112 27 m 1,100,-1
 112 98 l 1,101,-1
 177 98 l 1,102,-1
 177 27 l 1,103,-1
 112 27 l 1,100,-1
EndSplineSet
Validated: 5
EndChar

StartChar: K
Encoding: 75 75 31
Width: 767
Flags: W
LayerCount: 2
Fore
SplineSet
712 327 m 1,0,-1
 712 398 l 1,1,-1
 777 398 l 1,2,-1
 777 327 l 1,3,-1
 712 327 l 1,0,-1
412 607 m 1,4,-1
 412 678 l 1,5,-1
 477 678 l 1,6,-1
 477 607 l 1,7,-1
 412 607 l 1,4,-1
712 287 m 1,8,-1
 712 358 l 1,9,-1
 777 358 l 1,10,-1
 777 287 l 1,11,-1
 712 287 l 1,8,-1
412 567 m 1,12,-1
 412 638 l 1,13,-1
 477 638 l 1,14,-1
 477 567 l 1,15,-1
 412 567 l 1,12,-1
712 247 m 1,16,-1
 712 318 l 1,17,-1
 777 318 l 1,18,-1
 777 247 l 1,19,-1
 712 247 l 1,16,-1
412 527 m 1,20,-1
 412 598 l 1,21,-1
 477 598 l 1,22,-1
 477 527 l 1,23,-1
 412 527 l 1,20,-1
712 207 m 1,24,-1
 712 278 l 1,25,-1
 777 278 l 1,26,-1
 777 207 l 1,27,-1
 712 207 l 1,24,-1
412 487 m 1,28,-1
 412 558 l 1,29,-1
 477 558 l 1,30,-1
 477 487 l 1,31,-1
 412 487 l 1,28,-1
447 327 m 1,32,-1
 447 401 l 1,33,-1
 742 401 l 1,34,-1
 742 327 l 1,35,-1
 447 327 l 1,32,-1
712 167 m 1,36,-1
 712 238 l 1,37,-1
 777 238 l 1,38,-1
 777 167 l 1,39,-1
 712 167 l 1,36,-1
412 447 m 1,40,-1
 412 518 l 1,41,-1
 477 518 l 1,42,-1
 477 447 l 1,43,-1
 412 447 l 1,40,-1
712 127 m 1,44,-1
 712 198 l 1,45,-1
 777 198 l 1,46,-1
 777 127 l 1,47,-1
 712 127 l 1,44,-1
412 407 m 1,48,-1
 412 478 l 1,49,-1
 477 478 l 1,50,-1
 477 407 l 1,51,-1
 412 407 l 1,48,-1
712 87 m 1,52,-1
 712 158 l 1,53,-1
 777 158 l 1,54,-1
 777 87 l 1,55,-1
 712 87 l 1,52,-1
412 367 m 1,56,-1
 412 438 l 1,57,-1
 477 438 l 1,58,-1
 477 367 l 1,59,-1
 412 367 l 1,56,-1
712 47 m 1,60,-1
 712 118 l 1,61,-1
 777 118 l 1,62,-1
 777 47 l 1,63,-1
 712 47 l 1,60,-1
412 327 m 1,64,-1
 412 398 l 1,65,-1
 477 398 l 1,66,-1
 477 327 l 1,67,-1
 412 327 l 1,64,-1
112 607 m 1,68,-1
 112 678 l 1,69,-1
 177 678 l 1,70,-1
 177 607 l 1,71,-1
 112 607 l 1,68,-1
712 7 m 1,72,-1
 712 78 l 1,73,-1
 777 78 l 1,74,-1
 777 7 l 1,75,-1
 712 7 l 1,72,-1
112 567 m 1,76,-1
 112 638 l 1,77,-1
 177 638 l 1,78,-1
 177 567 l 1,79,-1
 112 567 l 1,76,-1
112 527 m 1,80,-1
 112 598 l 1,81,-1
 177 598 l 1,82,-1
 177 527 l 1,83,-1
 112 527 l 1,80,-1
112 487 m 1,84,-1
 112 558 l 1,85,-1
 177 558 l 1,86,-1
 177 487 l 1,87,-1
 112 487 l 1,84,-1
147 327 m 1,88,-1
 147 401 l 1,89,-1
 442 401 l 1,90,-1
 442 327 l 1,91,-1
 147 327 l 1,88,-1
112 447 m 1,92,-1
 112 518 l 1,93,-1
 177 518 l 1,94,-1
 177 447 l 1,95,-1
 112 447 l 1,92,-1
112 407 m 1,96,-1
 112 478 l 1,97,-1
 177 478 l 1,98,-1
 177 407 l 1,99,-1
 112 407 l 1,96,-1
112 367 m 1,100,-1
 112 438 l 1,101,-1
 177 438 l 1,102,-1
 177 367 l 1,103,-1
 112 367 l 1,100,-1
112 327 m 1,104,-1
 112 398 l 1,105,-1
 177 398 l 1,106,-1
 177 327 l 1,107,-1
 112 327 l 1,104,-1
112 287 m 1,108,-1
 112 358 l 1,109,-1
 177 358 l 1,110,-1
 177 287 l 1,111,-1
 112 287 l 1,108,-1
112 247 m 1,112,-1
 112 318 l 1,113,-1
 177 318 l 1,114,-1
 177 247 l 1,115,-1
 112 247 l 1,112,-1
112 207 m 1,116,-1
 112 278 l 1,117,-1
 177 278 l 1,118,-1
 177 207 l 1,119,-1
 112 207 l 1,116,-1
112 167 m 1,120,-1
 112 238 l 1,121,-1
 177 238 l 1,122,-1
 177 167 l 1,123,-1
 112 167 l 1,120,-1
112 127 m 1,124,-1
 112 198 l 1,125,-1
 177 198 l 1,126,-1
 177 127 l 1,127,-1
 112 127 l 1,124,-1
112 87 m 1,128,-1
 112 158 l 1,129,-1
 177 158 l 1,130,-1
 177 87 l 1,131,-1
 112 87 l 1,128,-1
112 47 m 1,132,-1
 112 118 l 1,133,-1
 177 118 l 1,134,-1
 177 47 l 1,135,-1
 112 47 l 1,132,-1
112 7 m 1,136,-1
 112 78 l 1,137,-1
 177 78 l 1,138,-1
 177 7 l 1,139,-1
 112 7 l 1,136,-1
451 621 m 1,140,-1
 423 663 l 1,141,-1
 438 673 l 1,142,-1
 466 631 l 1,143,-1
 451 621 l 1,140,-1
151 621 m 1,144,-1
 123 663 l 1,145,-1
 138 673 l 1,146,-1
 166 631 l 1,147,-1
 151 621 l 1,144,-1
EndSplineSet
Validated: 5
EndChar

StartChar: L
Encoding: 76 76 32
Width: 725
Flags: W
LayerCount: 2
Fore
SplineSet
112 587 m 1,0,-1
 112 658 l 1,1,-1
 177 658 l 1,2,-1
 177 587 l 1,3,-1
 112 587 l 1,0,-1
712 -13 m 1,4,-1
 712 58 l 1,5,-1
 777 58 l 1,6,-1
 777 -13 l 1,7,-1
 712 -13 l 1,4,-1
112 547 m 1,8,-1
 112 618 l 1,9,-1
 177 618 l 1,10,-1
 177 547 l 1,11,-1
 112 547 l 1,8,-1
112 507 m 1,12,-1
 112 578 l 1,13,-1
 177 578 l 1,14,-1
 177 507 l 1,15,-1
 112 507 l 1,12,-1
112 467 m 1,16,-1
 112 538 l 1,17,-1
 177 538 l 1,18,-1
 177 467 l 1,19,-1
 112 467 l 1,16,-1
447 -13 m 1,20,-1
 447 61 l 1,21,-1
 742 61 l 1,22,-1
 742 -13 l 1,23,-1
 447 -13 l 1,20,-1
112 427 m 1,24,-1
 112 498 l 1,25,-1
 177 498 l 1,26,-1
 177 427 l 1,27,-1
 112 427 l 1,24,-1
112 387 m 1,28,-1
 112 458 l 1,29,-1
 177 458 l 1,30,-1
 177 387 l 1,31,-1
 112 387 l 1,28,-1
112 347 m 1,32,-1
 112 418 l 1,33,-1
 177 418 l 1,34,-1
 177 347 l 1,35,-1
 112 347 l 1,32,-1
112 307 m 1,36,-1
 112 378 l 1,37,-1
 177 378 l 1,38,-1
 177 307 l 1,39,-1
 112 307 l 1,36,-1
412 -13 m 1,40,-1
 412 58 l 1,41,-1
 477 58 l 1,42,-1
 477 -13 l 1,43,-1
 412 -13 l 1,40,-1
112 267 m 1,44,-1
 112 338 l 1,45,-1
 177 338 l 1,46,-1
 177 267 l 1,47,-1
 112 267 l 1,44,-1
112 227 m 1,48,-1
 112 298 l 1,49,-1
 177 298 l 1,50,-1
 177 227 l 1,51,-1
 112 227 l 1,48,-1
112 187 m 1,52,-1
 112 258 l 1,53,-1
 177 258 l 1,54,-1
 177 187 l 1,55,-1
 112 187 l 1,52,-1
112 147 m 1,56,-1
 112 218 l 1,57,-1
 177 218 l 1,58,-1
 177 147 l 1,59,-1
 112 147 l 1,56,-1
147 -13 m 1,60,-1
 147 61 l 1,61,-1
 442 61 l 1,62,-1
 442 -13 l 1,63,-1
 147 -13 l 1,60,-1
112 107 m 1,64,-1
 112 178 l 1,65,-1
 177 178 l 1,66,-1
 177 107 l 1,67,-1
 112 107 l 1,64,-1
112 67 m 1,68,-1
 112 138 l 1,69,-1
 177 138 l 1,70,-1
 177 67 l 1,71,-1
 112 67 l 1,68,-1
112 27 m 1,72,-1
 112 98 l 1,73,-1
 177 98 l 1,74,-1
 177 27 l 1,75,-1
 112 27 l 1,72,-1
112 -13 m 1,76,-1
 112 58 l 1,77,-1
 177 58 l 1,78,-1
 177 -13 l 1,79,-1
 112 -13 l 1,76,-1
EndSplineSet
Validated: 5
EndChar

StartChar: M
Encoding: 77 77 33
Width: 768
Flags: W
LayerCount: 2
Fore
SplineSet
712 547 m 1,0,-1
 712 618 l 1,1,-1
 777 618 l 1,2,-1
 777 547 l 1,3,-1
 712 547 l 1,0,-1
712 507 m 1,4,-1
 712 578 l 1,5,-1
 777 578 l 1,6,-1
 777 507 l 1,7,-1
 712 507 l 1,4,-1
712 467 m 1,8,-1
 712 538 l 1,9,-1
 777 538 l 1,10,-1
 777 467 l 1,11,-1
 712 467 l 1,8,-1
447 587 m 1,12,-1
 447 661 l 1,13,-1
 742 661 l 1,14,-1
 742 587 l 1,15,-1
 447 587 l 1,12,-1
712 427 m 1,16,-1
 712 498 l 1,17,-1
 777 498 l 1,18,-1
 777 427 l 1,19,-1
 712 427 l 1,16,-1
712 387 m 1,20,-1
 712 458 l 1,21,-1
 777 458 l 1,22,-1
 777 387 l 1,23,-1
 712 387 l 1,20,-1
712 347 m 1,24,-1
 712 418 l 1,25,-1
 777 418 l 1,26,-1
 777 347 l 1,27,-1
 712 347 l 1,24,-1
712 307 m 1,28,-1
 712 378 l 1,29,-1
 777 378 l 1,30,-1
 777 307 l 1,31,-1
 712 307 l 1,28,-1
412 587 m 1,32,-1
 412 658 l 1,33,-1
 477 658 l 1,34,-1
 477 587 l 1,35,-1
 412 587 l 1,32,-1
712 267 m 1,36,-1
 712 338 l 1,37,-1
 777 338 l 1,38,-1
 777 267 l 1,39,-1
 712 267 l 1,36,-1
412 547 m 1,40,-1
 412 618 l 1,41,-1
 477 618 l 1,42,-1
 477 547 l 1,43,-1
 412 547 l 1,40,-1
712 227 m 1,44,-1
 712 298 l 1,45,-1
 777 298 l 1,46,-1
 777 227 l 1,47,-1
 712 227 l 1,44,-1
412 507 m 1,48,-1
 412 578 l 1,49,-1
 477 578 l 1,50,-1
 477 507 l 1,51,-1
 412 507 l 1,48,-1
712 187 m 1,52,-1
 712 258 l 1,53,-1
 777 258 l 1,54,-1
 777 187 l 1,55,-1
 712 187 l 1,52,-1
412 467 m 1,56,-1
 412 538 l 1,57,-1
 477 538 l 1,58,-1
 477 467 l 1,59,-1
 412 467 l 1,56,-1
712 147 m 1,60,-1
 712 218 l 1,61,-1
 777 218 l 1,62,-1
 777 147 l 1,63,-1
 712 147 l 1,60,-1
147 587 m 1,64,-1
 147 661 l 1,65,-1
 442 661 l 1,66,-1
 442 587 l 1,67,-1
 147 587 l 1,64,-1
412 427 m 1,68,-1
 412 498 l 1,69,-1
 477 498 l 1,70,-1
 477 427 l 1,71,-1
 412 427 l 1,68,-1
712 107 m 1,72,-1
 712 178 l 1,73,-1
 777 178 l 1,74,-1
 777 107 l 1,75,-1
 712 107 l 1,72,-1
412 387 m 1,76,-1
 412 458 l 1,77,-1
 477 458 l 1,78,-1
 477 387 l 1,79,-1
 412 387 l 1,76,-1
712 67 m 1,80,-1
 712 138 l 1,81,-1
 777 138 l 1,82,-1
 777 67 l 1,83,-1
 712 67 l 1,80,-1
412 347 m 1,84,-1
 412 418 l 1,85,-1
 477 418 l 1,86,-1
 477 347 l 1,87,-1
 412 347 l 1,84,-1
712 27 m 1,88,-1
 712 98 l 1,89,-1
 777 98 l 1,90,-1
 777 27 l 1,91,-1
 712 27 l 1,88,-1
412 307 m 1,92,-1
 412 378 l 1,93,-1
 477 378 l 1,94,-1
 477 307 l 1,95,-1
 412 307 l 1,92,-1
712 -13 m 1,96,-1
 712 58 l 1,97,-1
 777 58 l 1,98,-1
 777 -13 l 1,99,-1
 712 -13 l 1,96,-1
412 267 m 1,100,-1
 412 338 l 1,101,-1
 477 338 l 1,102,-1
 477 267 l 1,103,-1
 412 267 l 1,100,-1
112 547 m 1,104,-1
 112 618 l 1,105,-1
 177 618 l 1,106,-1
 177 547 l 1,107,-1
 112 547 l 1,104,-1
412 227 m 1,108,-1
 412 298 l 1,109,-1
 477 298 l 1,110,-1
 477 227 l 1,111,-1
 412 227 l 1,108,-1
112 507 m 1,112,-1
 112 578 l 1,113,-1
 177 578 l 1,114,-1
 177 507 l 1,115,-1
 112 507 l 1,112,-1
412 187 m 1,116,-1
 412 258 l 1,117,-1
 477 258 l 1,118,-1
 477 187 l 1,119,-1
 412 187 l 1,116,-1
112 467 m 1,120,-1
 112 538 l 1,121,-1
 177 538 l 1,122,-1
 177 467 l 1,123,-1
 112 467 l 1,120,-1
412 147 m 1,124,-1
 412 218 l 1,125,-1
 477 218 l 1,126,-1
 477 147 l 1,127,-1
 412 147 l 1,124,-1
112 427 m 1,128,-1
 112 498 l 1,129,-1
 177 498 l 1,130,-1
 177 427 l 1,131,-1
 112 427 l 1,128,-1
412 107 m 1,132,-1
 412 178 l 1,133,-1
 477 178 l 1,134,-1
 477 107 l 1,135,-1
 412 107 l 1,132,-1
112 387 m 1,136,-1
 112 458 l 1,137,-1
 177 458 l 1,138,-1
 177 387 l 1,139,-1
 112 387 l 1,136,-1
412 67 m 1,140,-1
 412 138 l 1,141,-1
 477 138 l 1,142,-1
 477 67 l 1,143,-1
 412 67 l 1,140,-1
112 347 m 1,144,-1
 112 418 l 1,145,-1
 177 418 l 1,146,-1
 177 347 l 1,147,-1
 112 347 l 1,144,-1
412 27 m 1,148,-1
 412 98 l 1,149,-1
 477 98 l 1,150,-1
 477 27 l 1,151,-1
 412 27 l 1,148,-1
112 307 m 1,152,-1
 112 378 l 1,153,-1
 177 378 l 1,154,-1
 177 307 l 1,155,-1
 112 307 l 1,152,-1
412 -13 m 1,156,-1
 412 58 l 1,157,-1
 477 58 l 1,158,-1
 477 -13 l 1,159,-1
 412 -13 l 1,156,-1
112 267 m 1,160,-1
 112 338 l 1,161,-1
 177 338 l 1,162,-1
 177 267 l 1,163,-1
 112 267 l 1,160,-1
112 227 m 1,164,-1
 112 298 l 1,165,-1
 177 298 l 1,166,-1
 177 227 l 1,167,-1
 112 227 l 1,164,-1
112 187 m 1,168,-1
 112 258 l 1,169,-1
 177 258 l 1,170,-1
 177 187 l 1,171,-1
 112 187 l 1,168,-1
112 147 m 1,172,-1
 112 218 l 1,173,-1
 177 218 l 1,174,-1
 177 147 l 1,175,-1
 112 147 l 1,172,-1
112 107 m 1,176,-1
 112 178 l 1,177,-1
 177 178 l 1,178,-1
 177 107 l 1,179,-1
 112 107 l 1,176,-1
112 67 m 1,180,-1
 112 138 l 1,181,-1
 177 138 l 1,182,-1
 177 67 l 1,183,-1
 112 67 l 1,180,-1
112 27 m 1,184,-1
 112 98 l 1,185,-1
 177 98 l 1,186,-1
 177 27 l 1,187,-1
 112 27 l 1,184,-1
112 -13 m 1,188,-1
 112 58 l 1,189,-1
 177 58 l 1,190,-1
 177 -13 l 1,191,-1
 112 -13 l 1,188,-1
112 618 m 1,192,-1
 147 661 l 1,193,-1
 112 618 l 1,192,-1
742 661 m 1,194,-1
 777 618 l 1,195,-1
 742 661 l 1,194,-1
EndSplineSet
Validated: 5
EndChar

StartChar: N
Encoding: 78 78 34
Width: 768
Flags: W
LayerCount: 2
Fore
SplineSet
712 547 m 1,0,-1
 712 618 l 1,1,-1
 777 618 l 1,2,-1
 777 547 l 1,3,-1
 712 547 l 1,0,-1
712 507 m 1,4,-1
 712 578 l 1,5,-1
 777 578 l 1,6,-1
 777 507 l 1,7,-1
 712 507 l 1,4,-1
712 467 m 1,8,-1
 712 538 l 1,9,-1
 777 538 l 1,10,-1
 777 467 l 1,11,-1
 712 467 l 1,8,-1
447 587 m 1,12,-1
 447 661 l 1,13,-1
 742 661 l 1,14,-1
 742 587 l 1,15,-1
 447 587 l 1,12,-1
712 427 m 1,16,-1
 712 498 l 1,17,-1
 777 498 l 1,18,-1
 777 427 l 1,19,-1
 712 427 l 1,16,-1
712 387 m 1,20,-1
 712 458 l 1,21,-1
 777 458 l 1,22,-1
 777 387 l 1,23,-1
 712 387 l 1,20,-1
712 347 m 1,24,-1
 712 418 l 1,25,-1
 777 418 l 1,26,-1
 777 347 l 1,27,-1
 712 347 l 1,24,-1
712 307 m 1,28,-1
 712 378 l 1,29,-1
 777 378 l 1,30,-1
 777 307 l 1,31,-1
 712 307 l 1,28,-1
412 587 m 1,32,-1
 412 658 l 1,33,-1
 477 658 l 1,34,-1
 477 587 l 1,35,-1
 412 587 l 1,32,-1
712 267 m 1,36,-1
 712 338 l 1,37,-1
 777 338 l 1,38,-1
 777 267 l 1,39,-1
 712 267 l 1,36,-1
712 227 m 1,40,-1
 712 298 l 1,41,-1
 777 298 l 1,42,-1
 777 227 l 1,43,-1
 712 227 l 1,40,-1
712 187 m 1,44,-1
 712 258 l 1,45,-1
 777 258 l 1,46,-1
 777 187 l 1,47,-1
 712 187 l 1,44,-1
712 147 m 1,48,-1
 712 218 l 1,49,-1
 777 218 l 1,50,-1
 777 147 l 1,51,-1
 712 147 l 1,48,-1
147 587 m 1,52,-1
 147 661 l 1,53,-1
 442 661 l 1,54,-1
 442 587 l 1,55,-1
 147 587 l 1,52,-1
712 107 m 1,56,-1
 712 178 l 1,57,-1
 777 178 l 1,58,-1
 777 107 l 1,59,-1
 712 107 l 1,56,-1
712 67 m 1,60,-1
 712 138 l 1,61,-1
 777 138 l 1,62,-1
 777 67 l 1,63,-1
 712 67 l 1,60,-1
712 27 m 1,64,-1
 712 98 l 1,65,-1
 777 98 l 1,66,-1
 777 27 l 1,67,-1
 712 27 l 1,64,-1
112 587 m 1,68,-1
 112 658 l 1,69,-1
 177 658 l 1,70,-1
 177 587 l 1,71,-1
 112 587 l 1,68,-1
712 -13 m 1,72,-1
 712 58 l 1,73,-1
 777 58 l 1,74,-1
 777 -13 l 1,75,-1
 712 -13 l 1,72,-1
112 547 m 1,76,-1
 112 618 l 1,77,-1
 177 618 l 1,78,-1
 177 547 l 1,79,-1
 112 547 l 1,76,-1
112 507 m 1,80,-1
 112 578 l 1,81,-1
 177 578 l 1,82,-1
 177 507 l 1,83,-1
 112 507 l 1,80,-1
112 467 m 1,84,-1
 112 538 l 1,85,-1
 177 538 l 1,86,-1
 177 467 l 1,87,-1
 112 467 l 1,84,-1
112 427 m 1,88,-1
 112 498 l 1,89,-1
 177 498 l 1,90,-1
 177 427 l 1,91,-1
 112 427 l 1,88,-1
112 387 m 1,92,-1
 112 458 l 1,93,-1
 177 458 l 1,94,-1
 177 387 l 1,95,-1
 112 387 l 1,92,-1
112 347 m 1,96,-1
 112 418 l 1,97,-1
 177 418 l 1,98,-1
 177 347 l 1,99,-1
 112 347 l 1,96,-1
112 307 m 1,100,-1
 112 378 l 1,101,-1
 177 378 l 1,102,-1
 177 307 l 1,103,-1
 112 307 l 1,100,-1
112 267 m 1,104,-1
 112 338 l 1,105,-1
 177 338 l 1,106,-1
 177 267 l 1,107,-1
 112 267 l 1,104,-1
112 227 m 1,108,-1
 112 298 l 1,109,-1
 177 298 l 1,110,-1
 177 227 l 1,111,-1
 112 227 l 1,108,-1
112 187 m 1,112,-1
 112 258 l 1,113,-1
 177 258 l 1,114,-1
 177 187 l 1,115,-1
 112 187 l 1,112,-1
112 147 m 1,116,-1
 112 218 l 1,117,-1
 177 218 l 1,118,-1
 177 147 l 1,119,-1
 112 147 l 1,116,-1
112 107 m 1,120,-1
 112 178 l 1,121,-1
 177 178 l 1,122,-1
 177 107 l 1,123,-1
 112 107 l 1,120,-1
112 67 m 1,124,-1
 112 138 l 1,125,-1
 177 138 l 1,126,-1
 177 67 l 1,127,-1
 112 67 l 1,124,-1
112 27 m 1,128,-1
 112 98 l 1,129,-1
 177 98 l 1,130,-1
 177 27 l 1,131,-1
 112 27 l 1,128,-1
112 -13 m 1,132,-1
 112 58 l 1,133,-1
 177 58 l 1,134,-1
 177 -13 l 1,135,-1
 112 -13 l 1,132,-1
EndSplineSet
Validated: 5
EndChar

StartChar: O
Encoding: 79 79 35
Width: 767
Flags: W
LayerCount: 2
Fore
SplineSet
712 547 m 1,0,-1
 712 618 l 1,1,-1
 777 618 l 1,2,-1
 777 547 l 1,3,-1
 712 547 l 1,0,-1
712 507 m 1,4,-1
 712 578 l 1,5,-1
 777 578 l 1,6,-1
 777 507 l 1,7,-1
 712 507 l 1,4,-1
712 467 m 1,8,-1
 712 538 l 1,9,-1
 777 538 l 1,10,-1
 777 467 l 1,11,-1
 712 467 l 1,8,-1
447 587 m 1,12,-1
 447 661 l 1,13,-1
 742 661 l 1,14,-1
 742 587 l 1,15,-1
 447 587 l 1,12,-1
712 427 m 1,16,-1
 712 498 l 1,17,-1
 777 498 l 1,18,-1
 777 427 l 1,19,-1
 712 427 l 1,16,-1
712 387 m 1,20,-1
 712 458 l 1,21,-1
 777 458 l 1,22,-1
 777 387 l 1,23,-1
 712 387 l 1,20,-1
712 347 m 1,24,-1
 712 418 l 1,25,-1
 777 418 l 1,26,-1
 777 347 l 1,27,-1
 712 347 l 1,24,-1
712 307 m 1,28,-1
 712 378 l 1,29,-1
 777 378 l 1,30,-1
 777 307 l 1,31,-1
 712 307 l 1,28,-1
412 587 m 1,32,-1
 412 658 l 1,33,-1
 477 658 l 1,34,-1
 477 587 l 1,35,-1
 412 587 l 1,32,-1
712 267 m 1,36,-1
 712 338 l 1,37,-1
 777 338 l 1,38,-1
 777 267 l 1,39,-1
 712 267 l 1,36,-1
712 227 m 1,40,-1
 712 298 l 1,41,-1
 777 298 l 1,42,-1
 777 227 l 1,43,-1
 712 227 l 1,40,-1
712 187 m 1,44,-1
 712 258 l 1,45,-1
 777 258 l 1,46,-1
 777 187 l 1,47,-1
 712 187 l 1,44,-1
712 147 m 1,48,-1
 712 218 l 1,49,-1
 777 218 l 1,50,-1
 777 147 l 1,51,-1
 712 147 l 1,48,-1
147 587 m 1,52,-1
 147 661 l 1,53,-1
 442 661 l 1,54,-1
 442 587 l 1,55,-1
 147 587 l 1,52,-1
712 107 m 1,56,-1
 712 178 l 1,57,-1
 777 178 l 1,58,-1
 777 107 l 1,59,-1
 712 107 l 1,56,-1
712 67 m 1,60,-1
 712 138 l 1,61,-1
 777 138 l 1,62,-1
 777 67 l 1,63,-1
 712 67 l 1,60,-1
712 27 m 1,64,-1
 712 98 l 1,65,-1
 777 98 l 1,66,-1
 777 27 l 1,67,-1
 712 27 l 1,64,-1
112 547 m 1,68,-1
 112 618 l 1,69,-1
 177 618 l 1,70,-1
 177 547 l 1,71,-1
 112 547 l 1,68,-1
112 507 m 1,72,-1
 112 578 l 1,73,-1
 177 578 l 1,74,-1
 177 507 l 1,75,-1
 112 507 l 1,72,-1
112 467 m 1,76,-1
 112 538 l 1,77,-1
 177 538 l 1,78,-1
 177 467 l 1,79,-1
 112 467 l 1,76,-1
447 -13 m 1,80,-1
 447 61 l 1,81,-1
 742 61 l 1,82,-1
 742 -13 l 1,83,-1
 447 -13 l 1,80,-1
112 427 m 1,84,-1
 112 498 l 1,85,-1
 177 498 l 1,86,-1
 177 427 l 1,87,-1
 112 427 l 1,84,-1
112 387 m 1,88,-1
 112 458 l 1,89,-1
 177 458 l 1,90,-1
 177 387 l 1,91,-1
 112 387 l 1,88,-1
112 347 m 1,92,-1
 112 418 l 1,93,-1
 177 418 l 1,94,-1
 177 347 l 1,95,-1
 112 347 l 1,92,-1
112 307 m 1,96,-1
 112 378 l 1,97,-1
 177 378 l 1,98,-1
 177 307 l 1,99,-1
 112 307 l 1,96,-1
412 -13 m 1,100,-1
 412 58 l 1,101,-1
 477 58 l 1,102,-1
 477 -13 l 1,103,-1
 412 -13 l 1,100,-1
112 267 m 1,104,-1
 112 338 l 1,105,-1
 177 338 l 1,106,-1
 177 267 l 1,107,-1
 112 267 l 1,104,-1
112 227 m 1,108,-1
 112 298 l 1,109,-1
 177 298 l 1,110,-1
 177 227 l 1,111,-1
 112 227 l 1,108,-1
112 187 m 1,112,-1
 112 258 l 1,113,-1
 177 258 l 1,114,-1
 177 187 l 1,115,-1
 112 187 l 1,112,-1
112 147 m 1,116,-1
 112 218 l 1,117,-1
 177 218 l 1,118,-1
 177 147 l 1,119,-1
 112 147 l 1,116,-1
147 -13 m 1,120,-1
 147 61 l 1,121,-1
 442 61 l 1,122,-1
 442 -13 l 1,123,-1
 147 -13 l 1,120,-1
112 107 m 1,124,-1
 112 178 l 1,125,-1
 177 178 l 1,126,-1
 177 107 l 1,127,-1
 112 107 l 1,124,-1
112 67 m 1,128,-1
 112 138 l 1,129,-1
 177 138 l 1,130,-1
 177 67 l 1,131,-1
 112 67 l 1,128,-1
112 27 m 1,132,-1
 112 98 l 1,133,-1
 177 98 l 1,134,-1
 177 27 l 1,135,-1
 112 27 l 1,132,-1
EndSplineSet
Validated: 5
EndChar

StartChar: P
Encoding: 80 80 36
Width: 725
Flags: W
LayerCount: 2
Fore
SplineSet
712 547 m 1,0,-1
 712 618 l 1,1,-1
 777 618 l 1,2,-1
 777 547 l 1,3,-1
 712 547 l 1,0,-1
712 507 m 1,4,-1
 712 578 l 1,5,-1
 777 578 l 1,6,-1
 777 507 l 1,7,-1
 712 507 l 1,4,-1
712 467 m 1,8,-1
 712 538 l 1,9,-1
 777 538 l 1,10,-1
 777 467 l 1,11,-1
 712 467 l 1,8,-1
447 587 m 1,12,-1
 447 661 l 1,13,-1
 742 661 l 1,14,-1
 742 587 l 1,15,-1
 447 587 l 1,12,-1
712 427 m 1,16,-1
 712 498 l 1,17,-1
 777 498 l 1,18,-1
 777 427 l 1,19,-1
 712 427 l 1,16,-1
712 387 m 1,20,-1
 712 458 l 1,21,-1
 777 458 l 1,22,-1
 777 387 l 1,23,-1
 712 387 l 1,20,-1
712 347 m 1,24,-1
 712 418 l 1,25,-1
 777 418 l 1,26,-1
 777 347 l 1,27,-1
 712 347 l 1,24,-1
412 587 m 1,28,-1
 412 658 l 1,29,-1
 477 658 l 1,30,-1
 477 587 l 1,31,-1
 412 587 l 1,28,-1
447 307 m 1,32,-1
 447 381 l 1,33,-1
 742 381 l 1,34,-1
 742 307 l 1,35,-1
 447 307 l 1,32,-1
147 587 m 1,36,-1
 147 661 l 1,37,-1
 442 661 l 1,38,-1
 442 587 l 1,39,-1
 147 587 l 1,36,-1
412 307 m 1,40,-1
 412 378 l 1,41,-1
 477 378 l 1,42,-1
 477 307 l 1,43,-1
 412 307 l 1,40,-1
112 587 m 1,44,-1
 112 658 l 1,45,-1
 177 658 l 1,46,-1
 177 587 l 1,47,-1
 112 587 l 1,44,-1
112 547 m 1,48,-1
 112 618 l 1,49,-1
 177 618 l 1,50,-1
 177 547 l 1,51,-1
 112 547 l 1,48,-1
112 507 m 1,52,-1
 112 578 l 1,53,-1
 177 578 l 1,54,-1
 177 507 l 1,55,-1
 112 507 l 1,52,-1
112 467 m 1,56,-1
 112 538 l 1,57,-1
 177 538 l 1,58,-1
 177 467 l 1,59,-1
 112 467 l 1,56,-1
147 307 m 1,60,-1
 147 381 l 1,61,-1
 442 381 l 1,62,-1
 442 307 l 1,63,-1
 147 307 l 1,60,-1
112 427 m 1,64,-1
 112 498 l 1,65,-1
 177 498 l 1,66,-1
 177 427 l 1,67,-1
 112 427 l 1,64,-1
112 387 m 1,68,-1
 112 458 l 1,69,-1
 177 458 l 1,70,-1
 177 387 l 1,71,-1
 112 387 l 1,68,-1
112 347 m 1,72,-1
 112 418 l 1,73,-1
 177 418 l 1,74,-1
 177 347 l 1,75,-1
 112 347 l 1,72,-1
112 307 m 1,76,-1
 112 378 l 1,77,-1
 177 378 l 1,78,-1
 177 307 l 1,79,-1
 112 307 l 1,76,-1
112 267 m 1,80,-1
 112 338 l 1,81,-1
 177 338 l 1,82,-1
 177 267 l 1,83,-1
 112 267 l 1,80,-1
112 227 m 1,84,-1
 112 298 l 1,85,-1
 177 298 l 1,86,-1
 177 227 l 1,87,-1
 112 227 l 1,84,-1
112 187 m 1,88,-1
 112 258 l 1,89,-1
 177 258 l 1,90,-1
 177 187 l 1,91,-1
 112 187 l 1,88,-1
112 147 m 1,92,-1
 112 218 l 1,93,-1
 177 218 l 1,94,-1
 177 147 l 1,95,-1
 112 147 l 1,92,-1
112 107 m 1,96,-1
 112 178 l 1,97,-1
 177 178 l 1,98,-1
 177 107 l 1,99,-1
 112 107 l 1,96,-1
112 67 m 1,100,-1
 112 138 l 1,101,-1
 177 138 l 1,102,-1
 177 67 l 1,103,-1
 112 67 l 1,100,-1
112 27 m 1,104,-1
 112 98 l 1,105,-1
 177 98 l 1,106,-1
 177 27 l 1,107,-1
 112 27 l 1,104,-1
112 -13 m 1,108,-1
 112 58 l 1,109,-1
 177 58 l 1,110,-1
 177 -13 l 1,111,-1
 112 -13 l 1,108,-1
EndSplineSet
Validated: 5
EndChar

StartChar: Q
Encoding: 81 81 37
Width: 768
Flags: W
LayerCount: 2
Fore
SplineSet
712 587 m 5,0,-1
 712 658 l 5,1,-1
 777 658 l 5,2,-1
 777 587 l 5,3,-1
 712 587 l 5,0,-1
712 547 m 5,4,-1
 712 618 l 5,5,-1
 777 618 l 5,6,-1
 777 547 l 5,7,-1
 712 547 l 5,4,-1
712 507 m 5,8,-1
 712 578 l 5,9,-1
 777 578 l 5,10,-1
 777 507 l 5,11,-1
 712 507 l 5,8,-1
712 467 m 5,12,-1
 712 538 l 5,13,-1
 777 538 l 5,14,-1
 777 467 l 5,15,-1
 712 467 l 5,12,-1
447 587 m 5,16,-1
 447 661 l 5,17,-1
 742 661 l 5,18,-1
 742 587 l 5,19,-1
 447 587 l 5,16,-1
712 427 m 5,20,-1
 712 498 l 5,21,-1
 777 498 l 5,22,-1
 777 427 l 5,23,-1
 712 427 l 5,20,-1
712 387 m 5,24,-1
 712 458 l 5,25,-1
 777 458 l 5,26,-1
 777 387 l 5,27,-1
 712 387 l 5,24,-1
712 347 m 5,28,-1
 712 418 l 5,29,-1
 777 418 l 5,30,-1
 777 347 l 5,31,-1
 712 347 l 5,28,-1
712 307 m 5,32,-1
 712 378 l 5,33,-1
 777 378 l 5,34,-1
 777 307 l 5,35,-1
 712 307 l 5,32,-1
412 587 m 5,36,-1
 412 658 l 5,37,-1
 477 658 l 5,38,-1
 477 587 l 5,39,-1
 412 587 l 5,36,-1
712 267 m 5,40,-1
 712 338 l 5,41,-1
 777 338 l 5,42,-1
 777 267 l 5,43,-1
 712 267 l 5,40,-1
712 227 m 5,44,-1
 712 298 l 5,45,-1
 777 298 l 5,46,-1
 777 227 l 5,47,-1
 712 227 l 5,44,-1
712 187 m 5,48,-1
 712 258 l 5,49,-1
 777 258 l 5,50,-1
 777 187 l 5,51,-1
 712 187 l 5,48,-1
712 147 m 5,52,-1
 712 218 l 5,53,-1
 777 218 l 5,54,-1
 777 147 l 5,55,-1
 712 147 l 5,52,-1
147 587 m 5,56,-1
 147 661 l 5,57,-1
 442 661 l 5,58,-1
 442 587 l 5,59,-1
 147 587 l 5,56,-1
712 107 m 5,60,-1
 712 178 l 5,61,-1
 777 178 l 5,62,-1
 777 107 l 5,63,-1
 712 107 l 5,60,-1
712 67 m 5,64,-1
 712 138 l 5,65,-1
 777 138 l 5,66,-1
 777 67 l 5,67,-1
 712 67 l 5,64,-1
712 27 m 5,68,-1
 712 98 l 5,69,-1
 777 98 l 5,70,-1
 777 27 l 5,71,-1
 712 27 l 5,68,-1
112 587 m 5,72,-1
 112 658 l 5,73,-1
 177 658 l 5,74,-1
 177 587 l 5,75,-1
 112 587 l 5,72,-1
712 -13 m 5,76,-1
 712 58 l 5,77,-1
 777 58 l 5,78,-1
 777 -13 l 5,79,-1
 712 -13 l 5,76,-1
112 547 m 5,80,-1
 112 618 l 5,81,-1
 177 618 l 5,82,-1
 177 547 l 5,83,-1
 112 547 l 5,80,-1
112 507 m 5,84,-1
 112 578 l 5,85,-1
 177 578 l 5,86,-1
 177 507 l 5,87,-1
 112 507 l 5,84,-1
112 467 m 5,88,-1
 112 538 l 5,89,-1
 177 538 l 5,90,-1
 177 467 l 5,91,-1
 112 467 l 5,88,-1
447 -13 m 5,92,-1
 447 61 l 5,93,-1
 742 61 l 5,94,-1
 742 -13 l 5,95,-1
 447 -13 l 5,92,-1
112 427 m 5,96,-1
 112 498 l 5,97,-1
 177 498 l 5,98,-1
 177 427 l 5,99,-1
 112 427 l 5,96,-1
412 107 m 5,100,-1
 412 178 l 5,101,-1
 477 178 l 5,102,-1
 477 107 l 5,103,-1
 412 107 l 5,100,-1
112 387 m 5,104,-1
 112 458 l 5,105,-1
 177 458 l 5,106,-1
 177 387 l 5,107,-1
 112 387 l 5,104,-1
412 67 m 5,108,-1
 412 138 l 5,109,-1
 477 138 l 5,110,-1
 477 67 l 5,111,-1
 412 67 l 5,108,-1
112 347 m 5,112,-1
 112 418 l 5,113,-1
 177 418 l 5,114,-1
 177 347 l 5,115,-1
 112 347 l 5,112,-1
412 27 m 5,116,-1
 412 98 l 5,117,-1
 477 98 l 5,118,-1
 477 27 l 5,119,-1
 412 27 l 5,116,-1
112 307 m 5,120,-1
 112 378 l 5,121,-1
 177 378 l 5,122,-1
 177 307 l 5,123,-1
 112 307 l 5,120,-1
412 -13 m 5,124,-1
 412 58 l 5,125,-1
 477 58 l 5,126,-1
 477 -13 l 5,127,-1
 412 -13 l 5,124,-1
112 267 m 5,128,-1
 112 338 l 5,129,-1
 177 338 l 5,130,-1
 177 267 l 5,131,-1
 112 267 l 5,128,-1
112 227 m 5,132,-1
 112 298 l 5,133,-1
 177 298 l 5,134,-1
 177 227 l 5,135,-1
 112 227 l 5,132,-1
112 187 m 5,136,-1
 112 258 l 5,137,-1
 177 258 l 5,138,-1
 177 187 l 5,139,-1
 112 187 l 5,136,-1
112 147 m 5,140,-1
 112 218 l 5,141,-1
 177 218 l 5,142,-1
 177 147 l 5,143,-1
 112 147 l 5,140,-1
147 -13 m 5,144,-1
 147 61 l 5,145,-1
 442 61 l 5,146,-1
 442 -13 l 5,147,-1
 147 -13 l 5,144,-1
112 107 m 5,148,-1
 112 178 l 5,149,-1
 177 178 l 5,150,-1
 177 107 l 5,151,-1
 112 107 l 5,148,-1
112 67 m 5,152,-1
 112 138 l 5,153,-1
 177 138 l 5,154,-1
 177 67 l 5,155,-1
 112 67 l 5,152,-1
112 27 m 5,156,-1
 112 98 l 5,157,-1
 177 98 l 5,158,-1
 177 27 l 5,159,-1
 112 27 l 5,156,-1
112 -13 m 5,160,-1
 112 58 l 5,161,-1
 177 58 l 5,162,-1
 177 -13 l 5,163,-1
 112 -13 l 5,160,-1
EndSplineSet
Validated: 5
EndChar

StartChar: R
Encoding: 82 82 38
Width: 737
Flags: W
LayerCount: 2
Fore
SplineSet
712 587 m 1,0,-1
 712 658 l 1,1,-1
 777 658 l 1,2,-1
 777 587 l 1,3,-1
 712 587 l 1,0,-1
712 547 m 1,4,-1
 712 618 l 1,5,-1
 777 618 l 1,6,-1
 777 547 l 1,7,-1
 712 547 l 1,4,-1
712 507 m 1,8,-1
 712 578 l 1,9,-1
 777 578 l 1,10,-1
 777 507 l 1,11,-1
 712 507 l 1,8,-1
712 467 m 1,12,-1
 712 538 l 1,13,-1
 777 538 l 1,14,-1
 777 467 l 1,15,-1
 712 467 l 1,12,-1
447 587 m 1,16,-1
 447 661 l 1,17,-1
 742 661 l 1,18,-1
 742 587 l 1,19,-1
 447 587 l 1,16,-1
712 427 m 1,20,-1
 712 498 l 1,21,-1
 777 498 l 1,22,-1
 777 427 l 1,23,-1
 712 427 l 1,20,-1
712 387 m 1,24,-1
 712 458 l 1,25,-1
 777 458 l 1,26,-1
 777 387 l 1,27,-1
 712 387 l 1,24,-1
712 347 m 1,28,-1
 712 418 l 1,29,-1
 777 418 l 1,30,-1
 777 347 l 1,31,-1
 712 347 l 1,28,-1
412 587 m 1,32,-1
 412 658 l 1,33,-1
 477 658 l 1,34,-1
 477 587 l 1,35,-1
 412 587 l 1,32,-1
447 347 m 1,36,-1
 447 421 l 1,37,-1
 742 421 l 1,38,-1
 742 347 l 1,39,-1
 447 347 l 1,36,-1
147 587 m 1,40,-1
 147 661 l 1,41,-1
 442 661 l 1,42,-1
 442 587 l 1,43,-1
 147 587 l 1,40,-1
412 347 m 1,44,-1
 412 418 l 1,45,-1
 477 418 l 1,46,-1
 477 347 l 1,47,-1
 412 347 l 1,44,-1
412 307 m 1,48,-1
 412 378 l 1,49,-1
 477 378 l 1,50,-1
 477 307 l 1,51,-1
 412 307 l 1,48,-1
112 587 m 1,52,-1
 112 658 l 1,53,-1
 177 658 l 1,54,-1
 177 587 l 1,55,-1
 112 587 l 1,52,-1
412 267 m 1,56,-1
 412 338 l 1,57,-1
 477 338 l 1,58,-1
 477 267 l 1,59,-1
 412 267 l 1,56,-1
112 547 m 1,60,-1
 112 618 l 1,61,-1
 177 618 l 1,62,-1
 177 547 l 1,63,-1
 112 547 l 1,60,-1
412 227 m 1,64,-1
 412 298 l 1,65,-1
 477 298 l 1,66,-1
 477 227 l 1,67,-1
 412 227 l 1,64,-1
112 507 m 1,68,-1
 112 578 l 1,69,-1
 177 578 l 1,70,-1
 177 507 l 1,71,-1
 112 507 l 1,68,-1
147 347 m 1,72,-1
 147 421 l 1,73,-1
 442 421 l 1,74,-1
 442 347 l 1,75,-1
 147 347 l 1,72,-1
412 187 m 1,76,-1
 412 258 l 1,77,-1
 477 258 l 1,78,-1
 477 187 l 1,79,-1
 412 187 l 1,76,-1
112 467 m 1,80,-1
 112 538 l 1,81,-1
 177 538 l 1,82,-1
 177 467 l 1,83,-1
 112 467 l 1,80,-1
412 147 m 1,84,-1
 412 218 l 1,85,-1
 477 218 l 1,86,-1
 477 147 l 1,87,-1
 412 147 l 1,84,-1
112 427 m 1,88,-1
 112 498 l 1,89,-1
 177 498 l 1,90,-1
 177 427 l 1,91,-1
 112 427 l 1,88,-1
412 107 m 1,92,-1
 412 178 l 1,93,-1
 477 178 l 1,94,-1
 477 107 l 1,95,-1
 412 107 l 1,92,-1
112 387 m 1,96,-1
 112 458 l 1,97,-1
 177 458 l 1,98,-1
 177 387 l 1,99,-1
 112 387 l 1,96,-1
412 67 m 1,100,-1
 412 138 l 1,101,-1
 477 138 l 1,102,-1
 477 67 l 1,103,-1
 412 67 l 1,100,-1
112 347 m 1,104,-1
 112 418 l 1,105,-1
 177 418 l 1,106,-1
 177 347 l 1,107,-1
 112 347 l 1,104,-1
412 27 m 1,108,-1
 412 98 l 1,109,-1
 477 98 l 1,110,-1
 477 27 l 1,111,-1
 412 27 l 1,108,-1
112 307 m 1,112,-1
 112 378 l 1,113,-1
 177 378 l 1,114,-1
 177 307 l 1,115,-1
 112 307 l 1,112,-1
412 -13 m 1,116,-1
 412 58 l 1,117,-1
 477 58 l 1,118,-1
 477 -13 l 1,119,-1
 412 -13 l 1,116,-1
112 267 m 1,120,-1
 112 338 l 1,121,-1
 177 338 l 1,122,-1
 177 267 l 1,123,-1
 112 267 l 1,120,-1
112 227 m 1,124,-1
 112 298 l 1,125,-1
 177 298 l 1,126,-1
 177 227 l 1,127,-1
 112 227 l 1,124,-1
112 187 m 1,128,-1
 112 258 l 1,129,-1
 177 258 l 1,130,-1
 177 187 l 1,131,-1
 112 187 l 1,128,-1
112 147 m 1,132,-1
 112 218 l 1,133,-1
 177 218 l 1,134,-1
 177 147 l 1,135,-1
 112 147 l 1,132,-1
112 107 m 1,136,-1
 112 178 l 1,137,-1
 177 178 l 1,138,-1
 177 107 l 1,139,-1
 112 107 l 1,136,-1
112 67 m 1,140,-1
 112 138 l 1,141,-1
 177 138 l 1,142,-1
 177 67 l 1,143,-1
 112 67 l 1,140,-1
112 27 m 1,144,-1
 112 98 l 1,145,-1
 177 98 l 1,146,-1
 177 27 l 1,147,-1
 112 27 l 1,144,-1
112 -13 m 1,148,-1
 112 58 l 1,149,-1
 177 58 l 1,150,-1
 177 -13 l 1,151,-1
 112 -13 l 1,148,-1
EndSplineSet
Validated: 5
EndChar

StartChar: S
Encoding: 83 83 39
Width: 767
Flags: W
LayerCount: 2
Fore
SplineSet
712 587 m 1,0,-1
 712 658 l 1,1,-1
 777 658 l 1,2,-1
 777 587 l 1,3,-1
 712 587 l 1,0,-1
447 587 m 1,4,-1
 447 661 l 1,5,-1
 742 661 l 1,6,-1
 742 587 l 1,7,-1
 447 587 l 1,4,-1
712 307 m 1,8,-1
 712 378 l 1,9,-1
 777 378 l 1,10,-1
 777 307 l 1,11,-1
 712 307 l 1,8,-1
412 587 m 1,12,-1
 412 658 l 1,13,-1
 477 658 l 1,14,-1
 477 587 l 1,15,-1
 412 587 l 1,12,-1
712 267 m 1,16,-1
 712 338 l 1,17,-1
 777 338 l 1,18,-1
 777 267 l 1,19,-1
 712 267 l 1,16,-1
712 227 m 1,20,-1
 712 298 l 1,21,-1
 777 298 l 1,22,-1
 777 227 l 1,23,-1
 712 227 l 1,20,-1
712 187 m 1,24,-1
 712 258 l 1,25,-1
 777 258 l 1,26,-1
 777 187 l 1,27,-1
 712 187 l 1,24,-1
447 307 m 1,28,-1
 447 381 l 1,29,-1
 742 381 l 1,30,-1
 742 307 l 1,31,-1
 447 307 l 1,28,-1
712 147 m 1,32,-1
 712 218 l 1,33,-1
 777 218 l 1,34,-1
 777 147 l 1,35,-1
 712 147 l 1,32,-1
147 587 m 1,36,-1
 147 661 l 1,37,-1
 442 661 l 1,38,-1
 442 587 l 1,39,-1
 147 587 l 1,36,-1
712 107 m 1,40,-1
 712 178 l 1,41,-1
 777 178 l 1,42,-1
 777 107 l 1,43,-1
 712 107 l 1,40,-1
712 67 m 1,44,-1
 712 138 l 1,45,-1
 777 138 l 1,46,-1
 777 67 l 1,47,-1
 712 67 l 1,44,-1
712 27 m 1,48,-1
 712 98 l 1,49,-1
 777 98 l 1,50,-1
 777 27 l 1,51,-1
 712 27 l 1,48,-1
412 307 m 1,52,-1
 412 378 l 1,53,-1
 477 378 l 1,54,-1
 477 307 l 1,55,-1
 412 307 l 1,52,-1
112 587 m 1,56,-1
 112 658 l 1,57,-1
 177 658 l 1,58,-1
 177 587 l 1,59,-1
 112 587 l 1,56,-1
712 -13 m 1,60,-1
 712 58 l 1,61,-1
 777 58 l 1,62,-1
 777 -13 l 1,63,-1
 712 -13 l 1,60,-1
112 547 m 1,64,-1
 112 618 l 1,65,-1
 177 618 l 1,66,-1
 177 547 l 1,67,-1
 112 547 l 1,64,-1
112 507 m 1,68,-1
 112 578 l 1,69,-1
 177 578 l 1,70,-1
 177 507 l 1,71,-1
 112 507 l 1,68,-1
112 467 m 1,72,-1
 112 538 l 1,73,-1
 177 538 l 1,74,-1
 177 467 l 1,75,-1
 112 467 l 1,72,-1
147 307 m 1,76,-1
 147 381 l 1,77,-1
 442 381 l 1,78,-1
 442 307 l 1,79,-1
 147 307 l 1,76,-1
447 -13 m 1,80,-1
 447 61 l 1,81,-1
 742 61 l 1,82,-1
 742 -13 l 1,83,-1
 447 -13 l 1,80,-1
112 427 m 1,84,-1
 112 498 l 1,85,-1
 177 498 l 1,86,-1
 177 427 l 1,87,-1
 112 427 l 1,84,-1
112 387 m 1,88,-1
 112 458 l 1,89,-1
 177 458 l 1,90,-1
 177 387 l 1,91,-1
 112 387 l 1,88,-1
112 347 m 1,92,-1
 112 418 l 1,93,-1
 177 418 l 1,94,-1
 177 347 l 1,95,-1
 112 347 l 1,92,-1
112 307 m 1,96,-1
 112 378 l 1,97,-1
 177 378 l 1,98,-1
 177 307 l 1,99,-1
 112 307 l 1,96,-1
412 -13 m 1,100,-1
 412 58 l 1,101,-1
 477 58 l 1,102,-1
 477 -13 l 1,103,-1
 412 -13 l 1,100,-1
147 -13 m 1,104,-1
 147 61 l 1,105,-1
 442 61 l 1,106,-1
 442 -13 l 1,107,-1
 147 -13 l 1,104,-1
112 -13 m 1,108,-1
 112 58 l 1,109,-1
 177 58 l 1,110,-1
 177 -13 l 1,111,-1
 112 -13 l 1,108,-1
EndSplineSet
Validated: 5
EndChar

StartChar: T
Encoding: 84 84 40
Width: 725
Flags: W
LayerCount: 2
Fore
SplineSet
712 587 m 1,0,-1
 712 658 l 1,1,-1
 777 658 l 1,2,-1
 777 587 l 1,3,-1
 712 587 l 1,0,-1
447 587 m 1,4,-1
 447 661 l 1,5,-1
 742 661 l 1,6,-1
 742 587 l 1,7,-1
 447 587 l 1,4,-1
412 587 m 1,8,-1
 412 658 l 1,9,-1
 477 658 l 1,10,-1
 477 587 l 1,11,-1
 412 587 l 1,8,-1
412 547 m 1,12,-1
 412 618 l 1,13,-1
 477 618 l 1,14,-1
 477 547 l 1,15,-1
 412 547 l 1,12,-1
412 507 m 1,16,-1
 412 578 l 1,17,-1
 477 578 l 1,18,-1
 477 507 l 1,19,-1
 412 507 l 1,16,-1
412 467 m 1,20,-1
 412 538 l 1,21,-1
 477 538 l 1,22,-1
 477 467 l 1,23,-1
 412 467 l 1,20,-1
147 587 m 1,24,-1
 147 661 l 1,25,-1
 442 661 l 1,26,-1
 442 587 l 1,27,-1
 147 587 l 1,24,-1
412 427 m 1,28,-1
 412 498 l 1,29,-1
 477 498 l 1,30,-1
 477 427 l 1,31,-1
 412 427 l 1,28,-1
412 387 m 1,32,-1
 412 458 l 1,33,-1
 477 458 l 1,34,-1
 477 387 l 1,35,-1
 412 387 l 1,32,-1
412 347 m 1,36,-1
 412 418 l 1,37,-1
 477 418 l 1,38,-1
 477 347 l 1,39,-1
 412 347 l 1,36,-1
412 307 m 1,40,-1
 412 378 l 1,41,-1
 477 378 l 1,42,-1
 477 307 l 1,43,-1
 412 307 l 1,40,-1
112 587 m 1,44,-1
 112 658 l 1,45,-1
 177 658 l 1,46,-1
 177 587 l 1,47,-1
 112 587 l 1,44,-1
412 267 m 1,48,-1
 412 338 l 1,49,-1
 477 338 l 1,50,-1
 477 267 l 1,51,-1
 412 267 l 1,48,-1
412 227 m 1,52,-1
 412 298 l 1,53,-1
 477 298 l 1,54,-1
 477 227 l 1,55,-1
 412 227 l 1,52,-1
412 187 m 1,56,-1
 412 258 l 1,57,-1
 477 258 l 1,58,-1
 477 187 l 1,59,-1
 412 187 l 1,56,-1
412 147 m 1,60,-1
 412 218 l 1,61,-1
 477 218 l 1,62,-1
 477 147 l 1,63,-1
 412 147 l 1,60,-1
412 107 m 1,64,-1
 412 178 l 1,65,-1
 477 178 l 1,66,-1
 477 107 l 1,67,-1
 412 107 l 1,64,-1
412 67 m 1,68,-1
 412 138 l 1,69,-1
 477 138 l 1,70,-1
 477 67 l 1,71,-1
 412 67 l 1,68,-1
412 27 m 1,72,-1
 412 98 l 1,73,-1
 477 98 l 1,74,-1
 477 27 l 1,75,-1
 412 27 l 1,72,-1
412 -13 m 1,76,-1
 412 58 l 1,77,-1
 477 58 l 1,78,-1
 477 -13 l 1,79,-1
 412 -13 l 1,76,-1
EndSplineSet
Validated: 5
EndChar

StartChar: U
Encoding: 85 85 41
Width: 768
Flags: W
LayerCount: 2
Fore
SplineSet
712 587 m 1,0,-1
 712 658 l 1,1,-1
 777 658 l 1,2,-1
 777 587 l 1,3,-1
 712 587 l 1,0,-1
712 547 m 1,4,-1
 712 618 l 1,5,-1
 777 618 l 1,6,-1
 777 547 l 1,7,-1
 712 547 l 1,4,-1
712 507 m 1,8,-1
 712 578 l 1,9,-1
 777 578 l 1,10,-1
 777 507 l 1,11,-1
 712 507 l 1,8,-1
712 467 m 1,12,-1
 712 538 l 1,13,-1
 777 538 l 1,14,-1
 777 467 l 1,15,-1
 712 467 l 1,12,-1
712 427 m 1,16,-1
 712 498 l 1,17,-1
 777 498 l 1,18,-1
 777 427 l 1,19,-1
 712 427 l 1,16,-1
712 387 m 1,20,-1
 712 458 l 1,21,-1
 777 458 l 1,22,-1
 777 387 l 1,23,-1
 712 387 l 1,20,-1
712 347 m 1,24,-1
 712 418 l 1,25,-1
 777 418 l 1,26,-1
 777 347 l 1,27,-1
 712 347 l 1,24,-1
712 307 m 1,28,-1
 712 378 l 1,29,-1
 777 378 l 1,30,-1
 777 307 l 1,31,-1
 712 307 l 1,28,-1
712 267 m 1,32,-1
 712 338 l 1,33,-1
 777 338 l 1,34,-1
 777 267 l 1,35,-1
 712 267 l 1,32,-1
712 227 m 1,36,-1
 712 298 l 1,37,-1
 777 298 l 1,38,-1
 777 227 l 1,39,-1
 712 227 l 1,36,-1
712 187 m 1,40,-1
 712 258 l 1,41,-1
 777 258 l 1,42,-1
 777 187 l 1,43,-1
 712 187 l 1,40,-1
712 147 m 1,44,-1
 712 218 l 1,45,-1
 777 218 l 1,46,-1
 777 147 l 1,47,-1
 712 147 l 1,44,-1
712 107 m 1,48,-1
 712 178 l 1,49,-1
 777 178 l 1,50,-1
 777 107 l 1,51,-1
 712 107 l 1,48,-1
712 67 m 1,52,-1
 712 138 l 1,53,-1
 777 138 l 1,54,-1
 777 67 l 1,55,-1
 712 67 l 1,52,-1
712 27 m 1,56,-1
 712 98 l 1,57,-1
 777 98 l 1,58,-1
 777 27 l 1,59,-1
 712 27 l 1,56,-1
112 587 m 1,60,-1
 112 658 l 1,61,-1
 177 658 l 1,62,-1
 177 587 l 1,63,-1
 112 587 l 1,60,-1
712 -13 m 1,64,-1
 712 58 l 1,65,-1
 777 58 l 1,66,-1
 777 -13 l 1,67,-1
 712 -13 l 1,64,-1
112 547 m 1,68,-1
 112 618 l 1,69,-1
 177 618 l 1,70,-1
 177 547 l 1,71,-1
 112 547 l 1,68,-1
112 507 m 1,72,-1
 112 578 l 1,73,-1
 177 578 l 1,74,-1
 177 507 l 1,75,-1
 112 507 l 1,72,-1
112 467 m 1,76,-1
 112 538 l 1,77,-1
 177 538 l 1,78,-1
 177 467 l 1,79,-1
 112 467 l 1,76,-1
447 -13 m 1,80,-1
 447 61 l 1,81,-1
 742 61 l 1,82,-1
 742 -13 l 1,83,-1
 447 -13 l 1,80,-1
112 427 m 1,84,-1
 112 498 l 1,85,-1
 177 498 l 1,86,-1
 177 427 l 1,87,-1
 112 427 l 1,84,-1
112 387 m 1,88,-1
 112 458 l 1,89,-1
 177 458 l 1,90,-1
 177 387 l 1,91,-1
 112 387 l 1,88,-1
112 347 m 1,92,-1
 112 418 l 1,93,-1
 177 418 l 1,94,-1
 177 347 l 1,95,-1
 112 347 l 1,92,-1
112 307 m 1,96,-1
 112 378 l 1,97,-1
 177 378 l 1,98,-1
 177 307 l 1,99,-1
 112 307 l 1,96,-1
412 -13 m 1,100,-1
 412 58 l 1,101,-1
 477 58 l 1,102,-1
 477 -13 l 1,103,-1
 412 -13 l 1,100,-1
112 267 m 1,104,-1
 112 338 l 1,105,-1
 177 338 l 1,106,-1
 177 267 l 1,107,-1
 112 267 l 1,104,-1
112 227 m 1,108,-1
 112 298 l 1,109,-1
 177 298 l 1,110,-1
 177 227 l 1,111,-1
 112 227 l 1,108,-1
112 187 m 1,112,-1
 112 258 l 1,113,-1
 177 258 l 1,114,-1
 177 187 l 1,115,-1
 112 187 l 1,112,-1
112 147 m 1,116,-1
 112 218 l 1,117,-1
 177 218 l 1,118,-1
 177 147 l 1,119,-1
 112 147 l 1,116,-1
147 -13 m 1,120,-1
 147 61 l 1,121,-1
 442 61 l 1,122,-1
 442 -13 l 1,123,-1
 147 -13 l 1,120,-1
112 107 m 1,124,-1
 112 178 l 1,125,-1
 177 178 l 1,126,-1
 177 107 l 1,127,-1
 112 107 l 1,124,-1
112 67 m 1,128,-1
 112 138 l 1,129,-1
 177 138 l 1,130,-1
 177 67 l 1,131,-1
 112 67 l 1,128,-1
112 27 m 1,132,-1
 112 98 l 1,133,-1
 177 98 l 1,134,-1
 177 27 l 1,135,-1
 112 27 l 1,132,-1
EndSplineSet
Validated: 5
EndChar

StartChar: V
Encoding: 86 86 42
Width: 765
Flags: W
LayerCount: 2
Fore
SplineSet
712 587 m 1,0,-1
 712 658 l 1,1,-1
 777 658 l 1,2,-1
 777 587 l 1,3,-1
 712 587 l 1,0,-1
712 547 m 1,4,-1
 712 618 l 1,5,-1
 777 618 l 1,6,-1
 777 547 l 1,7,-1
 712 547 l 1,4,-1
712 507 m 1,8,-1
 712 578 l 1,9,-1
 777 578 l 1,10,-1
 777 507 l 1,11,-1
 712 507 l 1,8,-1
712 467 m 1,12,-1
 712 538 l 1,13,-1
 777 538 l 1,14,-1
 777 467 l 1,15,-1
 712 467 l 1,12,-1
712 427 m 1,16,-1
 712 498 l 1,17,-1
 777 498 l 1,18,-1
 777 427 l 1,19,-1
 712 427 l 1,16,-1
712 387 m 1,20,-1
 712 458 l 1,21,-1
 777 458 l 1,22,-1
 777 387 l 1,23,-1
 712 387 l 1,20,-1
712 347 m 1,24,-1
 712 418 l 1,25,-1
 777 418 l 1,26,-1
 777 347 l 1,27,-1
 712 347 l 1,24,-1
712 307 m 1,28,-1
 712 378 l 1,29,-1
 777 378 l 1,30,-1
 777 307 l 1,31,-1
 712 307 l 1,28,-1
712 267 m 1,32,-1
 712 338 l 1,33,-1
 777 338 l 1,34,-1
 777 267 l 1,35,-1
 712 267 l 1,32,-1
712 227 m 1,36,-1
 712 298 l 1,37,-1
 777 298 l 1,38,-1
 777 227 l 1,39,-1
 712 227 l 1,36,-1
712 187 m 1,40,-1
 712 258 l 1,41,-1
 777 258 l 1,42,-1
 777 187 l 1,43,-1
 712 187 l 1,40,-1
712 147 m 1,44,-1
 712 218 l 1,45,-1
 777 218 l 1,46,-1
 777 147 l 1,47,-1
 712 147 l 1,44,-1
712 107 m 1,48,-1
 712 178 l 1,49,-1
 777 178 l 1,50,-1
 777 107 l 1,51,-1
 712 107 l 1,48,-1
712 67 m 1,52,-1
 712 138 l 1,53,-1
 777 138 l 1,54,-1
 777 67 l 1,55,-1
 712 67 l 1,52,-1
712 27 m 1,56,-1
 712 98 l 1,57,-1
 777 98 l 1,58,-1
 777 27 l 1,59,-1
 712 27 l 1,56,-1
112 587 m 1,60,-1
 112 658 l 1,61,-1
 177 658 l 1,62,-1
 177 587 l 1,63,-1
 112 587 l 1,60,-1
112 547 m 1,64,-1
 112 618 l 1,65,-1
 177 618 l 1,66,-1
 177 547 l 1,67,-1
 112 547 l 1,64,-1
112 507 m 1,68,-1
 112 578 l 1,69,-1
 177 578 l 1,70,-1
 177 507 l 1,71,-1
 112 507 l 1,68,-1
447 27 m 1,72,-1
 447 101 l 1,73,-1
 742 101 l 1,74,-1
 742 27 l 1,75,-1
 447 27 l 1,72,-1
112 467 m 1,76,-1
 112 538 l 1,77,-1
 177 538 l 1,78,-1
 177 467 l 1,79,-1
 112 467 l 1,76,-1
112 427 m 1,80,-1
 112 498 l 1,81,-1
 177 498 l 1,82,-1
 177 427 l 1,83,-1
 112 427 l 1,80,-1
112 387 m 1,84,-1
 112 458 l 1,85,-1
 177 458 l 1,86,-1
 177 387 l 1,87,-1
 112 387 l 1,84,-1
112 347 m 1,88,-1
 112 418 l 1,89,-1
 177 418 l 1,90,-1
 177 347 l 1,91,-1
 112 347 l 1,88,-1
412 27 m 1,92,-1
 412 98 l 1,93,-1
 477 98 l 1,94,-1
 477 27 l 1,95,-1
 412 27 l 1,92,-1
112 307 m 1,96,-1
 112 378 l 1,97,-1
 177 378 l 1,98,-1
 177 307 l 1,99,-1
 112 307 l 1,96,-1
412 -13 m 1,100,-1
 412 58 l 1,101,-1
 477 58 l 1,102,-1
 477 -13 l 1,103,-1
 412 -13 l 1,100,-1
112 267 m 1,104,-1
 112 338 l 1,105,-1
 177 338 l 1,106,-1
 177 267 l 1,107,-1
 112 267 l 1,104,-1
112 227 m 1,108,-1
 112 298 l 1,109,-1
 177 298 l 1,110,-1
 177 227 l 1,111,-1
 112 227 l 1,108,-1
112 187 m 1,112,-1
 112 258 l 1,113,-1
 177 258 l 1,114,-1
 177 187 l 1,115,-1
 112 187 l 1,112,-1
147 27 m 1,116,-1
 147 101 l 1,117,-1
 442 101 l 1,118,-1
 442 27 l 1,119,-1
 147 27 l 1,116,-1
112 147 m 1,120,-1
 112 218 l 1,121,-1
 177 218 l 1,122,-1
 177 147 l 1,123,-1
 112 147 l 1,120,-1
112 107 m 1,124,-1
 112 178 l 1,125,-1
 177 178 l 1,126,-1
 177 107 l 1,127,-1
 112 107 l 1,124,-1
112 67 m 1,128,-1
 112 138 l 1,129,-1
 177 138 l 1,130,-1
 177 67 l 1,131,-1
 112 67 l 1,128,-1
112 27 m 1,132,-1
 112 98 l 1,133,-1
 177 98 l 1,134,-1
 177 27 l 1,135,-1
 112 27 l 1,132,-1
EndSplineSet
Validated: 5
EndChar

StartChar: W
Encoding: 87 87 43
Width: 767
Flags: W
LayerCount: 2
Fore
SplineSet
712 587 m 1,0,-1
 712 658 l 1,1,-1
 777 658 l 1,2,-1
 777 587 l 1,3,-1
 712 587 l 1,0,-1
712 547 m 1,4,-1
 712 618 l 1,5,-1
 777 618 l 1,6,-1
 777 547 l 1,7,-1
 712 547 l 1,4,-1
712 507 m 1,8,-1
 712 578 l 1,9,-1
 777 578 l 1,10,-1
 777 507 l 1,11,-1
 712 507 l 1,8,-1
712 467 m 1,12,-1
 712 538 l 1,13,-1
 777 538 l 1,14,-1
 777 467 l 1,15,-1
 712 467 l 1,12,-1
712 427 m 1,16,-1
 712 498 l 1,17,-1
 777 498 l 1,18,-1
 777 427 l 1,19,-1
 712 427 l 1,16,-1
712 387 m 1,20,-1
 712 458 l 1,21,-1
 777 458 l 1,22,-1
 777 387 l 1,23,-1
 712 387 l 1,20,-1
712 347 m 1,24,-1
 712 418 l 1,25,-1
 777 418 l 1,26,-1
 777 347 l 1,27,-1
 712 347 l 1,24,-1
712 307 m 1,28,-1
 712 378 l 1,29,-1
 777 378 l 1,30,-1
 777 307 l 1,31,-1
 712 307 l 1,28,-1
412 587 m 1,32,-1
 412 658 l 1,33,-1
 477 658 l 1,34,-1
 477 587 l 1,35,-1
 412 587 l 1,32,-1
712 267 m 1,36,-1
 712 338 l 1,37,-1
 777 338 l 1,38,-1
 777 267 l 1,39,-1
 712 267 l 1,36,-1
412 547 m 1,40,-1
 412 618 l 1,41,-1
 477 618 l 1,42,-1
 477 547 l 1,43,-1
 412 547 l 1,40,-1
712 227 m 1,44,-1
 712 298 l 1,45,-1
 777 298 l 1,46,-1
 777 227 l 1,47,-1
 712 227 l 1,44,-1
412 507 m 1,48,-1
 412 578 l 1,49,-1
 477 578 l 1,50,-1
 477 507 l 1,51,-1
 412 507 l 1,48,-1
712 187 m 1,52,-1
 712 258 l 1,53,-1
 777 258 l 1,54,-1
 777 187 l 1,55,-1
 712 187 l 1,52,-1
412 467 m 1,56,-1
 412 538 l 1,57,-1
 477 538 l 1,58,-1
 477 467 l 1,59,-1
 412 467 l 1,56,-1
712 147 m 1,60,-1
 712 218 l 1,61,-1
 777 218 l 1,62,-1
 777 147 l 1,63,-1
 712 147 l 1,60,-1
412 427 m 1,64,-1
 412 498 l 1,65,-1
 477 498 l 1,66,-1
 477 427 l 1,67,-1
 412 427 l 1,64,-1
712 107 m 1,68,-1
 712 178 l 1,69,-1
 777 178 l 1,70,-1
 777 107 l 1,71,-1
 712 107 l 1,68,-1
412 387 m 1,72,-1
 412 458 l 1,73,-1
 477 458 l 1,74,-1
 477 387 l 1,75,-1
 412 387 l 1,72,-1
712 67 m 1,76,-1
 712 138 l 1,77,-1
 777 138 l 1,78,-1
 777 67 l 1,79,-1
 712 67 l 1,76,-1
412 347 m 1,80,-1
 412 418 l 1,81,-1
 477 418 l 1,82,-1
 477 347 l 1,83,-1
 412 347 l 1,80,-1
712 27 m 1,84,-1
 712 98 l 1,85,-1
 777 98 l 1,86,-1
 777 27 l 1,87,-1
 712 27 l 1,84,-1
412 307 m 1,88,-1
 412 378 l 1,89,-1
 477 378 l 1,90,-1
 477 307 l 1,91,-1
 412 307 l 1,88,-1
112 587 m 1,92,-1
 112 658 l 1,93,-1
 177 658 l 1,94,-1
 177 587 l 1,95,-1
 112 587 l 1,92,-1
412 267 m 1,96,-1
 412 338 l 1,97,-1
 477 338 l 1,98,-1
 477 267 l 1,99,-1
 412 267 l 1,96,-1
112 547 m 1,100,-1
 112 618 l 1,101,-1
 177 618 l 1,102,-1
 177 547 l 1,103,-1
 112 547 l 1,100,-1
412 227 m 1,104,-1
 412 298 l 1,105,-1
 477 298 l 1,106,-1
 477 227 l 1,107,-1
 412 227 l 1,104,-1
112 507 m 1,108,-1
 112 578 l 1,109,-1
 177 578 l 1,110,-1
 177 507 l 1,111,-1
 112 507 l 1,108,-1
412 187 m 1,112,-1
 412 258 l 1,113,-1
 477 258 l 1,114,-1
 477 187 l 1,115,-1
 412 187 l 1,112,-1
112 467 m 1,116,-1
 112 538 l 1,117,-1
 177 538 l 1,118,-1
 177 467 l 1,119,-1
 112 467 l 1,116,-1
412 147 m 1,120,-1
 412 218 l 1,121,-1
 477 218 l 1,122,-1
 477 147 l 1,123,-1
 412 147 l 1,120,-1
447 -13 m 1,124,-1
 447 61 l 1,125,-1
 742 61 l 1,126,-1
 742 -13 l 1,127,-1
 447 -13 l 1,124,-1
112 427 m 1,128,-1
 112 498 l 1,129,-1
 177 498 l 1,130,-1
 177 427 l 1,131,-1
 112 427 l 1,128,-1
412 107 m 1,132,-1
 412 178 l 1,133,-1
 477 178 l 1,134,-1
 477 107 l 1,135,-1
 412 107 l 1,132,-1
112 387 m 1,136,-1
 112 458 l 1,137,-1
 177 458 l 1,138,-1
 177 387 l 1,139,-1
 112 387 l 1,136,-1
412 67 m 1,140,-1
 412 138 l 1,141,-1
 477 138 l 1,142,-1
 477 67 l 1,143,-1
 412 67 l 1,140,-1
112 347 m 1,144,-1
 112 418 l 1,145,-1
 177 418 l 1,146,-1
 177 347 l 1,147,-1
 112 347 l 1,144,-1
412 27 m 1,148,-1
 412 98 l 1,149,-1
 477 98 l 1,150,-1
 477 27 l 1,151,-1
 412 27 l 1,148,-1
112 307 m 1,152,-1
 112 378 l 1,153,-1
 177 378 l 1,154,-1
 177 307 l 1,155,-1
 112 307 l 1,152,-1
412 -13 m 1,156,-1
 412 58 l 1,157,-1
 477 58 l 1,158,-1
 477 -13 l 1,159,-1
 412 -13 l 1,156,-1
112 267 m 1,160,-1
 112 338 l 1,161,-1
 177 338 l 1,162,-1
 177 267 l 1,163,-1
 112 267 l 1,160,-1
112 227 m 1,164,-1
 112 298 l 1,165,-1
 177 298 l 1,166,-1
 177 227 l 1,167,-1
 112 227 l 1,164,-1
112 187 m 1,168,-1
 112 258 l 1,169,-1
 177 258 l 1,170,-1
 177 187 l 1,171,-1
 112 187 l 1,168,-1
112 147 m 1,172,-1
 112 218 l 1,173,-1
 177 218 l 1,174,-1
 177 147 l 1,175,-1
 112 147 l 1,172,-1
147 -13 m 1,176,-1
 147 61 l 1,177,-1
 442 61 l 1,178,-1
 442 -13 l 1,179,-1
 147 -13 l 1,176,-1
112 107 m 1,180,-1
 112 178 l 1,181,-1
 177 178 l 1,182,-1
 177 107 l 1,183,-1
 112 107 l 1,180,-1
112 67 m 1,184,-1
 112 138 l 1,185,-1
 177 138 l 1,186,-1
 177 67 l 1,187,-1
 112 67 l 1,184,-1
112 27 m 1,188,-1
 112 98 l 1,189,-1
 177 98 l 1,190,-1
 177 27 l 1,191,-1
 112 27 l 1,188,-1
EndSplineSet
Validated: 5
EndChar

StartChar: X
Encoding: 88 88 44
Width: 739
Flags: W
LayerCount: 2
Fore
SplineSet
712 587 m 1,0,-1
 712 658 l 1,1,-1
 777 658 l 1,2,-1
 777 587 l 1,3,-1
 712 587 l 1,0,-1
712 547 m 1,4,-1
 712 618 l 1,5,-1
 777 618 l 1,6,-1
 777 547 l 1,7,-1
 712 547 l 1,4,-1
712 507 m 1,8,-1
 712 578 l 1,9,-1
 777 578 l 1,10,-1
 777 507 l 1,11,-1
 712 507 l 1,8,-1
447 507 m 1,12,-1
 447 581 l 1,13,-1
 742 581 l 1,14,-1
 742 507 l 1,15,-1
 447 507 l 1,12,-1
412 507 m 1,16,-1
 412 578 l 1,17,-1
 477 578 l 1,18,-1
 477 507 l 1,19,-1
 412 507 l 1,16,-1
412 467 m 1,20,-1
 412 538 l 1,21,-1
 477 538 l 1,22,-1
 477 467 l 1,23,-1
 412 467 l 1,20,-1
412 427 m 1,24,-1
 412 498 l 1,25,-1
 477 498 l 1,26,-1
 477 427 l 1,27,-1
 412 427 l 1,24,-1
712 107 m 1,28,-1
 712 178 l 1,29,-1
 777 178 l 1,30,-1
 777 107 l 1,31,-1
 712 107 l 1,28,-1
412 387 m 1,32,-1
 412 458 l 1,33,-1
 477 458 l 1,34,-1
 477 387 l 1,35,-1
 412 387 l 1,32,-1
712 67 m 1,36,-1
 712 138 l 1,37,-1
 777 138 l 1,38,-1
 777 67 l 1,39,-1
 712 67 l 1,36,-1
147 507 m 1,40,-1
 147 581 l 1,41,-1
 442 581 l 1,42,-1
 442 507 l 1,43,-1
 147 507 l 1,40,-1
412 347 m 1,44,-1
 412 418 l 1,45,-1
 477 418 l 1,46,-1
 477 347 l 1,47,-1
 412 347 l 1,44,-1
712 27 m 1,48,-1
 712 98 l 1,49,-1
 777 98 l 1,50,-1
 777 27 l 1,51,-1
 712 27 l 1,48,-1
412 307 m 1,52,-1
 412 378 l 1,53,-1
 477 378 l 1,54,-1
 477 307 l 1,55,-1
 412 307 l 1,52,-1
112 587 m 1,56,-1
 112 658 l 1,57,-1
 177 658 l 1,58,-1
 177 587 l 1,59,-1
 112 587 l 1,56,-1
712 -13 m 1,60,-1
 712 58 l 1,61,-1
 777 58 l 1,62,-1
 777 -13 l 1,63,-1
 712 -13 l 1,60,-1
412 267 m 1,64,-1
 412 338 l 1,65,-1
 477 338 l 1,66,-1
 477 267 l 1,67,-1
 412 267 l 1,64,-1
447 107 m 1,68,-1
 447 181 l 1,69,-1
 742 181 l 1,70,-1
 742 107 l 1,71,-1
 447 107 l 1,68,-1
112 547 m 1,72,-1
 112 618 l 1,73,-1
 177 618 l 1,74,-1
 177 547 l 1,75,-1
 112 547 l 1,72,-1
412 227 m 1,76,-1
 412 298 l 1,77,-1
 477 298 l 1,78,-1
 477 227 l 1,79,-1
 412 227 l 1,76,-1
112 507 m 1,80,-1
 112 578 l 1,81,-1
 177 578 l 1,82,-1
 177 507 l 1,83,-1
 112 507 l 1,80,-1
412 187 m 1,84,-1
 412 258 l 1,85,-1
 477 258 l 1,86,-1
 477 187 l 1,87,-1
 412 187 l 1,84,-1
412 147 m 1,88,-1
 412 218 l 1,89,-1
 477 218 l 1,90,-1
 477 147 l 1,91,-1
 412 147 l 1,88,-1
412 107 m 1,92,-1
 412 178 l 1,93,-1
 477 178 l 1,94,-1
 477 107 l 1,95,-1
 412 107 l 1,92,-1
147 107 m 1,96,-1
 147 181 l 1,97,-1
 442 181 l 1,98,-1
 442 107 l 1,99,-1
 147 107 l 1,96,-1
112 107 m 1,100,-1
 112 178 l 1,101,-1
 177 178 l 1,102,-1
 177 107 l 1,103,-1
 112 107 l 1,100,-1
112 67 m 1,104,-1
 112 138 l 1,105,-1
 177 138 l 1,106,-1
 177 67 l 1,107,-1
 112 67 l 1,104,-1
112 27 m 1,108,-1
 112 98 l 1,109,-1
 177 98 l 1,110,-1
 177 27 l 1,111,-1
 112 27 l 1,108,-1
112 -13 m 1,112,-1
 112 58 l 1,113,-1
 177 58 l 1,114,-1
 177 -13 l 1,115,-1
 112 -13 l 1,112,-1
EndSplineSet
Validated: 5
EndChar

StartChar: Y
Encoding: 89 89 45
Width: 767
Flags: W
LayerCount: 2
Fore
SplineSet
712 587 m 1,0,-1
 712 658 l 1,1,-1
 777 658 l 1,2,-1
 777 587 l 1,3,-1
 712 587 l 1,0,-1
712 547 m 1,4,-1
 712 618 l 1,5,-1
 777 618 l 1,6,-1
 777 547 l 1,7,-1
 712 547 l 1,4,-1
712 507 m 1,8,-1
 712 578 l 1,9,-1
 777 578 l 1,10,-1
 777 507 l 1,11,-1
 712 507 l 1,8,-1
712 467 m 1,12,-1
 712 538 l 1,13,-1
 777 538 l 1,14,-1
 777 467 l 1,15,-1
 712 467 l 1,12,-1
712 427 m 1,16,-1
 712 498 l 1,17,-1
 777 498 l 1,18,-1
 777 427 l 1,19,-1
 712 427 l 1,16,-1
712 387 m 1,20,-1
 712 458 l 1,21,-1
 777 458 l 1,22,-1
 777 387 l 1,23,-1
 712 387 l 1,20,-1
712 347 m 1,24,-1
 712 418 l 1,25,-1
 777 418 l 1,26,-1
 777 347 l 1,27,-1
 712 347 l 1,24,-1
712 307 m 1,28,-1
 712 378 l 1,29,-1
 777 378 l 1,30,-1
 777 307 l 1,31,-1
 712 307 l 1,28,-1
712 267 m 1,32,-1
 712 338 l 1,33,-1
 777 338 l 1,34,-1
 777 267 l 1,35,-1
 712 267 l 1,32,-1
712 227 m 1,36,-1
 712 298 l 1,37,-1
 777 298 l 1,38,-1
 777 227 l 1,39,-1
 712 227 l 1,36,-1
712 187 m 1,40,-1
 712 258 l 1,41,-1
 777 258 l 1,42,-1
 777 187 l 1,43,-1
 712 187 l 1,40,-1
447 307 m 1,44,-1
 447 381 l 1,45,-1
 742 381 l 1,46,-1
 742 307 l 1,47,-1
 447 307 l 1,44,-1
712 147 m 1,48,-1
 712 218 l 1,49,-1
 777 218 l 1,50,-1
 777 147 l 1,51,-1
 712 147 l 1,48,-1
712 107 m 1,52,-1
 712 178 l 1,53,-1
 777 178 l 1,54,-1
 777 107 l 1,55,-1
 712 107 l 1,52,-1
712 67 m 1,56,-1
 712 138 l 1,57,-1
 777 138 l 1,58,-1
 777 67 l 1,59,-1
 712 67 l 1,56,-1
712 27 m 1,60,-1
 712 98 l 1,61,-1
 777 98 l 1,62,-1
 777 27 l 1,63,-1
 712 27 l 1,60,-1
412 307 m 1,64,-1
 412 378 l 1,65,-1
 477 378 l 1,66,-1
 477 307 l 1,67,-1
 412 307 l 1,64,-1
112 587 m 1,68,-1
 112 658 l 1,69,-1
 177 658 l 1,70,-1
 177 587 l 1,71,-1
 112 587 l 1,68,-1
112 547 m 1,72,-1
 112 618 l 1,73,-1
 177 618 l 1,74,-1
 177 547 l 1,75,-1
 112 547 l 1,72,-1
112 507 m 1,76,-1
 112 578 l 1,77,-1
 177 578 l 1,78,-1
 177 507 l 1,79,-1
 112 507 l 1,76,-1
112 467 m 1,80,-1
 112 538 l 1,81,-1
 177 538 l 1,82,-1
 177 467 l 1,83,-1
 112 467 l 1,80,-1
147 307 m 1,84,-1
 147 381 l 1,85,-1
 442 381 l 1,86,-1
 442 307 l 1,87,-1
 147 307 l 1,84,-1
447 -13 m 1,88,-1
 447 61 l 1,89,-1
 742 61 l 1,90,-1
 742 -13 l 1,91,-1
 447 -13 l 1,88,-1
112 427 m 1,92,-1
 112 498 l 1,93,-1
 177 498 l 1,94,-1
 177 427 l 1,95,-1
 112 427 l 1,92,-1
112 387 m 1,96,-1
 112 458 l 1,97,-1
 177 458 l 1,98,-1
 177 387 l 1,99,-1
 112 387 l 1,96,-1
112 347 m 1,100,-1
 112 418 l 1,101,-1
 177 418 l 1,102,-1
 177 347 l 1,103,-1
 112 347 l 1,100,-1
412 -13 m 1,104,-1
 412 58 l 1,105,-1
 477 58 l 1,106,-1
 477 -13 l 1,107,-1
 412 -13 l 1,104,-1
147 -13 m 1,108,-1
 147 61 l 1,109,-1
 442 61 l 1,110,-1
 442 -13 l 1,111,-1
 147 -13 l 1,108,-1
112 -13 m 1,112,-1
 112 58 l 1,113,-1
 177 58 l 1,114,-1
 177 -13 l 1,115,-1
 112 -13 l 1,112,-1
EndSplineSet
Validated: 5
EndChar

StartChar: Z
Encoding: 90 90 46
Width: 725
Flags: W
LayerCount: 2
Fore
SplineSet
712 587 m 1,0,-1
 712 658 l 1,1,-1
 777 658 l 1,2,-1
 777 587 l 1,3,-1
 712 587 l 1,0,-1
712 547 m 1,4,-1
 712 618 l 1,5,-1
 777 618 l 1,6,-1
 777 547 l 1,7,-1
 712 547 l 1,4,-1
712 507 m 1,8,-1
 712 578 l 1,9,-1
 777 578 l 1,10,-1
 777 507 l 1,11,-1
 712 507 l 1,8,-1
712 467 m 1,12,-1
 712 538 l 1,13,-1
 777 538 l 1,14,-1
 777 467 l 1,15,-1
 712 467 l 1,12,-1
447 587 m 1,16,-1
 447 661 l 1,17,-1
 742 661 l 1,18,-1
 742 587 l 1,19,-1
 447 587 l 1,16,-1
712 427 m 1,20,-1
 712 498 l 1,21,-1
 777 498 l 1,22,-1
 777 427 l 1,23,-1
 712 427 l 1,20,-1
712 387 m 1,24,-1
 712 458 l 1,25,-1
 777 458 l 1,26,-1
 777 387 l 1,27,-1
 712 387 l 1,24,-1
712 347 m 1,28,-1
 712 418 l 1,29,-1
 777 418 l 1,30,-1
 777 347 l 1,31,-1
 712 347 l 1,28,-1
712 307 m 1,32,-1
 712 378 l 1,33,-1
 777 378 l 1,34,-1
 777 307 l 1,35,-1
 712 307 l 1,32,-1
412 587 m 1,36,-1
 412 658 l 1,37,-1
 477 658 l 1,38,-1
 477 587 l 1,39,-1
 412 587 l 1,36,-1
447 307 m 1,40,-1
 447 381 l 1,41,-1
 742 381 l 1,42,-1
 742 307 l 1,43,-1
 447 307 l 1,40,-1
147 587 m 1,44,-1
 147 661 l 1,45,-1
 442 661 l 1,46,-1
 442 587 l 1,47,-1
 147 587 l 1,44,-1
412 307 m 1,48,-1
 412 378 l 1,49,-1
 477 378 l 1,50,-1
 477 307 l 1,51,-1
 412 307 l 1,48,-1
112 587 m 1,52,-1
 112 658 l 1,53,-1
 177 658 l 1,54,-1
 177 587 l 1,55,-1
 112 587 l 1,52,-1
712 -13 m 1,56,-1
 712 58 l 1,57,-1
 777 58 l 1,58,-1
 777 -13 l 1,59,-1
 712 -13 l 1,56,-1
147 307 m 1,60,-1
 147 381 l 1,61,-1
 442 381 l 1,62,-1
 442 307 l 1,63,-1
 147 307 l 1,60,-1
447 -13 m 1,64,-1
 447 61 l 1,65,-1
 742 61 l 1,66,-1
 742 -13 l 1,67,-1
 447 -13 l 1,64,-1
112 307 m 1,68,-1
 112 378 l 1,69,-1
 177 378 l 1,70,-1
 177 307 l 1,71,-1
 112 307 l 1,68,-1
412 -13 m 1,72,-1
 412 58 l 1,73,-1
 477 58 l 1,74,-1
 477 -13 l 1,75,-1
 412 -13 l 1,72,-1
112 267 m 1,76,-1
 112 338 l 1,77,-1
 177 338 l 1,78,-1
 177 267 l 1,79,-1
 112 267 l 1,76,-1
112 227 m 1,80,-1
 112 298 l 1,81,-1
 177 298 l 1,82,-1
 177 227 l 1,83,-1
 112 227 l 1,80,-1
112 187 m 1,84,-1
 112 258 l 1,85,-1
 177 258 l 1,86,-1
 177 187 l 1,87,-1
 112 187 l 1,84,-1
112 147 m 1,88,-1
 112 218 l 1,89,-1
 177 218 l 1,90,-1
 177 147 l 1,91,-1
 112 147 l 1,88,-1
147 -13 m 1,92,-1
 147 61 l 1,93,-1
 442 61 l 1,94,-1
 442 -13 l 1,95,-1
 147 -13 l 1,92,-1
112 107 m 1,96,-1
 112 178 l 1,97,-1
 177 178 l 1,98,-1
 177 107 l 1,99,-1
 112 107 l 1,96,-1
112 67 m 1,100,-1
 112 138 l 1,101,-1
 177 138 l 1,102,-1
 177 67 l 1,103,-1
 112 67 l 1,100,-1
112 27 m 1,104,-1
 112 98 l 1,105,-1
 177 98 l 1,106,-1
 177 27 l 1,107,-1
 112 27 l 1,104,-1
112 -13 m 1,108,-1
 112 58 l 1,109,-1
 177 58 l 1,110,-1
 177 -13 l 1,111,-1
 112 -13 l 1,108,-1
EndSplineSet
Validated: 5
EndChar

StartChar: a
Encoding: 97 97 53
Width: 767
Flags: W
LayerCount: 2
Fore
SplineSet
712 267 m 1,0,-1
 712 338 l 1,1,-1
 777 338 l 1,2,-1
 777 267 l 1,3,-1
 712 267 l 1,0,-1
712 227 m 1,4,-1
 712 298 l 1,5,-1
 777 298 l 1,6,-1
 777 227 l 1,7,-1
 712 227 l 1,4,-1
712 187 m 1,8,-1
 712 258 l 1,9,-1
 777 258 l 1,10,-1
 777 187 l 1,11,-1
 712 187 l 1,8,-1
447 307 m 1,12,-1
 447 381 l 1,13,-1
 742 381 l 1,14,-1
 742 307 l 1,15,-1
 447 307 l 1,12,-1
712 147 m 1,16,-1
 712 218 l 1,17,-1
 777 218 l 1,18,-1
 777 147 l 1,19,-1
 712 147 l 1,16,-1
712 107 m 1,20,-1
 712 178 l 1,21,-1
 777 178 l 1,22,-1
 777 107 l 1,23,-1
 712 107 l 1,20,-1
712 67 m 1,24,-1
 712 138 l 1,25,-1
 777 138 l 1,26,-1
 777 67 l 1,27,-1
 712 67 l 1,24,-1
447 187 m 1,28,-1
 447 261 l 1,29,-1
 742 261 l 1,30,-1
 742 187 l 1,31,-1
 447 187 l 1,28,-1
712 27 m 1,32,-1
 712 98 l 1,33,-1
 777 98 l 1,34,-1
 777 27 l 1,35,-1
 712 27 l 1,32,-1
412 307 m 1,36,-1
 412 378 l 1,37,-1
 477 378 l 1,38,-1
 477 307 l 1,39,-1
 412 307 l 1,36,-1
712 -13 m 1,40,-1
 712 58 l 1,41,-1
 777 58 l 1,42,-1
 777 -13 l 1,43,-1
 712 -13 l 1,40,-1
412 187 m 1,44,-1
 412 258 l 1,45,-1
 477 258 l 1,46,-1
 477 187 l 1,47,-1
 412 187 l 1,44,-1
147 307 m 1,48,-1
 147 381 l 1,49,-1
 442 381 l 1,50,-1
 442 307 l 1,51,-1
 147 307 l 1,48,-1
447 -13 m 1,52,-1
 447 61 l 1,53,-1
 742 61 l 1,54,-1
 742 -13 l 1,55,-1
 447 -13 l 1,52,-1
147 187 m 1,56,-1
 147 261 l 1,57,-1
 442 261 l 1,58,-1
 442 187 l 1,59,-1
 147 187 l 1,56,-1
112 307 m 1,60,-1
 112 378 l 1,61,-1
 177 378 l 1,62,-1
 177 307 l 1,63,-1
 112 307 l 1,60,-1
412 -13 m 1,64,-1
 412 58 l 1,65,-1
 477 58 l 1,66,-1
 477 -13 l 1,67,-1
 412 -13 l 1,64,-1
112 147 m 1,68,-1
 112 218 l 1,69,-1
 177 218 l 1,70,-1
 177 147 l 1,71,-1
 112 147 l 1,68,-1
147 -13 m 1,72,-1
 147 61 l 1,73,-1
 442 61 l 1,74,-1
 442 -13 l 1,75,-1
 147 -13 l 1,72,-1
112 107 m 1,76,-1
 112 178 l 1,77,-1
 177 178 l 1,78,-1
 177 107 l 1,79,-1
 112 107 l 1,76,-1
112 67 m 1,80,-1
 112 138 l 1,81,-1
 177 138 l 1,82,-1
 177 67 l 1,83,-1
 112 67 l 1,80,-1
112 27 m 1,84,-1
 112 98 l 1,85,-1
 177 98 l 1,86,-1
 177 27 l 1,87,-1
 112 27 l 1,84,-1
EndSplineSet
Validated: 5
EndChar

StartChar: b
Encoding: 98 98 54
Width: 766
Flags: W
LayerCount: 2
Fore
SplineSet
712 267 m 1,0,-1
 712 338 l 1,1,-1
 777 338 l 1,2,-1
 777 267 l 1,3,-1
 712 267 l 1,0,-1
712 227 m 1,4,-1
 712 298 l 1,5,-1
 777 298 l 1,6,-1
 777 227 l 1,7,-1
 712 227 l 1,4,-1
712 187 m 1,8,-1
 712 258 l 1,9,-1
 777 258 l 1,10,-1
 777 187 l 1,11,-1
 712 187 l 1,8,-1
447 307 m 1,12,-1
 447 381 l 1,13,-1
 742 381 l 1,14,-1
 742 307 l 1,15,-1
 447 307 l 1,12,-1
712 147 m 1,16,-1
 712 218 l 1,17,-1
 777 218 l 1,18,-1
 777 147 l 1,19,-1
 712 147 l 1,16,-1
712 107 m 1,20,-1
 712 178 l 1,21,-1
 777 178 l 1,22,-1
 777 107 l 1,23,-1
 712 107 l 1,20,-1
712 67 m 1,24,-1
 712 138 l 1,25,-1
 777 138 l 1,26,-1
 777 67 l 1,27,-1
 712 67 l 1,24,-1
712 27 m 1,28,-1
 712 98 l 1,29,-1
 777 98 l 1,30,-1
 777 27 l 1,31,-1
 712 27 l 1,28,-1
412 307 m 1,32,-1
 412 378 l 1,33,-1
 477 378 l 1,34,-1
 477 307 l 1,35,-1
 412 307 l 1,32,-1
112 587 m 1,36,-1
 112 658 l 1,37,-1
 177 658 l 1,38,-1
 177 587 l 1,39,-1
 112 587 l 1,36,-1
112 547 m 1,40,-1
 112 618 l 1,41,-1
 177 618 l 1,42,-1
 177 547 l 1,43,-1
 112 547 l 1,40,-1
112 507 m 1,44,-1
 112 578 l 1,45,-1
 177 578 l 1,46,-1
 177 507 l 1,47,-1
 112 507 l 1,44,-1
112 467 m 1,48,-1
 112 538 l 1,49,-1
 177 538 l 1,50,-1
 177 467 l 1,51,-1
 112 467 l 1,48,-1
147 307 m 1,52,-1
 147 381 l 1,53,-1
 442 381 l 1,54,-1
 442 307 l 1,55,-1
 147 307 l 1,52,-1
447 -13 m 1,56,-1
 447 61 l 1,57,-1
 742 61 l 1,58,-1
 742 -13 l 1,59,-1
 447 -13 l 1,56,-1
112 427 m 1,60,-1
 112 498 l 1,61,-1
 177 498 l 1,62,-1
 177 427 l 1,63,-1
 112 427 l 1,60,-1
112 387 m 1,64,-1
 112 458 l 1,65,-1
 177 458 l 1,66,-1
 177 387 l 1,67,-1
 112 387 l 1,64,-1
112 347 m 1,68,-1
 112 418 l 1,69,-1
 177 418 l 1,70,-1
 177 347 l 1,71,-1
 112 347 l 1,68,-1
112 307 m 1,72,-1
 112 378 l 1,73,-1
 177 378 l 1,74,-1
 177 307 l 1,75,-1
 112 307 l 1,72,-1
412 -13 m 1,76,-1
 412 58 l 1,77,-1
 477 58 l 1,78,-1
 477 -13 l 1,79,-1
 412 -13 l 1,76,-1
112 267 m 1,80,-1
 112 338 l 1,81,-1
 177 338 l 1,82,-1
 177 267 l 1,83,-1
 112 267 l 1,80,-1
112 227 m 1,84,-1
 112 298 l 1,85,-1
 177 298 l 1,86,-1
 177 227 l 1,87,-1
 112 227 l 1,84,-1
112 187 m 1,88,-1
 112 258 l 1,89,-1
 177 258 l 1,90,-1
 177 187 l 1,91,-1
 112 187 l 1,88,-1
112 147 m 1,92,-1
 112 218 l 1,93,-1
 177 218 l 1,94,-1
 177 147 l 1,95,-1
 112 147 l 1,92,-1
147 -13 m 1,96,-1
 147 61 l 1,97,-1
 442 61 l 1,98,-1
 442 -13 l 1,99,-1
 147 -13 l 1,96,-1
112 107 m 1,100,-1
 112 178 l 1,101,-1
 177 178 l 1,102,-1
 177 107 l 1,103,-1
 112 107 l 1,100,-1
112 67 m 1,104,-1
 112 138 l 1,105,-1
 177 138 l 1,106,-1
 177 67 l 1,107,-1
 112 67 l 1,104,-1
112 27 m 1,108,-1
 112 98 l 1,109,-1
 177 98 l 1,110,-1
 177 27 l 1,111,-1
 112 27 l 1,108,-1
112 -13 m 1,112,-1
 112 58 l 1,113,-1
 177 58 l 1,114,-1
 177 -13 l 1,115,-1
 112 -13 l 1,112,-1
EndSplineSet
Validated: 5
EndChar

StartChar: c
Encoding: 99 99 55
Width: 725
Flags: W
LayerCount: 2
Fore
SplineSet
712 307 m 1,0,-1
 712 378 l 1,1,-1
 777 378 l 1,2,-1
 777 307 l 1,3,-1
 712 307 l 1,0,-1
447 307 m 1,4,-1
 447 381 l 1,5,-1
 742 381 l 1,6,-1
 742 307 l 1,7,-1
 447 307 l 1,4,-1
412 307 m 1,8,-1
 412 378 l 1,9,-1
 477 378 l 1,10,-1
 477 307 l 1,11,-1
 412 307 l 1,8,-1
712 -13 m 1,12,-1
 712 58 l 1,13,-1
 777 58 l 1,14,-1
 777 -13 l 1,15,-1
 712 -13 l 1,12,-1
147 307 m 1,16,-1
 147 381 l 1,17,-1
 442 381 l 1,18,-1
 442 307 l 1,19,-1
 147 307 l 1,16,-1
447 -13 m 1,20,-1
 447 61 l 1,21,-1
 742 61 l 1,22,-1
 742 -13 l 1,23,-1
 447 -13 l 1,20,-1
412 -13 m 1,24,-1
 412 58 l 1,25,-1
 477 58 l 1,26,-1
 477 -13 l 1,27,-1
 412 -13 l 1,24,-1
112 267 m 1,28,-1
 112 338 l 1,29,-1
 177 338 l 1,30,-1
 177 267 l 1,31,-1
 112 267 l 1,28,-1
112 227 m 1,32,-1
 112 298 l 1,33,-1
 177 298 l 1,34,-1
 177 227 l 1,35,-1
 112 227 l 1,32,-1
112 187 m 1,36,-1
 112 258 l 1,37,-1
 177 258 l 1,38,-1
 177 187 l 1,39,-1
 112 187 l 1,36,-1
112 147 m 1,40,-1
 112 218 l 1,41,-1
 177 218 l 1,42,-1
 177 147 l 1,43,-1
 112 147 l 1,40,-1
147 -13 m 1,44,-1
 147 61 l 1,45,-1
 442 61 l 1,46,-1
 442 -13 l 1,47,-1
 147 -13 l 1,44,-1
112 107 m 1,48,-1
 112 178 l 1,49,-1
 177 178 l 1,50,-1
 177 107 l 1,51,-1
 112 107 l 1,48,-1
112 67 m 1,52,-1
 112 138 l 1,53,-1
 177 138 l 1,54,-1
 177 67 l 1,55,-1
 112 67 l 1,52,-1
112 27 m 1,56,-1
 112 98 l 1,57,-1
 177 98 l 1,58,-1
 177 27 l 1,59,-1
 112 27 l 1,56,-1
EndSplineSet
Validated: 5
EndChar

StartChar: d
Encoding: 100 100 56
Width: 768
Flags: W
LayerCount: 2
Fore
SplineSet
712 587 m 1,0,-1
 712 658 l 1,1,-1
 777 658 l 1,2,-1
 777 587 l 1,3,-1
 712 587 l 1,0,-1
712 547 m 1,4,-1
 712 618 l 1,5,-1
 777 618 l 1,6,-1
 777 547 l 1,7,-1
 712 547 l 1,4,-1
712 507 m 1,8,-1
 712 578 l 1,9,-1
 777 578 l 1,10,-1
 777 507 l 1,11,-1
 712 507 l 1,8,-1
712 467 m 1,12,-1
 712 538 l 1,13,-1
 777 538 l 1,14,-1
 777 467 l 1,15,-1
 712 467 l 1,12,-1
712 427 m 1,16,-1
 712 498 l 1,17,-1
 777 498 l 1,18,-1
 777 427 l 1,19,-1
 712 427 l 1,16,-1
712 387 m 1,20,-1
 712 458 l 1,21,-1
 777 458 l 1,22,-1
 777 387 l 1,23,-1
 712 387 l 1,20,-1
712 347 m 1,24,-1
 712 418 l 1,25,-1
 777 418 l 1,26,-1
 777 347 l 1,27,-1
 712 347 l 1,24,-1
712 307 m 1,28,-1
 712 378 l 1,29,-1
 777 378 l 1,30,-1
 777 307 l 1,31,-1
 712 307 l 1,28,-1
712 267 m 1,32,-1
 712 338 l 1,33,-1
 777 338 l 1,34,-1
 777 267 l 1,35,-1
 712 267 l 1,32,-1
712 227 m 1,36,-1
 712 298 l 1,37,-1
 777 298 l 1,38,-1
 777 227 l 1,39,-1
 712 227 l 1,36,-1
712 187 m 1,40,-1
 712 258 l 1,41,-1
 777 258 l 1,42,-1
 777 187 l 1,43,-1
 712 187 l 1,40,-1
447 307 m 1,44,-1
 447 381 l 1,45,-1
 742 381 l 1,46,-1
 742 307 l 1,47,-1
 447 307 l 1,44,-1
712 147 m 1,48,-1
 712 218 l 1,49,-1
 777 218 l 1,50,-1
 777 147 l 1,51,-1
 712 147 l 1,48,-1
712 107 m 1,52,-1
 712 178 l 1,53,-1
 777 178 l 1,54,-1
 777 107 l 1,55,-1
 712 107 l 1,52,-1
712 67 m 1,56,-1
 712 138 l 1,57,-1
 777 138 l 1,58,-1
 777 67 l 1,59,-1
 712 67 l 1,56,-1
712 27 m 1,60,-1
 712 98 l 1,61,-1
 777 98 l 1,62,-1
 777 27 l 1,63,-1
 712 27 l 1,60,-1
412 307 m 1,64,-1
 412 378 l 1,65,-1
 477 378 l 1,66,-1
 477 307 l 1,67,-1
 412 307 l 1,64,-1
712 -13 m 1,68,-1
 712 58 l 1,69,-1
 777 58 l 1,70,-1
 777 -13 l 1,71,-1
 712 -13 l 1,68,-1
147 307 m 1,72,-1
 147 381 l 1,73,-1
 442 381 l 1,74,-1
 442 307 l 1,75,-1
 147 307 l 1,72,-1
447 -13 m 1,76,-1
 447 61 l 1,77,-1
 742 61 l 1,78,-1
 742 -13 l 1,79,-1
 447 -13 l 1,76,-1
412 -13 m 1,80,-1
 412 58 l 1,81,-1
 477 58 l 1,82,-1
 477 -13 l 1,83,-1
 412 -13 l 1,80,-1
112 267 m 1,84,-1
 112 338 l 1,85,-1
 177 338 l 1,86,-1
 177 267 l 1,87,-1
 112 267 l 1,84,-1
112 227 m 1,88,-1
 112 298 l 1,89,-1
 177 298 l 1,90,-1
 177 227 l 1,91,-1
 112 227 l 1,88,-1
112 187 m 1,92,-1
 112 258 l 1,93,-1
 177 258 l 1,94,-1
 177 187 l 1,95,-1
 112 187 l 1,92,-1
112 147 m 1,96,-1
 112 218 l 1,97,-1
 177 218 l 1,98,-1
 177 147 l 1,99,-1
 112 147 l 1,96,-1
147 -13 m 1,100,-1
 147 61 l 1,101,-1
 442 61 l 1,102,-1
 442 -13 l 1,103,-1
 147 -13 l 1,100,-1
112 107 m 1,104,-1
 112 178 l 1,105,-1
 177 178 l 1,106,-1
 177 107 l 1,107,-1
 112 107 l 1,104,-1
112 67 m 1,108,-1
 112 138 l 1,109,-1
 177 138 l 1,110,-1
 177 67 l 1,111,-1
 112 67 l 1,108,-1
112 27 m 1,112,-1
 112 98 l 1,113,-1
 177 98 l 1,114,-1
 177 27 l 1,115,-1
 112 27 l 1,112,-1
EndSplineSet
Validated: 5
EndChar

StartChar: e
Encoding: 101 101 57
Width: 743
Flags: W
LayerCount: 2
Fore
SplineSet
712 267 m 1,0,-1
 712 338 l 1,1,-1
 777 338 l 1,2,-1
 777 267 l 1,3,-1
 712 267 l 1,0,-1
712 227 m 1,4,-1
 712 298 l 1,5,-1
 777 298 l 1,6,-1
 777 227 l 1,7,-1
 712 227 l 1,4,-1
712 187 m 1,8,-1
 712 258 l 1,9,-1
 777 258 l 1,10,-1
 777 187 l 1,11,-1
 712 187 l 1,8,-1
447 307 m 1,12,-1
 447 381 l 1,13,-1
 742 381 l 1,14,-1
 742 307 l 1,15,-1
 447 307 l 1,12,-1
412 307 m 1,16,-1
 412 378 l 1,17,-1
 477 378 l 1,18,-1
 477 307 l 1,19,-1
 412 307 l 1,16,-1
447 147 m 1,20,-1
 447 221 l 1,21,-1
 742 221 l 1,22,-1
 742 147 l 1,23,-1
 447 147 l 1,20,-1
712 -13 m 1,24,-1
 712 58 l 1,25,-1
 777 58 l 1,26,-1
 777 -13 l 1,27,-1
 712 -13 l 1,24,-1
147 307 m 1,28,-1
 147 381 l 1,29,-1
 442 381 l 1,30,-1
 442 307 l 1,31,-1
 147 307 l 1,28,-1
412 147 m 1,32,-1
 412 218 l 1,33,-1
 477 218 l 1,34,-1
 477 147 l 1,35,-1
 412 147 l 1,32,-1
447 -13 m 1,36,-1
 447 61 l 1,37,-1
 742 61 l 1,38,-1
 742 -13 l 1,39,-1
 447 -13 l 1,36,-1
147 147 m 1,40,-1
 147 221 l 1,41,-1
 442 221 l 1,42,-1
 442 147 l 1,43,-1
 147 147 l 1,40,-1
412 -13 m 1,44,-1
 412 58 l 1,45,-1
 477 58 l 1,46,-1
 477 -13 l 1,47,-1
 412 -13 l 1,44,-1
112 267 m 1,48,-1
 112 338 l 1,49,-1
 177 338 l 1,50,-1
 177 267 l 1,51,-1
 112 267 l 1,48,-1
112 227 m 1,52,-1
 112 298 l 1,53,-1
 177 298 l 1,54,-1
 177 227 l 1,55,-1
 112 227 l 1,52,-1
112 187 m 1,56,-1
 112 258 l 1,57,-1
 177 258 l 1,58,-1
 177 187 l 1,59,-1
 112 187 l 1,56,-1
112 147 m 1,60,-1
 112 218 l 1,61,-1
 177 218 l 1,62,-1
 177 147 l 1,63,-1
 112 147 l 1,60,-1
147 -13 m 1,64,-1
 147 61 l 1,65,-1
 442 61 l 1,66,-1
 442 -13 l 1,67,-1
 147 -13 l 1,64,-1
112 107 m 1,68,-1
 112 178 l 1,69,-1
 177 178 l 1,70,-1
 177 107 l 1,71,-1
 112 107 l 1,68,-1
112 67 m 1,72,-1
 112 138 l 1,73,-1
 177 138 l 1,74,-1
 177 67 l 1,75,-1
 112 67 l 1,72,-1
112 27 m 1,76,-1
 112 98 l 1,77,-1
 177 98 l 1,78,-1
 177 27 l 1,79,-1
 112 27 l 1,76,-1
EndSplineSet
Validated: 5
EndChar

StartChar: f
Encoding: 102 102 58
Width: 725
Flags: W
LayerCount: 2
Fore
SplineSet
712 587 m 1,0,-1
 712 658 l 1,1,-1
 777 658 l 1,2,-1
 777 587 l 1,3,-1
 712 587 l 1,0,-1
447 587 m 1,4,-1
 447 661 l 1,5,-1
 742 661 l 1,6,-1
 742 587 l 1,7,-1
 447 587 l 1,4,-1
712 307 m 1,8,-1
 712 378 l 1,9,-1
 777 378 l 1,10,-1
 777 307 l 1,11,-1
 712 307 l 1,8,-1
412 547 m 1,12,-1
 412 618 l 1,13,-1
 477 618 l 1,14,-1
 477 547 l 1,15,-1
 412 547 l 1,12,-1
412 507 m 1,16,-1
 412 578 l 1,17,-1
 477 578 l 1,18,-1
 477 507 l 1,19,-1
 412 507 l 1,16,-1
412 467 m 1,20,-1
 412 538 l 1,21,-1
 477 538 l 1,22,-1
 477 467 l 1,23,-1
 412 467 l 1,20,-1
447 307 m 1,24,-1
 447 381 l 1,25,-1
 742 381 l 1,26,-1
 742 307 l 1,27,-1
 447 307 l 1,24,-1
412 427 m 1,28,-1
 412 498 l 1,29,-1
 477 498 l 1,30,-1
 477 427 l 1,31,-1
 412 427 l 1,28,-1
412 387 m 1,32,-1
 412 458 l 1,33,-1
 477 458 l 1,34,-1
 477 387 l 1,35,-1
 412 387 l 1,32,-1
412 347 m 1,36,-1
 412 418 l 1,37,-1
 477 418 l 1,38,-1
 477 347 l 1,39,-1
 412 347 l 1,36,-1
412 307 m 1,40,-1
 412 378 l 1,41,-1
 477 378 l 1,42,-1
 477 307 l 1,43,-1
 412 307 l 1,40,-1
412 267 m 1,44,-1
 412 338 l 1,45,-1
 477 338 l 1,46,-1
 477 267 l 1,47,-1
 412 267 l 1,44,-1
412 227 m 1,48,-1
 412 298 l 1,49,-1
 477 298 l 1,50,-1
 477 227 l 1,51,-1
 412 227 l 1,48,-1
412 187 m 1,52,-1
 412 258 l 1,53,-1
 477 258 l 1,54,-1
 477 187 l 1,55,-1
 412 187 l 1,52,-1
147 307 m 1,56,-1
 147 381 l 1,57,-1
 442 381 l 1,58,-1
 442 307 l 1,59,-1
 147 307 l 1,56,-1
412 147 m 1,60,-1
 412 218 l 1,61,-1
 477 218 l 1,62,-1
 477 147 l 1,63,-1
 412 147 l 1,60,-1
412 107 m 1,64,-1
 412 178 l 1,65,-1
 477 178 l 1,66,-1
 477 107 l 1,67,-1
 412 107 l 1,64,-1
412 67 m 1,68,-1
 412 138 l 1,69,-1
 477 138 l 1,70,-1
 477 67 l 1,71,-1
 412 67 l 1,68,-1
412 27 m 1,72,-1
 412 98 l 1,73,-1
 477 98 l 1,74,-1
 477 27 l 1,75,-1
 412 27 l 1,72,-1
112 307 m 1,76,-1
 112 378 l 1,77,-1
 177 378 l 1,78,-1
 177 307 l 1,79,-1
 112 307 l 1,76,-1
412 -13 m 1,80,-1
 412 58 l 1,81,-1
 477 58 l 1,82,-1
 477 -13 l 1,83,-1
 412 -13 l 1,80,-1
EndSplineSet
Validated: 5
EndChar

StartChar: g
Encoding: 103 103 59
Width: 766
Flags: W
LayerCount: 2
Fore
SplineSet
712 267 m 1,0,-1
 712 338 l 1,1,-1
 777 338 l 1,2,-1
 777 267 l 1,3,-1
 712 267 l 1,0,-1
712 227 m 1,4,-1
 712 298 l 1,5,-1
 777 298 l 1,6,-1
 777 227 l 1,7,-1
 712 227 l 1,4,-1
712 187 m 1,8,-1
 712 258 l 1,9,-1
 777 258 l 1,10,-1
 777 187 l 1,11,-1
 712 187 l 1,8,-1
447 307 m 1,12,-1
 447 381 l 1,13,-1
 742 381 l 1,14,-1
 742 307 l 1,15,-1
 447 307 l 1,12,-1
712 147 m 1,16,-1
 712 218 l 1,17,-1
 777 218 l 1,18,-1
 777 147 l 1,19,-1
 712 147 l 1,16,-1
712 107 m 1,20,-1
 712 178 l 1,21,-1
 777 178 l 1,22,-1
 777 107 l 1,23,-1
 712 107 l 1,20,-1
712 67 m 1,24,-1
 712 138 l 1,25,-1
 777 138 l 1,26,-1
 777 67 l 1,27,-1
 712 67 l 1,24,-1
712 27 m 1,28,-1
 712 98 l 1,29,-1
 777 98 l 1,30,-1
 777 27 l 1,31,-1
 712 27 l 1,28,-1
412 307 m 1,32,-1
 412 378 l 1,33,-1
 477 378 l 1,34,-1
 477 307 l 1,35,-1
 412 307 l 1,32,-1
447 147 m 1,36,-1
 447 221 l 1,37,-1
 742 221 l 1,38,-1
 742 147 l 1,39,-1
 447 147 l 1,36,-1
147 307 m 1,40,-1
 147 381 l 1,41,-1
 442 381 l 1,42,-1
 442 307 l 1,43,-1
 147 307 l 1,40,-1
412 147 m 1,44,-1
 412 218 l 1,45,-1
 477 218 l 1,46,-1
 477 147 l 1,47,-1
 412 147 l 1,44,-1
447 -13 m 1,48,-1
 447 61 l 1,49,-1
 742 61 l 1,50,-1
 742 -13 l 1,51,-1
 447 -13 l 1,48,-1
147 147 m 1,52,-1
 147 221 l 1,53,-1
 442 221 l 1,54,-1
 442 147 l 1,55,-1
 147 147 l 1,52,-1
412 -13 m 1,56,-1
 412 58 l 1,57,-1
 477 58 l 1,58,-1
 477 -13 l 1,59,-1
 412 -13 l 1,56,-1
112 267 m 1,60,-1
 112 338 l 1,61,-1
 177 338 l 1,62,-1
 177 267 l 1,63,-1
 112 267 l 1,60,-1
112 227 m 1,64,-1
 112 298 l 1,65,-1
 177 298 l 1,66,-1
 177 227 l 1,67,-1
 112 227 l 1,64,-1
112 187 m 1,68,-1
 112 258 l 1,69,-1
 177 258 l 1,70,-1
 177 187 l 1,71,-1
 112 187 l 1,68,-1
112 147 m 1,72,-1
 112 218 l 1,73,-1
 177 218 l 1,74,-1
 177 147 l 1,75,-1
 112 147 l 1,72,-1
147 -13 m 1,76,-1
 147 61 l 1,77,-1
 442 61 l 1,78,-1
 442 -13 l 1,79,-1
 147 -13 l 1,76,-1
112 -13 m 1,80,-1
 112 58 l 1,81,-1
 177 58 l 1,82,-1
 177 -13 l 1,83,-1
 112 -13 l 1,80,-1
EndSplineSet
Validated: 5
EndChar

StartChar: h
Encoding: 104 104 60
Width: 766
Flags: W
LayerCount: 2
Fore
SplineSet
712 267 m 1,0,-1
 712 338 l 1,1,-1
 777 338 l 1,2,-1
 777 267 l 1,3,-1
 712 267 l 1,0,-1
712 227 m 1,4,-1
 712 298 l 1,5,-1
 777 298 l 1,6,-1
 777 227 l 1,7,-1
 712 227 l 1,4,-1
712 187 m 1,8,-1
 712 258 l 1,9,-1
 777 258 l 1,10,-1
 777 187 l 1,11,-1
 712 187 l 1,8,-1
447 307 m 1,12,-1
 447 381 l 1,13,-1
 742 381 l 1,14,-1
 742 307 l 1,15,-1
 447 307 l 1,12,-1
712 147 m 1,16,-1
 712 218 l 1,17,-1
 777 218 l 1,18,-1
 777 147 l 1,19,-1
 712 147 l 1,16,-1
712 107 m 1,20,-1
 712 178 l 1,21,-1
 777 178 l 1,22,-1
 777 107 l 1,23,-1
 712 107 l 1,20,-1
712 67 m 1,24,-1
 712 138 l 1,25,-1
 777 138 l 1,26,-1
 777 67 l 1,27,-1
 712 67 l 1,24,-1
712 27 m 1,28,-1
 712 98 l 1,29,-1
 777 98 l 1,30,-1
 777 27 l 1,31,-1
 712 27 l 1,28,-1
412 307 m 1,32,-1
 412 378 l 1,33,-1
 477 378 l 1,34,-1
 477 307 l 1,35,-1
 412 307 l 1,32,-1
112 587 m 1,36,-1
 112 658 l 1,37,-1
 177 658 l 1,38,-1
 177 587 l 1,39,-1
 112 587 l 1,36,-1
712 -13 m 1,40,-1
 712 58 l 1,41,-1
 777 58 l 1,42,-1
 777 -13 l 1,43,-1
 712 -13 l 1,40,-1
112 547 m 1,44,-1
 112 618 l 1,45,-1
 177 618 l 1,46,-1
 177 547 l 1,47,-1
 112 547 l 1,44,-1
112 507 m 1,48,-1
 112 578 l 1,49,-1
 177 578 l 1,50,-1
 177 507 l 1,51,-1
 112 507 l 1,48,-1
112 467 m 1,52,-1
 112 538 l 1,53,-1
 177 538 l 1,54,-1
 177 467 l 1,55,-1
 112 467 l 1,52,-1
147 307 m 1,56,-1
 147 381 l 1,57,-1
 442 381 l 1,58,-1
 442 307 l 1,59,-1
 147 307 l 1,56,-1
112 427 m 1,60,-1
 112 498 l 1,61,-1
 177 498 l 1,62,-1
 177 427 l 1,63,-1
 112 427 l 1,60,-1
112 387 m 1,64,-1
 112 458 l 1,65,-1
 177 458 l 1,66,-1
 177 387 l 1,67,-1
 112 387 l 1,64,-1
112 347 m 1,68,-1
 112 418 l 1,69,-1
 177 418 l 1,70,-1
 177 347 l 1,71,-1
 112 347 l 1,68,-1
112 307 m 1,72,-1
 112 378 l 1,73,-1
 177 378 l 1,74,-1
 177 307 l 1,75,-1
 112 307 l 1,72,-1
112 267 m 1,76,-1
 112 338 l 1,77,-1
 177 338 l 1,78,-1
 177 267 l 1,79,-1
 112 267 l 1,76,-1
112 227 m 1,80,-1
 112 298 l 1,81,-1
 177 298 l 1,82,-1
 177 227 l 1,83,-1
 112 227 l 1,80,-1
112 187 m 1,84,-1
 112 258 l 1,85,-1
 177 258 l 1,86,-1
 177 187 l 1,87,-1
 112 187 l 1,84,-1
112 147 m 1,88,-1
 112 218 l 1,89,-1
 177 218 l 1,90,-1
 177 147 l 1,91,-1
 112 147 l 1,88,-1
112 107 m 1,92,-1
 112 178 l 1,93,-1
 177 178 l 1,94,-1
 177 107 l 1,95,-1
 112 107 l 1,92,-1
112 67 m 1,96,-1
 112 138 l 1,97,-1
 177 138 l 1,98,-1
 177 67 l 1,99,-1
 112 67 l 1,96,-1
112 27 m 1,100,-1
 112 98 l 1,101,-1
 177 98 l 1,102,-1
 177 27 l 1,103,-1
 112 27 l 1,100,-1
112 -13 m 1,104,-1
 112 58 l 1,105,-1
 177 58 l 1,106,-1
 177 -13 l 1,107,-1
 112 -13 l 1,104,-1
EndSplineSet
Validated: 5
EndChar

StartChar: i
Encoding: 105 105 61
Width: 733
Flags: W
LayerCount: 2
Fore
SplineSet
712 307 m 1,0,-1
 712 378 l 1,1,-1
 777 378 l 1,2,-1
 777 307 l 1,3,-1
 712 307 l 1,0,-1
447 307 m 1,4,-1
 447 381 l 1,5,-1
 742 381 l 1,6,-1
 742 307 l 1,7,-1
 447 307 l 1,4,-1
412 307 m 1,8,-1
 412 378 l 1,9,-1
 477 378 l 1,10,-1
 477 307 l 1,11,-1
 412 307 l 1,8,-1
712 -13 m 1,12,-1
 712 58 l 1,13,-1
 777 58 l 1,14,-1
 777 -13 l 1,15,-1
 712 -13 l 1,12,-1
412 267 m 1,16,-1
 412 338 l 1,17,-1
 477 338 l 1,18,-1
 477 267 l 1,19,-1
 412 267 l 1,16,-1
412 227 m 1,20,-1
 412 298 l 1,21,-1
 477 298 l 1,22,-1
 477 227 l 1,23,-1
 412 227 l 1,20,-1
412 187 m 1,24,-1
 412 258 l 1,25,-1
 477 258 l 1,26,-1
 477 187 l 1,27,-1
 412 187 l 1,24,-1
147 307 m 1,28,-1
 147 381 l 1,29,-1
 442 381 l 1,30,-1
 442 307 l 1,31,-1
 147 307 l 1,28,-1
412 147 m 1,32,-1
 412 218 l 1,33,-1
 477 218 l 1,34,-1
 477 147 l 1,35,-1
 412 147 l 1,32,-1
447 -13 m 1,36,-1
 447 61 l 1,37,-1
 742 61 l 1,38,-1
 742 -13 l 1,39,-1
 447 -13 l 1,36,-1
412 107 m 1,40,-1
 412 178 l 1,41,-1
 477 178 l 1,42,-1
 477 107 l 1,43,-1
 412 107 l 1,40,-1
412 67 m 1,44,-1
 412 138 l 1,45,-1
 477 138 l 1,46,-1
 477 67 l 1,47,-1
 412 67 l 1,44,-1
412 27 m 1,48,-1
 412 98 l 1,49,-1
 477 98 l 1,50,-1
 477 27 l 1,51,-1
 412 27 l 1,48,-1
112 307 m 1,52,-1
 112 378 l 1,53,-1
 177 378 l 1,54,-1
 177 307 l 1,55,-1
 112 307 l 1,52,-1
412 -13 m 1,56,-1
 412 58 l 1,57,-1
 477 58 l 1,58,-1
 477 -13 l 1,59,-1
 412 -13 l 1,56,-1
147 -13 m 1,60,-1
 147 61 l 1,61,-1
 442 61 l 1,62,-1
 442 -13 l 1,63,-1
 147 -13 l 1,60,-1
112 -13 m 1,64,-1
 112 58 l 1,65,-1
 177 58 l 1,66,-1
 177 -13 l 1,67,-1
 112 -13 l 1,64,-1
EndSplineSet
Validated: 5
EndChar

StartChar: j
Encoding: 106 106 62
Width: 767
Flags: W
LayerCount: 2
Fore
SplineSet
712 307 m 1,0,-1
 712 378 l 1,1,-1
 777 378 l 1,2,-1
 777 307 l 1,3,-1
 712 307 l 1,0,-1
712 267 m 1,4,-1
 712 338 l 1,5,-1
 777 338 l 1,6,-1
 777 267 l 1,7,-1
 712 267 l 1,4,-1
712 227 m 1,8,-1
 712 298 l 1,9,-1
 777 298 l 1,10,-1
 777 227 l 1,11,-1
 712 227 l 1,8,-1
712 187 m 1,12,-1
 712 258 l 1,13,-1
 777 258 l 1,14,-1
 777 187 l 1,15,-1
 712 187 l 1,12,-1
712 147 m 1,16,-1
 712 218 l 1,17,-1
 777 218 l 1,18,-1
 777 147 l 1,19,-1
 712 147 l 1,16,-1
712 107 m 1,20,-1
 712 178 l 1,21,-1
 777 178 l 1,22,-1
 777 107 l 1,23,-1
 712 107 l 1,20,-1
712 67 m 1,24,-1
 712 138 l 1,25,-1
 777 138 l 1,26,-1
 777 67 l 1,27,-1
 712 67 l 1,24,-1
712 27 m 1,28,-1
 712 98 l 1,29,-1
 777 98 l 1,30,-1
 777 27 l 1,31,-1
 712 27 l 1,28,-1
447 -13 m 1,32,-1
 447 61 l 1,33,-1
 742 61 l 1,34,-1
 742 -13 l 1,35,-1
 447 -13 l 1,32,-1
412 -13 m 1,36,-1
 412 58 l 1,37,-1
 477 58 l 1,38,-1
 477 -13 l 1,39,-1
 412 -13 l 1,36,-1
147 -13 m 1,40,-1
 147 61 l 1,41,-1
 442 61 l 1,42,-1
 442 -13 l 1,43,-1
 147 -13 l 1,40,-1
112 107 m 1,44,-1
 112 178 l 1,45,-1
 177 178 l 1,46,-1
 177 107 l 1,47,-1
 112 107 l 1,44,-1
112 67 m 1,48,-1
 112 138 l 1,49,-1
 177 138 l 1,50,-1
 177 67 l 1,51,-1
 112 67 l 1,48,-1
112 27 m 1,52,-1
 112 98 l 1,53,-1
 177 98 l 1,54,-1
 177 27 l 1,55,-1
 112 27 l 1,52,-1
EndSplineSet
Validated: 5
EndChar

StartChar: k
Encoding: 107 107 63
Width: 764
Flags: W
LayerCount: 2
Fore
SplineSet
712 287 m 1,0,-1
 712 358 l 1,1,-1
 777 358 l 1,2,-1
 777 287 l 1,3,-1
 712 287 l 1,0,-1
712 247 m 1,4,-1
 712 318 l 1,5,-1
 777 318 l 1,6,-1
 777 247 l 1,7,-1
 712 247 l 1,4,-1
712 207 m 1,8,-1
 712 278 l 1,9,-1
 777 278 l 1,10,-1
 777 207 l 1,11,-1
 712 207 l 1,8,-1
412 487 m 1,12,-1
 412 558 l 1,13,-1
 477 558 l 1,14,-1
 477 487 l 1,15,-1
 412 487 l 1,12,-1
712 167 m 1,16,-1
 712 238 l 1,17,-1
 777 238 l 1,18,-1
 777 167 l 1,19,-1
 712 167 l 1,16,-1
412 447 m 1,20,-1
 412 518 l 1,21,-1
 477 518 l 1,22,-1
 477 447 l 1,23,-1
 412 447 l 1,20,-1
447 287 m 1,24,-1
 447 361 l 1,25,-1
 742 361 l 1,26,-1
 742 287 l 1,27,-1
 447 287 l 1,24,-1
712 127 m 1,28,-1
 712 198 l 1,29,-1
 777 198 l 1,30,-1
 777 127 l 1,31,-1
 712 127 l 1,28,-1
412 407 m 1,32,-1
 412 478 l 1,33,-1
 477 478 l 1,34,-1
 477 407 l 1,35,-1
 412 407 l 1,32,-1
712 87 m 1,36,-1
 712 158 l 1,37,-1
 777 158 l 1,38,-1
 777 87 l 1,39,-1
 712 87 l 1,36,-1
412 367 m 1,40,-1
 412 438 l 1,41,-1
 477 438 l 1,42,-1
 477 367 l 1,43,-1
 412 367 l 1,40,-1
712 47 m 1,44,-1
 712 118 l 1,45,-1
 777 118 l 1,46,-1
 777 47 l 1,47,-1
 712 47 l 1,44,-1
412 327 m 1,48,-1
 412 398 l 1,49,-1
 477 398 l 1,50,-1
 477 327 l 1,51,-1
 412 327 l 1,48,-1
712 7 m 1,52,-1
 712 78 l 1,53,-1
 777 78 l 1,54,-1
 777 7 l 1,55,-1
 712 7 l 1,52,-1
412 287 m 1,56,-1
 412 358 l 1,57,-1
 477 358 l 1,58,-1
 477 287 l 1,59,-1
 412 287 l 1,56,-1
112 487 m 1,60,-1
 112 558 l 1,61,-1
 177 558 l 1,62,-1
 177 487 l 1,63,-1
 112 487 l 1,60,-1
112 447 m 1,64,-1
 112 518 l 1,65,-1
 177 518 l 1,66,-1
 177 447 l 1,67,-1
 112 447 l 1,64,-1
147 287 m 1,68,-1
 147 361 l 1,69,-1
 442 361 l 1,70,-1
 442 287 l 1,71,-1
 147 287 l 1,68,-1
112 407 m 1,72,-1
 112 478 l 1,73,-1
 177 478 l 1,74,-1
 177 407 l 1,75,-1
 112 407 l 1,72,-1
112 367 m 1,76,-1
 112 438 l 1,77,-1
 177 438 l 1,78,-1
 177 367 l 1,79,-1
 112 367 l 1,76,-1
112 327 m 1,80,-1
 112 398 l 1,81,-1
 177 398 l 1,82,-1
 177 327 l 1,83,-1
 112 327 l 1,80,-1
112 287 m 1,84,-1
 112 358 l 1,85,-1
 177 358 l 1,86,-1
 177 287 l 1,87,-1
 112 287 l 1,84,-1
112 247 m 1,88,-1
 112 318 l 1,89,-1
 177 318 l 1,90,-1
 177 247 l 1,91,-1
 112 247 l 1,88,-1
112 207 m 1,92,-1
 112 278 l 1,93,-1
 177 278 l 1,94,-1
 177 207 l 1,95,-1
 112 207 l 1,92,-1
112 167 m 1,96,-1
 112 238 l 1,97,-1
 177 238 l 1,98,-1
 177 167 l 1,99,-1
 112 167 l 1,96,-1
112 127 m 1,100,-1
 112 198 l 1,101,-1
 177 198 l 1,102,-1
 177 127 l 1,103,-1
 112 127 l 1,100,-1
112 87 m 1,104,-1
 112 158 l 1,105,-1
 177 158 l 1,106,-1
 177 87 l 1,107,-1
 112 87 l 1,104,-1
112 47 m 1,108,-1
 112 118 l 1,109,-1
 177 118 l 1,110,-1
 177 47 l 1,111,-1
 112 47 l 1,108,-1
112 7 m 1,112,-1
 112 78 l 1,113,-1
 177 78 l 1,114,-1
 177 7 l 1,115,-1
 112 7 l 1,112,-1
EndSplineSet
Validated: 5
EndChar

StartChar: l
Encoding: 108 108 64
Width: 766
Flags: W
LayerCount: 2
Fore
SplineSet
447 -13 m 1,0,-1
 447 61 l 1,1,-1
 742 61 l 1,2,-1
 742 -13 l 1,3,-1
 447 -13 l 1,0,-1
412 -13 m 1,4,-1
 412 58 l 1,5,-1
 477 58 l 1,6,-1
 477 -13 l 1,7,-1
 412 -13 l 1,4,-1
112 267 m 1,8,-1
 112 338 l 1,9,-1
 177 338 l 1,10,-1
 177 267 l 1,11,-1
 112 267 l 1,8,-1
112 227 m 1,12,-1
 112 298 l 1,13,-1
 177 298 l 1,14,-1
 177 227 l 1,15,-1
 112 227 l 1,12,-1
112 187 m 1,16,-1
 112 258 l 1,17,-1
 177 258 l 1,18,-1
 177 187 l 1,19,-1
 112 187 l 1,16,-1
112 147 m 1,20,-1
 112 218 l 1,21,-1
 177 218 l 1,22,-1
 177 147 l 1,23,-1
 112 147 l 1,20,-1
147 -13 m 1,24,-1
 147 61 l 1,25,-1
 442 61 l 1,26,-1
 442 -13 l 1,27,-1
 147 -13 l 1,24,-1
112 107 m 1,28,-1
 112 178 l 1,29,-1
 177 178 l 1,30,-1
 177 107 l 1,31,-1
 112 107 l 1,28,-1
112 67 m 1,32,-1
 112 138 l 1,33,-1
 177 138 l 1,34,-1
 177 67 l 1,35,-1
 112 67 l 1,32,-1
112 27 m 1,36,-1
 112 98 l 1,37,-1
 177 98 l 1,38,-1
 177 27 l 1,39,-1
 112 27 l 1,36,-1
EndSplineSet
Validated: 5
EndChar

StartChar: m
Encoding: 109 109 65
Width: 767
Flags: W
LayerCount: 2
Fore
SplineSet
712 267 m 1,0,-1
 712 338 l 1,1,-1
 777 338 l 1,2,-1
 777 267 l 1,3,-1
 712 267 l 1,0,-1
712 227 m 1,4,-1
 712 298 l 1,5,-1
 777 298 l 1,6,-1
 777 227 l 1,7,-1
 712 227 l 1,4,-1
712 187 m 1,8,-1
 712 258 l 1,9,-1
 777 258 l 1,10,-1
 777 187 l 1,11,-1
 712 187 l 1,8,-1
447 307 m 1,12,-1
 447 381 l 1,13,-1
 742 381 l 1,14,-1
 742 307 l 1,15,-1
 447 307 l 1,12,-1
712 147 m 1,16,-1
 712 218 l 1,17,-1
 777 218 l 1,18,-1
 777 147 l 1,19,-1
 712 147 l 1,16,-1
712 107 m 1,20,-1
 712 178 l 1,21,-1
 777 178 l 1,22,-1
 777 107 l 1,23,-1
 712 107 l 1,20,-1
712 67 m 1,24,-1
 712 138 l 1,25,-1
 777 138 l 1,26,-1
 777 67 l 1,27,-1
 712 67 l 1,24,-1
712 27 m 1,28,-1
 712 98 l 1,29,-1
 777 98 l 1,30,-1
 777 27 l 1,31,-1
 712 27 l 1,28,-1
412 307 m 1,32,-1
 412 378 l 1,33,-1
 477 378 l 1,34,-1
 477 307 l 1,35,-1
 412 307 l 1,32,-1
712 -13 m 1,36,-1
 712 58 l 1,37,-1
 777 58 l 1,38,-1
 777 -13 l 1,39,-1
 712 -13 l 1,36,-1
412 267 m 1,40,-1
 412 338 l 1,41,-1
 477 338 l 1,42,-1
 477 267 l 1,43,-1
 412 267 l 1,40,-1
412 227 m 1,44,-1
 412 298 l 1,45,-1
 477 298 l 1,46,-1
 477 227 l 1,47,-1
 412 227 l 1,44,-1
412 187 m 1,48,-1
 412 258 l 1,49,-1
 477 258 l 1,50,-1
 477 187 l 1,51,-1
 412 187 l 1,48,-1
147 307 m 1,52,-1
 147 381 l 1,53,-1
 442 381 l 1,54,-1
 442 307 l 1,55,-1
 147 307 l 1,52,-1
412 147 m 1,56,-1
 412 218 l 1,57,-1
 477 218 l 1,58,-1
 477 147 l 1,59,-1
 412 147 l 1,56,-1
412 107 m 1,60,-1
 412 178 l 1,61,-1
 477 178 l 1,62,-1
 477 107 l 1,63,-1
 412 107 l 1,60,-1
412 67 m 1,64,-1
 412 138 l 1,65,-1
 477 138 l 1,66,-1
 477 67 l 1,67,-1
 412 67 l 1,64,-1
412 27 m 1,68,-1
 412 98 l 1,69,-1
 477 98 l 1,70,-1
 477 27 l 1,71,-1
 412 27 l 1,68,-1
412 -13 m 1,72,-1
 412 58 l 1,73,-1
 477 58 l 1,74,-1
 477 -13 l 1,75,-1
 412 -13 l 1,72,-1
112 267 m 1,76,-1
 112 338 l 1,77,-1
 177 338 l 1,78,-1
 177 267 l 1,79,-1
 112 267 l 1,76,-1
112 227 m 1,80,-1
 112 298 l 1,81,-1
 177 298 l 1,82,-1
 177 227 l 1,83,-1
 112 227 l 1,80,-1
112 187 m 1,84,-1
 112 258 l 1,85,-1
 177 258 l 1,86,-1
 177 187 l 1,87,-1
 112 187 l 1,84,-1
112 147 m 1,88,-1
 112 218 l 1,89,-1
 177 218 l 1,90,-1
 177 147 l 1,91,-1
 112 147 l 1,88,-1
112 107 m 1,92,-1
 112 178 l 1,93,-1
 177 178 l 1,94,-1
 177 107 l 1,95,-1
 112 107 l 1,92,-1
112 67 m 1,96,-1
 112 138 l 1,97,-1
 177 138 l 1,98,-1
 177 67 l 1,99,-1
 112 67 l 1,96,-1
112 27 m 1,100,-1
 112 98 l 1,101,-1
 177 98 l 1,102,-1
 177 27 l 1,103,-1
 112 27 l 1,100,-1
112 -13 m 1,104,-1
 112 58 l 1,105,-1
 177 58 l 1,106,-1
 177 -13 l 1,107,-1
 112 -13 l 1,104,-1
EndSplineSet
Validated: 5
EndChar

StartChar: n
Encoding: 110 110 66
Width: 467
Flags: W
LayerCount: 2
Fore
SplineSet
412 267 m 1,0,-1
 412 338 l 1,1,-1
 477 338 l 1,2,-1
 477 267 l 1,3,-1
 412 267 l 1,0,-1
412 227 m 1,4,-1
 412 298 l 1,5,-1
 477 298 l 1,6,-1
 477 227 l 1,7,-1
 412 227 l 1,4,-1
412 187 m 1,8,-1
 412 258 l 1,9,-1
 477 258 l 1,10,-1
 477 187 l 1,11,-1
 412 187 l 1,8,-1
147 307 m 1,12,-1
 147 381 l 1,13,-1
 442 381 l 1,14,-1
 442 307 l 1,15,-1
 147 307 l 1,12,-1
412 147 m 1,16,-1
 412 218 l 1,17,-1
 477 218 l 1,18,-1
 477 147 l 1,19,-1
 412 147 l 1,16,-1
412 107 m 1,20,-1
 412 178 l 1,21,-1
 477 178 l 1,22,-1
 477 107 l 1,23,-1
 412 107 l 1,20,-1
412 67 m 1,24,-1
 412 138 l 1,25,-1
 477 138 l 1,26,-1
 477 67 l 1,27,-1
 412 67 l 1,24,-1
412 27 m 1,28,-1
 412 98 l 1,29,-1
 477 98 l 1,30,-1
 477 27 l 1,31,-1
 412 27 l 1,28,-1
412 -13 m 1,32,-1
 412 58 l 1,33,-1
 477 58 l 1,34,-1
 477 -13 l 1,35,-1
 412 -13 l 1,32,-1
112 267 m 1,36,-1
 112 338 l 1,37,-1
 177 338 l 1,38,-1
 177 267 l 1,39,-1
 112 267 l 1,36,-1
112 227 m 1,40,-1
 112 298 l 1,41,-1
 177 298 l 1,42,-1
 177 227 l 1,43,-1
 112 227 l 1,40,-1
112 187 m 1,44,-1
 112 258 l 1,45,-1
 177 258 l 1,46,-1
 177 187 l 1,47,-1
 112 187 l 1,44,-1
112 147 m 1,48,-1
 112 218 l 1,49,-1
 177 218 l 1,50,-1
 177 147 l 1,51,-1
 112 147 l 1,48,-1
112 107 m 1,52,-1
 112 178 l 1,53,-1
 177 178 l 1,54,-1
 177 107 l 1,55,-1
 112 107 l 1,52,-1
112 67 m 1,56,-1
 112 138 l 1,57,-1
 177 138 l 1,58,-1
 177 67 l 1,59,-1
 112 67 l 1,56,-1
112 27 m 1,60,-1
 112 98 l 1,61,-1
 177 98 l 1,62,-1
 177 27 l 1,63,-1
 112 27 l 1,60,-1
112 -13 m 1,64,-1
 112 58 l 1,65,-1
 177 58 l 1,66,-1
 177 -13 l 1,67,-1
 112 -13 l 1,64,-1
EndSplineSet
Validated: 5
EndChar

StartChar: o
Encoding: 111 111 67
Width: 766
Flags: W
LayerCount: 2
Fore
SplineSet
712 267 m 1,0,-1
 712 338 l 1,1,-1
 777 338 l 1,2,-1
 777 267 l 1,3,-1
 712 267 l 1,0,-1
712 227 m 1,4,-1
 712 298 l 1,5,-1
 777 298 l 1,6,-1
 777 227 l 1,7,-1
 712 227 l 1,4,-1
712 187 m 1,8,-1
 712 258 l 1,9,-1
 777 258 l 1,10,-1
 777 187 l 1,11,-1
 712 187 l 1,8,-1
447 307 m 1,12,-1
 447 381 l 1,13,-1
 742 381 l 1,14,-1
 742 307 l 1,15,-1
 447 307 l 1,12,-1
712 147 m 1,16,-1
 712 218 l 1,17,-1
 777 218 l 1,18,-1
 777 147 l 1,19,-1
 712 147 l 1,16,-1
712 107 m 1,20,-1
 712 178 l 1,21,-1
 777 178 l 1,22,-1
 777 107 l 1,23,-1
 712 107 l 1,20,-1
712 67 m 1,24,-1
 712 138 l 1,25,-1
 777 138 l 1,26,-1
 777 67 l 1,27,-1
 712 67 l 1,24,-1
712 27 m 1,28,-1
 712 98 l 1,29,-1
 777 98 l 1,30,-1
 777 27 l 1,31,-1
 712 27 l 1,28,-1
412 307 m 1,32,-1
 412 378 l 1,33,-1
 477 378 l 1,34,-1
 477 307 l 1,35,-1
 412 307 l 1,32,-1
147 307 m 1,36,-1
 147 381 l 1,37,-1
 442 381 l 1,38,-1
 442 307 l 1,39,-1
 147 307 l 1,36,-1
447 -13 m 1,40,-1
 447 61 l 1,41,-1
 742 61 l 1,42,-1
 742 -13 l 1,43,-1
 447 -13 l 1,40,-1
412 -13 m 1,44,-1
 412 58 l 1,45,-1
 477 58 l 1,46,-1
 477 -13 l 1,47,-1
 412 -13 l 1,44,-1
112 267 m 1,48,-1
 112 338 l 1,49,-1
 177 338 l 1,50,-1
 177 267 l 1,51,-1
 112 267 l 1,48,-1
112 227 m 1,52,-1
 112 298 l 1,53,-1
 177 298 l 1,54,-1
 177 227 l 1,55,-1
 112 227 l 1,52,-1
112 187 m 1,56,-1
 112 258 l 1,57,-1
 177 258 l 1,58,-1
 177 187 l 1,59,-1
 112 187 l 1,56,-1
112 147 m 1,60,-1
 112 218 l 1,61,-1
 177 218 l 1,62,-1
 177 147 l 1,63,-1
 112 147 l 1,60,-1
147 -13 m 1,64,-1
 147 61 l 1,65,-1
 442 61 l 1,66,-1
 442 -13 l 1,67,-1
 147 -13 l 1,64,-1
112 107 m 1,68,-1
 112 178 l 1,69,-1
 177 178 l 1,70,-1
 177 107 l 1,71,-1
 112 107 l 1,68,-1
112 67 m 1,72,-1
 112 138 l 1,73,-1
 177 138 l 1,74,-1
 177 67 l 1,75,-1
 112 67 l 1,72,-1
112 27 m 1,76,-1
 112 98 l 1,77,-1
 177 98 l 1,78,-1
 177 27 l 1,79,-1
 112 27 l 1,76,-1
EndSplineSet
Validated: 5
EndChar

StartChar: p
Encoding: 112 112 68
Width: 725
Flags: W
LayerCount: 2
Fore
SplineSet
712 267 m 1,0,-1
 712 338 l 1,1,-1
 777 338 l 1,2,-1
 777 267 l 1,3,-1
 712 267 l 1,0,-1
712 227 m 1,4,-1
 712 298 l 1,5,-1
 777 298 l 1,6,-1
 777 227 l 1,7,-1
 712 227 l 1,4,-1
712 187 m 1,8,-1
 712 258 l 1,9,-1
 777 258 l 1,10,-1
 777 187 l 1,11,-1
 712 187 l 1,8,-1
447 307 m 1,12,-1
 447 381 l 1,13,-1
 742 381 l 1,14,-1
 742 307 l 1,15,-1
 447 307 l 1,12,-1
412 307 m 1,16,-1
 412 378 l 1,17,-1
 477 378 l 1,18,-1
 477 307 l 1,19,-1
 412 307 l 1,16,-1
447 147 m 1,20,-1
 447 221 l 1,21,-1
 742 221 l 1,22,-1
 742 147 l 1,23,-1
 447 147 l 1,20,-1
147 307 m 1,24,-1
 147 381 l 1,25,-1
 442 381 l 1,26,-1
 442 307 l 1,27,-1
 147 307 l 1,24,-1
412 147 m 1,28,-1
 412 218 l 1,29,-1
 477 218 l 1,30,-1
 477 147 l 1,31,-1
 412 147 l 1,28,-1
112 307 m 1,32,-1
 112 378 l 1,33,-1
 177 378 l 1,34,-1
 177 307 l 1,35,-1
 112 307 l 1,32,-1
147 147 m 1,36,-1
 147 221 l 1,37,-1
 442 221 l 1,38,-1
 442 147 l 1,39,-1
 147 147 l 1,36,-1
112 267 m 1,40,-1
 112 338 l 1,41,-1
 177 338 l 1,42,-1
 177 267 l 1,43,-1
 112 267 l 1,40,-1
112 227 m 1,44,-1
 112 298 l 1,45,-1
 177 298 l 1,46,-1
 177 227 l 1,47,-1
 112 227 l 1,44,-1
112 187 m 1,48,-1
 112 258 l 1,49,-1
 177 258 l 1,50,-1
 177 187 l 1,51,-1
 112 187 l 1,48,-1
112 147 m 1,52,-1
 112 218 l 1,53,-1
 177 218 l 1,54,-1
 177 147 l 1,55,-1
 112 147 l 1,52,-1
112 107 m 1,56,-1
 112 178 l 1,57,-1
 177 178 l 1,58,-1
 177 107 l 1,59,-1
 112 107 l 1,56,-1
112 67 m 1,60,-1
 112 138 l 1,61,-1
 177 138 l 1,62,-1
 177 67 l 1,63,-1
 112 67 l 1,60,-1
112 27 m 1,64,-1
 112 98 l 1,65,-1
 177 98 l 1,66,-1
 177 27 l 1,67,-1
 112 27 l 1,64,-1
112 -13 m 1,68,-1
 112 58 l 1,69,-1
 177 58 l 1,70,-1
 177 -13 l 1,71,-1
 112 -13 l 1,68,-1
EndSplineSet
Validated: 5
EndChar

StartChar: q
Encoding: 113 113 69
Width: 768
Flags: W
LayerCount: 2
Fore
SplineSet
712 307 m 1,0,-1
 712 378 l 1,1,-1
 777 378 l 1,2,-1
 777 307 l 1,3,-1
 712 307 l 1,0,-1
712 267 m 1,4,-1
 712 338 l 1,5,-1
 777 338 l 1,6,-1
 777 267 l 1,7,-1
 712 267 l 1,4,-1
712 227 m 1,8,-1
 712 298 l 1,9,-1
 777 298 l 1,10,-1
 777 227 l 1,11,-1
 712 227 l 1,8,-1
712 187 m 1,12,-1
 712 258 l 1,13,-1
 777 258 l 1,14,-1
 777 187 l 1,15,-1
 712 187 l 1,12,-1
447 307 m 1,16,-1
 447 381 l 1,17,-1
 742 381 l 1,18,-1
 742 307 l 1,19,-1
 447 307 l 1,16,-1
712 147 m 1,20,-1
 712 218 l 1,21,-1
 777 218 l 1,22,-1
 777 147 l 1,23,-1
 712 147 l 1,20,-1
712 107 m 1,24,-1
 712 178 l 1,25,-1
 777 178 l 1,26,-1
 777 107 l 1,27,-1
 712 107 l 1,24,-1
712 67 m 1,28,-1
 712 138 l 1,29,-1
 777 138 l 1,30,-1
 777 67 l 1,31,-1
 712 67 l 1,28,-1
712 27 m 1,32,-1
 712 98 l 1,33,-1
 777 98 l 1,34,-1
 777 27 l 1,35,-1
 712 27 l 1,32,-1
412 307 m 1,36,-1
 412 378 l 1,37,-1
 477 378 l 1,38,-1
 477 307 l 1,39,-1
 412 307 l 1,36,-1
447 147 m 1,40,-1
 447 221 l 1,41,-1
 742 221 l 1,42,-1
 742 147 l 1,43,-1
 447 147 l 1,40,-1
712 -13 m 1,44,-1
 712 58 l 1,45,-1
 777 58 l 1,46,-1
 777 -13 l 1,47,-1
 712 -13 l 1,44,-1
147 307 m 1,48,-1
 147 381 l 1,49,-1
 442 381 l 1,50,-1
 442 307 l 1,51,-1
 147 307 l 1,48,-1
412 147 m 1,52,-1
 412 218 l 1,53,-1
 477 218 l 1,54,-1
 477 147 l 1,55,-1
 412 147 l 1,52,-1
147 147 m 1,56,-1
 147 221 l 1,57,-1
 442 221 l 1,58,-1
 442 147 l 1,59,-1
 147 147 l 1,56,-1
112 267 m 1,60,-1
 112 338 l 1,61,-1
 177 338 l 1,62,-1
 177 267 l 1,63,-1
 112 267 l 1,60,-1
112 227 m 1,64,-1
 112 298 l 1,65,-1
 177 298 l 1,66,-1
 177 227 l 1,67,-1
 112 227 l 1,64,-1
112 187 m 1,68,-1
 112 258 l 1,69,-1
 177 258 l 1,70,-1
 177 187 l 1,71,-1
 112 187 l 1,68,-1
EndSplineSet
Validated: 5
EndChar

StartChar: r
Encoding: 114 114 70
Width: 725
Flags: W
LayerCount: 2
Fore
SplineSet
712 307 m 1,0,-1
 712 378 l 1,1,-1
 777 378 l 1,2,-1
 777 307 l 1,3,-1
 712 307 l 1,0,-1
447 307 m 1,4,-1
 447 381 l 1,5,-1
 742 381 l 1,6,-1
 742 307 l 1,7,-1
 447 307 l 1,4,-1
412 307 m 1,8,-1
 412 378 l 1,9,-1
 477 378 l 1,10,-1
 477 307 l 1,11,-1
 412 307 l 1,8,-1
147 307 m 1,12,-1
 147 381 l 1,13,-1
 442 381 l 1,14,-1
 442 307 l 1,15,-1
 147 307 l 1,12,-1
112 267 m 1,16,-1
 112 338 l 1,17,-1
 177 338 l 1,18,-1
 177 267 l 1,19,-1
 112 267 l 1,16,-1
112 227 m 1,20,-1
 112 298 l 1,21,-1
 177 298 l 1,22,-1
 177 227 l 1,23,-1
 112 227 l 1,20,-1
112 187 m 1,24,-1
 112 258 l 1,25,-1
 177 258 l 1,26,-1
 177 187 l 1,27,-1
 112 187 l 1,24,-1
112 147 m 1,28,-1
 112 218 l 1,29,-1
 177 218 l 1,30,-1
 177 147 l 1,31,-1
 112 147 l 1,28,-1
112 107 m 1,32,-1
 112 178 l 1,33,-1
 177 178 l 1,34,-1
 177 107 l 1,35,-1
 112 107 l 1,32,-1
112 67 m 1,36,-1
 112 138 l 1,37,-1
 177 138 l 1,38,-1
 177 67 l 1,39,-1
 112 67 l 1,36,-1
112 27 m 1,40,-1
 112 98 l 1,41,-1
 177 98 l 1,42,-1
 177 27 l 1,43,-1
 112 27 l 1,40,-1
112 -13 m 1,44,-1
 112 58 l 1,45,-1
 177 58 l 1,46,-1
 177 -13 l 1,47,-1
 112 -13 l 1,44,-1
EndSplineSet
Validated: 5
EndChar

StartChar: s
Encoding: 115 115 71
Width: 748
Flags: W
LayerCount: 2
Fore
SplineSet
712 307 m 1,0,-1
 712 378 l 1,1,-1
 777 378 l 1,2,-1
 777 307 l 1,3,-1
 712 307 l 1,0,-1
447 307 m 1,4,-1
 447 381 l 1,5,-1
 742 381 l 1,6,-1
 742 307 l 1,7,-1
 447 307 l 1,4,-1
712 107 m 1,8,-1
 712 178 l 1,9,-1
 777 178 l 1,10,-1
 777 107 l 1,11,-1
 712 107 l 1,8,-1
712 67 m 1,12,-1
 712 138 l 1,13,-1
 777 138 l 1,14,-1
 777 67 l 1,15,-1
 712 67 l 1,12,-1
712 27 m 1,16,-1
 712 98 l 1,17,-1
 777 98 l 1,18,-1
 777 27 l 1,19,-1
 712 27 l 1,16,-1
412 307 m 1,20,-1
 412 378 l 1,21,-1
 477 378 l 1,22,-1
 477 307 l 1,23,-1
 412 307 l 1,20,-1
447 147 m 1,24,-1
 447 221 l 1,25,-1
 742 221 l 1,26,-1
 742 147 l 1,27,-1
 447 147 l 1,24,-1
147 307 m 1,28,-1
 147 381 l 1,29,-1
 442 381 l 1,30,-1
 442 307 l 1,31,-1
 147 307 l 1,28,-1
412 147 m 1,32,-1
 412 218 l 1,33,-1
 477 218 l 1,34,-1
 477 147 l 1,35,-1
 412 147 l 1,32,-1
447 -13 m 1,36,-1
 447 61 l 1,37,-1
 742 61 l 1,38,-1
 742 -13 l 1,39,-1
 447 -13 l 1,36,-1
147 147 m 1,40,-1
 147 221 l 1,41,-1
 442 221 l 1,42,-1
 442 147 l 1,43,-1
 147 147 l 1,40,-1
412 -13 m 1,44,-1
 412 58 l 1,45,-1
 477 58 l 1,46,-1
 477 -13 l 1,47,-1
 412 -13 l 1,44,-1
112 267 m 1,48,-1
 112 338 l 1,49,-1
 177 338 l 1,50,-1
 177 267 l 1,51,-1
 112 267 l 1,48,-1
112 227 m 1,52,-1
 112 298 l 1,53,-1
 177 298 l 1,54,-1
 177 227 l 1,55,-1
 112 227 l 1,52,-1
112 187 m 1,56,-1
 112 258 l 1,57,-1
 177 258 l 1,58,-1
 177 187 l 1,59,-1
 112 187 l 1,56,-1
147 -13 m 1,60,-1
 147 61 l 1,61,-1
 442 61 l 1,62,-1
 442 -13 l 1,63,-1
 147 -13 l 1,60,-1
112 -13 m 1,64,-1
 112 58 l 1,65,-1
 177 58 l 1,66,-1
 177 -13 l 1,67,-1
 112 -13 l 1,64,-1
EndSplineSet
Validated: 5
EndChar

StartChar: t
Encoding: 116 116 72
Width: 733
Flags: W
LayerCount: 2
Fore
SplineSet
712 227 m 1,0,-1
 712 298 l 1,1,-1
 777 298 l 1,2,-1
 777 227 l 1,3,-1
 712 227 l 1,0,-1
447 227 m 1,4,-1
 447 301 l 1,5,-1
 742 301 l 1,6,-1
 742 227 l 1,7,-1
 447 227 l 1,4,-1
412 307 m 1,8,-1
 412 378 l 1,9,-1
 477 378 l 1,10,-1
 477 307 l 1,11,-1
 412 307 l 1,8,-1
712 -13 m 1,12,-1
 712 58 l 1,13,-1
 777 58 l 1,14,-1
 777 -13 l 1,15,-1
 712 -13 l 1,12,-1
412 267 m 1,16,-1
 412 338 l 1,17,-1
 477 338 l 1,18,-1
 477 267 l 1,19,-1
 412 267 l 1,16,-1
412 227 m 1,20,-1
 412 298 l 1,21,-1
 477 298 l 1,22,-1
 477 227 l 1,23,-1
 412 227 l 1,20,-1
412 187 m 1,24,-1
 412 258 l 1,25,-1
 477 258 l 1,26,-1
 477 187 l 1,27,-1
 412 187 l 1,24,-1
412 147 m 1,28,-1
 412 218 l 1,29,-1
 477 218 l 1,30,-1
 477 147 l 1,31,-1
 412 147 l 1,28,-1
447 -13 m 1,32,-1
 447 61 l 1,33,-1
 742 61 l 1,34,-1
 742 -13 l 1,35,-1
 447 -13 l 1,32,-1
412 107 m 1,36,-1
 412 178 l 1,37,-1
 477 178 l 1,38,-1
 477 107 l 1,39,-1
 412 107 l 1,36,-1
147 227 m 1,40,-1
 147 301 l 1,41,-1
 442 301 l 1,42,-1
 442 227 l 1,43,-1
 147 227 l 1,40,-1
412 67 m 1,44,-1
 412 138 l 1,45,-1
 477 138 l 1,46,-1
 477 67 l 1,47,-1
 412 67 l 1,44,-1
412 27 m 1,48,-1
 412 98 l 1,49,-1
 477 98 l 1,50,-1
 477 27 l 1,51,-1
 412 27 l 1,48,-1
112 227 m 1,52,-1
 112 298 l 1,53,-1
 177 298 l 1,54,-1
 177 227 l 1,55,-1
 112 227 l 1,52,-1
EndSplineSet
Validated: 5
EndChar

StartChar: u
Encoding: 117 117 73
Width: 468
Flags: W
LayerCount: 2
Fore
SplineSet
412 307 m 1,0,-1
 412 378 l 1,1,-1
 477 378 l 1,2,-1
 477 307 l 1,3,-1
 412 307 l 1,0,-1
412 267 m 1,4,-1
 412 338 l 1,5,-1
 477 338 l 1,6,-1
 477 267 l 1,7,-1
 412 267 l 1,4,-1
412 227 m 1,8,-1
 412 298 l 1,9,-1
 477 298 l 1,10,-1
 477 227 l 1,11,-1
 412 227 l 1,8,-1
412 187 m 1,12,-1
 412 258 l 1,13,-1
 477 258 l 1,14,-1
 477 187 l 1,15,-1
 412 187 l 1,12,-1
412 147 m 1,16,-1
 412 218 l 1,17,-1
 477 218 l 1,18,-1
 477 147 l 1,19,-1
 412 147 l 1,16,-1
412 107 m 1,20,-1
 412 178 l 1,21,-1
 477 178 l 1,22,-1
 477 107 l 1,23,-1
 412 107 l 1,20,-1
412 67 m 1,24,-1
 412 138 l 1,25,-1
 477 138 l 1,26,-1
 477 67 l 1,27,-1
 412 67 l 1,24,-1
412 27 m 1,28,-1
 412 98 l 1,29,-1
 477 98 l 1,30,-1
 477 27 l 1,31,-1
 412 27 l 1,28,-1
112 307 m 1,32,-1
 112 378 l 1,33,-1
 177 378 l 1,34,-1
 177 307 l 1,35,-1
 112 307 l 1,32,-1
412 -13 m 1,36,-1
 412 58 l 1,37,-1
 477 58 l 1,38,-1
 477 -13 l 1,39,-1
 412 -13 l 1,36,-1
112 267 m 1,40,-1
 112 338 l 1,41,-1
 177 338 l 1,42,-1
 177 267 l 1,43,-1
 112 267 l 1,40,-1
112 227 m 1,44,-1
 112 298 l 1,45,-1
 177 298 l 1,46,-1
 177 227 l 1,47,-1
 112 227 l 1,44,-1
112 187 m 1,48,-1
 112 258 l 1,49,-1
 177 258 l 1,50,-1
 177 187 l 1,51,-1
 112 187 l 1,48,-1
112 147 m 1,52,-1
 112 218 l 1,53,-1
 177 218 l 1,54,-1
 177 147 l 1,55,-1
 112 147 l 1,52,-1
147 -13 m 1,56,-1
 147 61 l 1,57,-1
 442 61 l 1,58,-1
 442 -13 l 1,59,-1
 147 -13 l 1,56,-1
112 107 m 1,60,-1
 112 178 l 1,61,-1
 177 178 l 1,62,-1
 177 107 l 1,63,-1
 112 107 l 1,60,-1
112 67 m 1,64,-1
 112 138 l 1,65,-1
 177 138 l 1,66,-1
 177 67 l 1,67,-1
 112 67 l 1,64,-1
112 27 m 1,68,-1
 112 98 l 1,69,-1
 177 98 l 1,70,-1
 177 27 l 1,71,-1
 112 27 l 1,68,-1
EndSplineSet
Validated: 5
EndChar

StartChar: v
Encoding: 118 118 74
Width: 764
Flags: W
LayerCount: 2
Fore
SplineSet
712 307 m 1,0,-1
 712 378 l 1,1,-1
 777 378 l 1,2,-1
 777 307 l 1,3,-1
 712 307 l 1,0,-1
712 267 m 1,4,-1
 712 338 l 1,5,-1
 777 338 l 1,6,-1
 777 267 l 1,7,-1
 712 267 l 1,4,-1
712 227 m 1,8,-1
 712 298 l 1,9,-1
 777 298 l 1,10,-1
 777 227 l 1,11,-1
 712 227 l 1,8,-1
712 187 m 1,12,-1
 712 258 l 1,13,-1
 777 258 l 1,14,-1
 777 187 l 1,15,-1
 712 187 l 1,12,-1
712 147 m 1,16,-1
 712 218 l 1,17,-1
 777 218 l 1,18,-1
 777 147 l 1,19,-1
 712 147 l 1,16,-1
712 107 m 1,20,-1
 712 178 l 1,21,-1
 777 178 l 1,22,-1
 777 107 l 1,23,-1
 712 107 l 1,20,-1
712 67 m 1,24,-1
 712 138 l 1,25,-1
 777 138 l 1,26,-1
 777 67 l 1,27,-1
 712 67 l 1,24,-1
712 27 m 1,28,-1
 712 98 l 1,29,-1
 777 98 l 1,30,-1
 777 27 l 1,31,-1
 712 27 l 1,28,-1
447 27 m 1,32,-1
 447 101 l 1,33,-1
 742 101 l 1,34,-1
 742 27 l 1,35,-1
 447 27 l 1,32,-1
412 27 m 1,36,-1
 412 98 l 1,37,-1
 477 98 l 1,38,-1
 477 27 l 1,39,-1
 412 27 l 1,36,-1
112 307 m 1,40,-1
 112 378 l 1,41,-1
 177 378 l 1,42,-1
 177 307 l 1,43,-1
 112 307 l 1,40,-1
412 -13 m 1,44,-1
 412 58 l 1,45,-1
 477 58 l 1,46,-1
 477 -13 l 1,47,-1
 412 -13 l 1,44,-1
112 267 m 1,48,-1
 112 338 l 1,49,-1
 177 338 l 1,50,-1
 177 267 l 1,51,-1
 112 267 l 1,48,-1
112 227 m 1,52,-1
 112 298 l 1,53,-1
 177 298 l 1,54,-1
 177 227 l 1,55,-1
 112 227 l 1,52,-1
112 187 m 1,56,-1
 112 258 l 1,57,-1
 177 258 l 1,58,-1
 177 187 l 1,59,-1
 112 187 l 1,56,-1
147 27 m 1,60,-1
 147 101 l 1,61,-1
 442 101 l 1,62,-1
 442 27 l 1,63,-1
 147 27 l 1,60,-1
112 147 m 1,64,-1
 112 218 l 1,65,-1
 177 218 l 1,66,-1
 177 147 l 1,67,-1
 112 147 l 1,64,-1
112 107 m 1,68,-1
 112 178 l 1,69,-1
 177 178 l 1,70,-1
 177 107 l 1,71,-1
 112 107 l 1,68,-1
112 67 m 1,72,-1
 112 138 l 1,73,-1
 177 138 l 1,74,-1
 177 67 l 1,75,-1
 112 67 l 1,72,-1
112 27 m 1,76,-1
 112 98 l 1,77,-1
 177 98 l 1,78,-1
 177 27 l 1,79,-1
 112 27 l 1,76,-1
EndSplineSet
Validated: 5
EndChar

StartChar: w
Encoding: 119 119 75
Width: 767
Flags: W
LayerCount: 2
Fore
SplineSet
712 307 m 1,0,-1
 712 378 l 1,1,-1
 777 378 l 1,2,-1
 777 307 l 1,3,-1
 712 307 l 1,0,-1
712 267 m 1,4,-1
 712 338 l 1,5,-1
 777 338 l 1,6,-1
 777 267 l 1,7,-1
 712 267 l 1,4,-1
712 227 m 1,8,-1
 712 298 l 1,9,-1
 777 298 l 1,10,-1
 777 227 l 1,11,-1
 712 227 l 1,8,-1
712 187 m 1,12,-1
 712 258 l 1,13,-1
 777 258 l 1,14,-1
 777 187 l 1,15,-1
 712 187 l 1,12,-1
712 147 m 1,16,-1
 712 218 l 1,17,-1
 777 218 l 1,18,-1
 777 147 l 1,19,-1
 712 147 l 1,16,-1
712 107 m 1,20,-1
 712 178 l 1,21,-1
 777 178 l 1,22,-1
 777 107 l 1,23,-1
 712 107 l 1,20,-1
712 67 m 1,24,-1
 712 138 l 1,25,-1
 777 138 l 1,26,-1
 777 67 l 1,27,-1
 712 67 l 1,24,-1
712 27 m 1,28,-1
 712 98 l 1,29,-1
 777 98 l 1,30,-1
 777 27 l 1,31,-1
 712 27 l 1,28,-1
412 307 m 1,32,-1
 412 378 l 1,33,-1
 477 378 l 1,34,-1
 477 307 l 1,35,-1
 412 307 l 1,32,-1
412 267 m 1,36,-1
 412 338 l 1,37,-1
 477 338 l 1,38,-1
 477 267 l 1,39,-1
 412 267 l 1,36,-1
412 227 m 1,40,-1
 412 298 l 1,41,-1
 477 298 l 1,42,-1
 477 227 l 1,43,-1
 412 227 l 1,40,-1
412 187 m 1,44,-1
 412 258 l 1,45,-1
 477 258 l 1,46,-1
 477 187 l 1,47,-1
 412 187 l 1,44,-1
412 147 m 1,48,-1
 412 218 l 1,49,-1
 477 218 l 1,50,-1
 477 147 l 1,51,-1
 412 147 l 1,48,-1
447 -13 m 1,52,-1
 447 61 l 1,53,-1
 742 61 l 1,54,-1
 742 -13 l 1,55,-1
 447 -13 l 1,52,-1
412 107 m 1,56,-1
 412 178 l 1,57,-1
 477 178 l 1,58,-1
 477 107 l 1,59,-1
 412 107 l 1,56,-1
412 67 m 1,60,-1
 412 138 l 1,61,-1
 477 138 l 1,62,-1
 477 67 l 1,63,-1
 412 67 l 1,60,-1
412 27 m 1,64,-1
 412 98 l 1,65,-1
 477 98 l 1,66,-1
 477 27 l 1,67,-1
 412 27 l 1,64,-1
112 307 m 1,68,-1
 112 378 l 1,69,-1
 177 378 l 1,70,-1
 177 307 l 1,71,-1
 112 307 l 1,68,-1
412 -13 m 1,72,-1
 412 58 l 1,73,-1
 477 58 l 1,74,-1
 477 -13 l 1,75,-1
 412 -13 l 1,72,-1
112 267 m 1,76,-1
 112 338 l 1,77,-1
 177 338 l 1,78,-1
 177 267 l 1,79,-1
 112 267 l 1,76,-1
112 227 m 1,80,-1
 112 298 l 1,81,-1
 177 298 l 1,82,-1
 177 227 l 1,83,-1
 112 227 l 1,80,-1
112 187 m 1,84,-1
 112 258 l 1,85,-1
 177 258 l 1,86,-1
 177 187 l 1,87,-1
 112 187 l 1,84,-1
112 147 m 1,88,-1
 112 218 l 1,89,-1
 177 218 l 1,90,-1
 177 147 l 1,91,-1
 112 147 l 1,88,-1
147 -13 m 1,92,-1
 147 61 l 1,93,-1
 442 61 l 1,94,-1
 442 -13 l 1,95,-1
 147 -13 l 1,92,-1
112 107 m 1,96,-1
 112 178 l 1,97,-1
 177 178 l 1,98,-1
 177 107 l 1,99,-1
 112 107 l 1,96,-1
112 67 m 1,100,-1
 112 138 l 1,101,-1
 177 138 l 1,102,-1
 177 67 l 1,103,-1
 112 67 l 1,100,-1
112 27 m 1,104,-1
 112 98 l 1,105,-1
 177 98 l 1,106,-1
 177 27 l 1,107,-1
 112 27 l 1,104,-1
EndSplineSet
Validated: 5
EndChar

StartChar: x
Encoding: 120 120 76
Width: 758
Flags: W
LayerCount: 2
Fore
SplineSet
712 307 m 1,0,-1
 712 378 l 1,1,-1
 777 378 l 1,2,-1
 777 307 l 1,3,-1
 712 307 l 1,0,-1
712 267 m 1,4,-1
 712 338 l 1,5,-1
 777 338 l 1,6,-1
 777 267 l 1,7,-1
 712 267 l 1,4,-1
712 227 m 1,8,-1
 712 298 l 1,9,-1
 777 298 l 1,10,-1
 777 227 l 1,11,-1
 712 227 l 1,8,-1
447 227 m 1,12,-1
 447 301 l 1,13,-1
 742 301 l 1,14,-1
 742 227 l 1,15,-1
 447 227 l 1,12,-1
712 67 m 1,16,-1
 712 138 l 1,17,-1
 777 138 l 1,18,-1
 777 67 l 1,19,-1
 712 67 l 1,16,-1
712 27 m 1,20,-1
 712 98 l 1,21,-1
 777 98 l 1,22,-1
 777 27 l 1,23,-1
 712 27 l 1,20,-1
712 -13 m 1,24,-1
 712 58 l 1,25,-1
 777 58 l 1,26,-1
 777 -13 l 1,27,-1
 712 -13 l 1,24,-1
412 227 m 1,28,-1
 412 298 l 1,29,-1
 477 298 l 1,30,-1
 477 227 l 1,31,-1
 412 227 l 1,28,-1
447 67 m 1,32,-1
 447 141 l 1,33,-1
 742 141 l 1,34,-1
 742 67 l 1,35,-1
 447 67 l 1,32,-1
412 187 m 1,36,-1
 412 258 l 1,37,-1
 477 258 l 1,38,-1
 477 187 l 1,39,-1
 412 187 l 1,36,-1
412 147 m 1,40,-1
 412 218 l 1,41,-1
 477 218 l 1,42,-1
 477 147 l 1,43,-1
 412 147 l 1,40,-1
412 107 m 1,44,-1
 412 178 l 1,45,-1
 477 178 l 1,46,-1
 477 107 l 1,47,-1
 412 107 l 1,44,-1
147 227 m 1,48,-1
 147 301 l 1,49,-1
 442 301 l 1,50,-1
 442 227 l 1,51,-1
 147 227 l 1,48,-1
412 67 m 1,52,-1
 412 138 l 1,53,-1
 477 138 l 1,54,-1
 477 67 l 1,55,-1
 412 67 l 1,52,-1
112 307 m 1,56,-1
 112 378 l 1,57,-1
 177 378 l 1,58,-1
 177 307 l 1,59,-1
 112 307 l 1,56,-1
112 267 m 1,60,-1
 112 338 l 1,61,-1
 177 338 l 1,62,-1
 177 267 l 1,63,-1
 112 267 l 1,60,-1
112 227 m 1,64,-1
 112 298 l 1,65,-1
 177 298 l 1,66,-1
 177 227 l 1,67,-1
 112 227 l 1,64,-1
147 67 m 1,68,-1
 147 141 l 1,69,-1
 442 141 l 1,70,-1
 442 67 l 1,71,-1
 147 67 l 1,68,-1
112 67 m 1,72,-1
 112 138 l 1,73,-1
 177 138 l 1,74,-1
 177 67 l 1,75,-1
 112 67 l 1,72,-1
112 27 m 1,76,-1
 112 98 l 1,77,-1
 177 98 l 1,78,-1
 177 27 l 1,79,-1
 112 27 l 1,76,-1
112 -13 m 1,80,-1
 112 58 l 1,81,-1
 177 58 l 1,82,-1
 177 -13 l 1,83,-1
 112 -13 l 1,80,-1
EndSplineSet
Validated: 5
EndChar

StartChar: y
Encoding: 121 121 77
Width: 767
Flags: W
LayerCount: 2
Fore
SplineSet
712 307 m 1,0,-1
 712 378 l 1,1,-1
 777 378 l 1,2,-1
 777 307 l 1,3,-1
 712 307 l 1,0,-1
712 267 m 1,4,-1
 712 338 l 1,5,-1
 777 338 l 1,6,-1
 777 267 l 1,7,-1
 712 267 l 1,4,-1
712 227 m 1,8,-1
 712 298 l 1,9,-1
 777 298 l 1,10,-1
 777 227 l 1,11,-1
 712 227 l 1,8,-1
712 187 m 1,12,-1
 712 258 l 1,13,-1
 777 258 l 1,14,-1
 777 187 l 1,15,-1
 712 187 l 1,12,-1
712 147 m 1,16,-1
 712 218 l 1,17,-1
 777 218 l 1,18,-1
 777 147 l 1,19,-1
 712 147 l 1,16,-1
712 107 m 1,20,-1
 712 178 l 1,21,-1
 777 178 l 1,22,-1
 777 107 l 1,23,-1
 712 107 l 1,20,-1
712 67 m 1,24,-1
 712 138 l 1,25,-1
 777 138 l 1,26,-1
 777 67 l 1,27,-1
 712 67 l 1,24,-1
712 27 m 1,28,-1
 712 98 l 1,29,-1
 777 98 l 1,30,-1
 777 27 l 1,31,-1
 712 27 l 1,28,-1
447 147 m 1,32,-1
 447 221 l 1,33,-1
 742 221 l 1,34,-1
 742 147 l 1,35,-1
 447 147 l 1,32,-1
412 147 m 1,36,-1
 412 218 l 1,37,-1
 477 218 l 1,38,-1
 477 147 l 1,39,-1
 412 147 l 1,36,-1
447 -13 m 1,40,-1
 447 61 l 1,41,-1
 742 61 l 1,42,-1
 742 -13 l 1,43,-1
 447 -13 l 1,40,-1
112 307 m 1,44,-1
 112 378 l 1,45,-1
 177 378 l 1,46,-1
 177 307 l 1,47,-1
 112 307 l 1,44,-1
147 147 m 1,48,-1
 147 221 l 1,49,-1
 442 221 l 1,50,-1
 442 147 l 1,51,-1
 147 147 l 1,48,-1
412 -13 m 1,52,-1
 412 58 l 1,53,-1
 477 58 l 1,54,-1
 477 -13 l 1,55,-1
 412 -13 l 1,52,-1
112 267 m 1,56,-1
 112 338 l 1,57,-1
 177 338 l 1,58,-1
 177 267 l 1,59,-1
 112 267 l 1,56,-1
112 227 m 1,60,-1
 112 298 l 1,61,-1
 177 298 l 1,62,-1
 177 227 l 1,63,-1
 112 227 l 1,60,-1
112 187 m 1,64,-1
 112 258 l 1,65,-1
 177 258 l 1,66,-1
 177 187 l 1,67,-1
 112 187 l 1,64,-1
147 -13 m 1,68,-1
 147 61 l 1,69,-1
 442 61 l 1,70,-1
 442 -13 l 1,71,-1
 147 -13 l 1,68,-1
112 -13 m 1,72,-1
 112 58 l 1,73,-1
 177 58 l 1,74,-1
 177 -13 l 1,75,-1
 112 -13 l 1,72,-1
EndSplineSet
Validated: 5
EndChar

StartChar: z
Encoding: 122 122 78
Width: 745
Flags: W
LayerCount: 2
Fore
SplineSet
712 307 m 1,0,-1
 712 378 l 1,1,-1
 777 378 l 1,2,-1
 777 307 l 1,3,-1
 712 307 l 1,0,-1
712 267 m 1,4,-1
 712 338 l 1,5,-1
 777 338 l 1,6,-1
 777 267 l 1,7,-1
 712 267 l 1,4,-1
712 227 m 1,8,-1
 712 298 l 1,9,-1
 777 298 l 1,10,-1
 777 227 l 1,11,-1
 712 227 l 1,8,-1
712 187 m 1,12,-1
 712 258 l 1,13,-1
 777 258 l 1,14,-1
 777 187 l 1,15,-1
 712 187 l 1,12,-1
447 307 m 1,16,-1
 447 381 l 1,17,-1
 742 381 l 1,18,-1
 742 307 l 1,19,-1
 447 307 l 1,16,-1
712 147 m 1,20,-1
 712 218 l 1,21,-1
 777 218 l 1,22,-1
 777 147 l 1,23,-1
 712 147 l 1,20,-1
412 307 m 1,24,-1
 412 378 l 1,25,-1
 477 378 l 1,26,-1
 477 307 l 1,27,-1
 412 307 l 1,24,-1
447 147 m 1,28,-1
 447 221 l 1,29,-1
 742 221 l 1,30,-1
 742 147 l 1,31,-1
 447 147 l 1,28,-1
712 -13 m 1,32,-1
 712 58 l 1,33,-1
 777 58 l 1,34,-1
 777 -13 l 1,35,-1
 712 -13 l 1,32,-1
147 307 m 1,36,-1
 147 381 l 1,37,-1
 442 381 l 1,38,-1
 442 307 l 1,39,-1
 147 307 l 1,36,-1
412 147 m 1,40,-1
 412 218 l 1,41,-1
 477 218 l 1,42,-1
 477 147 l 1,43,-1
 412 147 l 1,40,-1
447 -13 m 1,44,-1
 447 61 l 1,45,-1
 742 61 l 1,46,-1
 742 -13 l 1,47,-1
 447 -13 l 1,44,-1
112 307 m 1,48,-1
 112 378 l 1,49,-1
 177 378 l 1,50,-1
 177 307 l 1,51,-1
 112 307 l 1,48,-1
147 147 m 1,52,-1
 147 221 l 1,53,-1
 442 221 l 1,54,-1
 442 147 l 1,55,-1
 147 147 l 1,52,-1
412 -13 m 1,56,-1
 412 58 l 1,57,-1
 477 58 l 1,58,-1
 477 -13 l 1,59,-1
 412 -13 l 1,56,-1
112 147 m 1,60,-1
 112 218 l 1,61,-1
 177 218 l 1,62,-1
 177 147 l 1,63,-1
 112 147 l 1,60,-1
147 -13 m 1,64,-1
 147 61 l 1,65,-1
 442 61 l 1,66,-1
 442 -13 l 1,67,-1
 147 -13 l 1,64,-1
112 107 m 1,68,-1
 112 178 l 1,69,-1
 177 178 l 1,70,-1
 177 107 l 1,71,-1
 112 107 l 1,68,-1
112 67 m 1,72,-1
 112 138 l 1,73,-1
 177 138 l 1,74,-1
 177 67 l 1,75,-1
 112 67 l 1,72,-1
112 27 m 1,76,-1
 112 98 l 1,77,-1
 177 98 l 1,78,-1
 177 27 l 1,79,-1
 112 27 l 1,76,-1
112 -13 m 1,80,-1
 112 58 l 1,81,-1
 177 58 l 1,82,-1
 177 -13 l 1,83,-1
 112 -13 l 1,80,-1
EndSplineSet
Validated: 5
EndChar

StartChar: comma
Encoding: 44 44 79
Width: 768
Flags: W
LayerCount: 2
Fore
SplineSet
447 -13 m 5,0,-1
 447 61 l 1029,1,-1
412 107 m 5,2,-1
 412 178 l 5,3,-1
 477 178 l 5,4,-1
 477 107 l 5,5,-1
 412 107 l 5,2,-1
412 67 m 5,6,-1
 412 138 l 5,7,-1
 477 138 l 5,8,-1
 477 67 l 5,9,-1
 412 67 l 5,6,-1
412 27 m 5,10,-1
 412 98 l 5,11,-1
 477 98 l 5,12,-1
 477 27 l 5,13,-1
 412 27 l 5,10,-1
412 -13 m 5,14,-1
 412 58 l 5,15,-1
 477 58 l 5,16,-1
 477 -13 l 5,17,-1
 412 -13 l 5,14,-1
442 61 m 5,18,-1
 442 -13 l 1029,19,-1
EndSplineSet
EndChar

StartChar: period
Encoding: 46 46 80
Width: 768
Flags: W
LayerCount: 2
Fore
SplineSet
447 -13 m 1,0,-1
 447 61 l 1025,1,-1
477 67 m 1,2,-1
 412 67 l 1025,3,-1
477 27 m 1,4,-1
 412 27 l 1025,5,-1
412 -13 m 1,6,-1
 412 58 l 1,7,-1
 477 58 l 1,8,-1
 477 -13 l 1,9,-1
 412 -13 l 1,6,-1
442 61 m 1,10,-1
 442 -13 l 1025,11,-1
EndSplineSet
EndChar

StartChar: hyphen
Encoding: 45 45 81
Width: 620
Flags: W
LayerCount: 2
Fore
SplineSet
672 387 m 1,0,-1
 607 387 l 1025,1,-1
672 347 m 1,2,-1
 607 347 l 1025,3,-1
607 307 m 1,4,-1
 607 378 l 1,5,-1
 672 378 l 1,6,-1
 672 307 l 1,7,-1
 607 307 l 1,4,-1
342 307 m 1,8,-1
 342 381 l 1,9,-1
 637 381 l 1,10,-1
 637 307 l 1,11,-1
 342 307 l 1,8,-1
307 307 m 1,12,-1
 307 378 l 1,13,-1
 372 378 l 1,14,-1
 372 307 l 1,15,-1
 307 307 l 1,12,-1
42 307 m 1,16,-1
 42 381 l 1,17,-1
 337 381 l 1,18,-1
 337 307 l 1,19,-1
 42 307 l 1,16,-1
EndSplineSet
EndChar

StartChar: exclam
Encoding: 33 33 82
Width: 725
Flags: W
LayerCount: 2
Fore
SplineSet
412 587 m 1,0,-1
 412 658 l 1,1,-1
 477 658 l 1,2,-1
 477 587 l 1,3,-1
 412 587 l 1,0,-1
412 547 m 1,4,-1
 412 618 l 1,5,-1
 477 618 l 1,6,-1
 477 547 l 1,7,-1
 412 547 l 1,4,-1
412 507 m 1,8,-1
 412 578 l 1,9,-1
 477 578 l 1,10,-1
 477 507 l 1,11,-1
 412 507 l 1,8,-1
412 467 m 1,12,-1
 412 538 l 1,13,-1
 477 538 l 1,14,-1
 477 467 l 1,15,-1
 412 467 l 1,12,-1
442 587 m 1025,16,-1
412 427 m 1,17,-1
 412 498 l 1,18,-1
 477 498 l 1,19,-1
 477 427 l 1,20,-1
 412 427 l 1,17,-1
412 387 m 1,21,-1
 412 458 l 1,22,-1
 477 458 l 1,23,-1
 477 387 l 1,24,-1
 412 387 l 1,21,-1
412 347 m 1,25,-1
 412 418 l 1,26,-1
 477 418 l 1,27,-1
 477 347 l 1,28,-1
 412 347 l 1,25,-1
412 307 m 1,29,-1
 412 378 l 1,30,-1
 477 378 l 1,31,-1
 477 307 l 1,32,-1
 412 307 l 1,29,-1
412 267 m 1,33,-1
 412 338 l 1,34,-1
 477 338 l 1,35,-1
 477 267 l 1,36,-1
 412 267 l 1,33,-1
412 227 m 1,37,-1
 412 298 l 1,38,-1
 477 298 l 1,39,-1
 477 227 l 1,40,-1
 412 227 l 1,37,-1
412 258 m 1,41,-1
 477 258 l 1025,42,-1
412 218 m 1,43,-1
 477 218 l 1025,44,-1
477 27 m 1,45,-1
 412 27 l 1025,46,-1
412 -13 m 1,47,-1
 412 58 l 1,48,-1
 477 58 l 1,49,-1
 477 -13 l 1,50,-1
 412 -13 l 1,47,-1
EndSplineSet
EndChar
